<?xml version="1.0" standalone="no"?>
<!DOCTYPE svg PUBLIC "-//W3C//DTD SVG 1.1//EN" "http://www.w3.org/Graphics/SVG/1.1/DTD/svg11.dtd" >
<svg xmlns="http://www.w3.org/2000/svg" xmlns:xlink="http://www.w3.org/1999/xlink" version="1.1">
<metadata>
Created by FontForge 20170731 at Thu May  4 19:38:24 2017
 By Aleksey,,,
Copyright (c) 2011, FontFuror (info@fontfuror.com), with Reserved Font Names "Buenard" and "Buenard Pro".
</metadata>
<defs>
<font id="Buenard-Bold" horiz-adv-x="298" >
  <font-face 
    font-family="Buenard"
    font-weight="700"
    font-stretch="normal"
    units-per-em="1000"
    panose-1="2 0 0 0 0 0 0 0 0 0"
    ascent="800"
    descent="-200"
    x-height="429"
    cap-height="659"
    bbox="-145 -270 1026 1031"
    underline-thickness="50"
    underline-position="-150"
    unicode-range="U+0020-2212"
  />
<missing-glyph horiz-adv-x="218" 
 />
    <glyph glyph-name=".notdef" horiz-adv-x="218" 
 />
    <glyph glyph-name=".null" horiz-adv-x="0" 
 />
    <glyph glyph-name="nonmarkingreturn" horiz-adv-x="333" 
 />
    <glyph glyph-name="space" unicode=" " horiz-adv-x="205" 
 />
    <glyph glyph-name="exclam" unicode="!" horiz-adv-x="271" 
d="M65 660l13 16q23 0 70.5 -6t60.5 -12q-19 -223 -31 -349l-10 -103l-54 -13l-17 12l-7 153zM52 58q0 33 23 53.5t60 20.5t60.5 -20.5t23.5 -53.5t-23.5 -53.5t-60.5 -20.5t-60 20.5t-23 53.5z" />
    <glyph glyph-name="quotedbl" unicode="&#x22;" horiz-adv-x="366" 
d="M213 717l24 11q19 0 50 -5.5t44 -11.5q0 -56 -38 -234l-49 -10l-16 12zM35 717l24 11q19 0 50 -5.5t44 -11.5q0 -56 -38 -234l-49 -10l-16 12z" />
    <glyph glyph-name="numbersign" unicode="#" horiz-adv-x="577" 
d="M293 0l24 169h-99l-24 -169h-68l24 169h-108l14 74h105q2 16 9 60t10 69h-109l13 74h107l22 157h69l-23 -157h98l23 157h69l-23 -157h109l-14 -74h-105q-4 -23 -10 -66t-9 -63h109l-14 -74h-105l-25 -169h-69zM248 372l-19 -129h99q6 31 19 129h-99z" />
    <glyph glyph-name="dollar" unicode="$" horiz-adv-x="544" 
d="M77 57q-3 28 -3 67t7 93l50 10q10 -131 108 -147l9 185q-101 51 -132 88q-35 41 -35 89q0 71 50.5 109.5t131.5 42.5l5 91l48 5l-5 -97q34 -3 139 -27q-7 -75 -23 -149l-47 -4q-6 80 -16 102q-19 15 -55 21l-8 -156q2 -1 6 -2.5t19.5 -9.5t33 -18t42.5 -27.5t38 -33.5
q35 -41 35 -89q0 -77 -52.5 -122.5t-137.5 -53.5l-4 -81l-48 -4l4 84q-81 4 -160 34zM349 167q0 37 -54 72l-8 -158q62 15 62 86zM200 469q0 -32 54 -64l7 133q-61 -8 -61 -69z" />
    <glyph glyph-name="percent" unicode="%" horiz-adv-x="806" 
d="M179 -16l370 626h78l-370 -626h-78zM323 567.5q44 -42.5 44 -112.5t-44.5 -114.5t-114.5 -44.5t-114 43t-44 113t44.5 114t114.5 44t114 -42.5zM256.5 370q19.5 28 19.5 83.5t-19.5 83t-47.5 27.5t-48 -27.5t-20 -83t20 -83.5t48 -28t47.5 28zM712 255.5
q44 -42.5 44 -112.5t-44.5 -114.5t-114.5 -44.5t-114 43t-44 113t44.5 114t114.5 44t114 -42.5zM645.5 58q19.5 28 19.5 83.5t-19.5 83t-47.5 27.5t-48 -27.5t-20 -83.5t20 -83.5t48 -27.5t47.5 28z" />
    <glyph glyph-name="ampersand" unicode="&#x26;" horiz-adv-x="642" 
d="M482 -7q-14 0 -64 48q-70 -57 -151 -57q-101 0 -166.5 41t-65.5 122q0 115 130 168q-1 1 -3 3.5t-3 3.5q-30 33 -43 63.5t-13 76.5q0 62 51 105t119 43t117 -35.5t49 -91.5t-42.5 -98t-97.5 -55q5 -6 16 -17q76 -86 141 -153q18 30 18 67t-30 94l33 21q68 -56 101 -99
q-22 -39 -86 -120q58 -56 83.5 -74.5t78.5 -18.5l-7 -37h-165zM201 275q-37 -44 -37 -103.5t31.5 -96.5t81.5 -37t104 40q-50 52 -180 197zM217 488q0 -53 53 -122q21 12 37 42.5t16 66.5t-16.5 59t-40 23t-36.5 -19.5t-13 -49.5z" />
    <glyph glyph-name="quotesingle" unicode="'" horiz-adv-x="182" 
d="M50 717l14 11q16 0 40 -5.5t34 -11.5q0 -51 -39 -234l-28 -5l-10 7z" />
    <glyph glyph-name="parenleft" unicode="(" horiz-adv-x="329" 
d="M218 476q-24 -93 -24 -227.5t25.5 -229t85.5 -164.5l-28 -25q-97 65 -154.5 175.5t-57.5 243.5t57.5 243t154.5 174l25 -28q-60 -69 -84 -162z" />
    <glyph glyph-name="parenright" unicode=")" horiz-adv-x="329" 
d="M206.5 492q57.5 -110 57.5 -243t-57.5 -243.5t-154.5 -175.5l-28 25q60 70 85.5 164.5t25.5 229t-24 227.5t-84 162l25 28q97 -64 154.5 -174z" />
    <glyph glyph-name="asterisk" unicode="*" horiz-adv-x="455" 
d="M399 619q14 -41 14 -58t-1 -23q-25 -8 -124 -22l80 -96l-12 -19q-14 -11 -37.5 -23.5t-35.5 -13.5q-19 26 -59 112l-67 -106l-22 5q-14 10 -33 29t-24 29q14 21 88 91l-122 31l-2 22q5 16 17 40t21 32q31 -11 114 -56l-8 126l20 9q47 0 80 -14q0 -28 -17 -124l116 46z
" />
    <glyph glyph-name="plus" unicode="+" horiz-adv-x="464" 
d="M272 421v-164h149v-76h-149v-166h-80v166h-149v76h149v164h80z" />
    <glyph glyph-name="comma" unicode="," horiz-adv-x="255" 
d="M182 92q33 -25 33 -63.5t-47.5 -104.5t-92.5 -106l-30 24q67 101 67 148q0 22 -63 27l-14 31q12 17 36.5 39.5t42.5 32.5q35 -3 68 -28z" />
    <glyph glyph-name="hyphen" unicode="-" horiz-adv-x="315" 
d="M33 185l15 89h234l-14 -89h-235z" />
    <glyph glyph-name="period" unicode="." horiz-adv-x="247" 
d="M40 58q0 33 23 53.5t60 20.5t60.5 -20.5t23.5 -53.5t-23.5 -53.5t-60.5 -20.5t-60 20.5t-23 53.5z" />
    <glyph glyph-name="slash" unicode="/" horiz-adv-x="441" 
d="M27 -131l313 798l74 -39l-313 -798z" />
    <glyph glyph-name="zero" unicode="0" horiz-adv-x="561" 
d="M462.5 383.5q69.5 -61.5 69.5 -163.5t-70.5 -168t-182 -66t-181 63.5t-69.5 165.5t70.5 166t182 64t181 -61.5zM364 88.5q34 44.5 34 129t-34 127t-83 42.5t-83.5 -42.5t-34.5 -127t34.5 -129t83.5 -44.5t83 44.5z" />
    <glyph glyph-name="one" unicode="1" horiz-adv-x="323" 
d="M228 81q0 -22 18 -32q16 -8 52 -17l12 -3l-8 -37q-66 8 -137 8t-137 -8l-8 37q48 10 67 20t19 32v246q0 20 -7.5 28t-26.5 8h-47l-6 34q30 11 91.5 26.5t96.5 21.5l21 -21v-343z" />
    <glyph glyph-name="two" unicode="2" horiz-adv-x="439" 
d="M121 375q-10 -20 -10 -55t1 -45l-51 -8q-8 19 -18.5 65t-12.5 68q105 45 174 45t118 -31t49 -90t-27 -96t-82 -80q-17 -14 -105 -67l4 -9h156q10 9 27.5 37.5t21.5 43.5l42 -7q-1 -16 -9.5 -71.5t-12.5 -74.5h-355l-6 52q101 76 144 120q70 73 70 139q0 36 -14 57.5
t-47 21.5t-57 -15z" />
    <glyph glyph-name="three" unicode="3" horiz-adv-x="425" 
d="M242 305q0 85 -61 85q-45 0 -69 -11q-9 -24 -9 -55.5t2 -43.5l-47 -8q-8 17 -18 63.5t-13 69.5q108 40 177 40t116.5 -30.5t47.5 -87t-40 -94.5t-93 -54v-9q66 0 114.5 -40t48.5 -117t-64 -130t-148.5 -53t-177.5 31q4 50 34 145l47 -8q0 -81 4 -98q32 -15 74.5 -15
t70.5 32.5t28 82.5q0 74 -39 99.5t-111 25.5l2 44q46 11 85 48.5t39 87.5z" />
    <glyph glyph-name="four" unicode="4" horiz-adv-x="460" 
d="M370 0v-75q0 -22 18 -33q18 -10 44 -19l-8 -37q-60 8 -102.5 8t-149.5 -8l-8 37q48 10 67 20t19 32v75h-214l-31 47l262 385h103v-365h77l-18 -67h-59zM250 67v249l-4 1l-9 -23l-147 -218l5 -9h155z" />
    <glyph glyph-name="five" unicode="5" horiz-adv-x="405" 
d="M207 208q64 0 112 -32q67 -45 67 -149q0 -85 -61.5 -141t-150.5 -56q-65 0 -177 31q2 21 14 74t20 74l49 -8q-2 -31 -2 -58t4 -42q41 -16 81.5 -16t66 36t25.5 90q0 133 -126 133q-22 0 -48 -4l-33 40l43 251l193 11q56 4 82 17l12 -15q-1 -10 -11 -41t-16 -42h-183
l-21 -151l6 -7q28 5 54 5z" />
    <glyph glyph-name="six" unicode="6" horiz-adv-x="475" 
d="M182 314q39 50 82 50q87 0 135.5 -48.5t48.5 -133.5t-60 -140.5t-146 -55.5q-103 0 -157 67t-54 165t30 170.5t80 119.5q104 96 243 102l4 -38q-110 -17 -167.5 -103.5t-57.5 -238.5q0 -105 33 -160q20 -31 53.5 -31t52 36t18.5 94.5t-19.5 99.5t-54 41t-60.5 -17z" />
    <glyph glyph-name="seven" unicode="7" horiz-adv-x="414" 
d="M23 267q-4 40 -4 93t3 77q42 -8 104 -8h267l27 -36q-235 -364 -240 -549q-49 -14 -119 -14l-14 17q12 156 261 501l-5 7h-211q-12 -25 -21 -92z" />
    <glyph glyph-name="eight" unicode="8" horiz-adv-x="473" 
d="M30 142q0 51 34.5 91.5t89.5 62.5q-47 31 -73.5 67t-26.5 96t55.5 105.5t131 45.5t125 -34.5t49.5 -98.5q0 -49 -29.5 -87t-75.5 -59q41 -23 66 -42t46 -54.5t21 -79.5q0 -73 -64 -121t-150.5 -48t-142.5 39.5t-56 116.5zM296.5 65.5q22.5 26.5 22.5 58.5t-9 52
t-30.5 38.5t-35.5 27.5t-47 29q-45 -48 -45 -119q0 -50 22 -81.5t61 -31.5t61.5 26.5zM188 534q-17 -22 -17 -59.5t24 -65t68 -52.5q39 51 39 102q0 97 -70 97q-27 0 -44 -22z" />
    <glyph glyph-name="nine" unicode="9" horiz-adv-x="477" 
d="M209 72q-83 0 -133.5 47.5t-50.5 127.5t62 139t146 59q104 0 156.5 -69.5t52.5 -181.5q0 -85 -31.5 -155t-84.5 -114q-105 -89 -246 -95l-3 37q85 14 145 70t80 158q-44 -23 -93 -23zM310 197q0 194 -81 194q-38 0 -57 -36t-19 -94.5t19.5 -97t59 -38.5t77.5 24
q1 13 1 48z" />
    <glyph glyph-name="colon" unicode=":" horiz-adv-x="247" 
d="M40 58q0 33 23 53.5t60 20.5t60.5 -20.5t23.5 -53.5t-23.5 -53.5t-60.5 -20.5t-60 20.5t-23 53.5zM40 353q0 33 23 53.5t60 20.5t60.5 -20.5t23.5 -53.5t-23.5 -53.5t-60.5 -20.5t-60 20.5t-23 53.5z" />
    <glyph glyph-name="semicolon" unicode=";" horiz-adv-x="255" 
d="M40 353q0 33 23 53.5t60 20.5t60.5 -20.5t23.5 -53.5t-23.5 -53.5t-60.5 -20.5t-60 20.5t-23 53.5zM182 92q33 -25 33 -63.5t-47.5 -104.5t-92.5 -106l-30 24q67 101 67 148q0 22 -63 27l-14 31q12 17 36.5 39.5t42.5 32.5q35 -3 68 -28z" />
    <glyph glyph-name="less" unicode="&#x3c;" horiz-adv-x="478" 
d="M432 -16l-386 198v58l386 198v-83l-290 -144l290 -144v-83z" />
    <glyph glyph-name="equal" unicode="=" horiz-adv-x="464" 
d="M417 93h-370v75h370v-75zM417 271h-370v75h370v-75z" />
    <glyph glyph-name="greater" unicode="&#x3e;" horiz-adv-x="478" 
d="M432 182l-386 -198v83l290 144l-290 144v83l386 -198v-58z" />
    <glyph glyph-name="question" unicode="?" horiz-adv-x="442" 
d="M217 421q66 66 66 107t-20.5 64t-55.5 23t-53.5 -27t-20.5 -93l-54 -11q-26 93 -26 135q106 47 182.5 47t122 -37.5t45.5 -111.5q0 -29 -18.5 -58.5t-36.5 -46.5t-50.5 -43t-45.5 -39q-42 -38 -42 -68l5 -47l-39 -33q-44 44 -63 97q2 31 20.5 54t25.5 31t30.5 30.5
t27.5 26.5zM108 58q0 33 23 53.5t60 20.5t60.5 -20.5t23.5 -53.5t-23.5 -53.5t-60.5 -20.5t-60 20.5t-23 53.5z" />
    <glyph glyph-name="at" unicode="@" horiz-adv-x="879" 
d="M587 99q0 -2 -2 -9.5t-2 -18t12.5 -10.5t44.5 25q55 40 91.5 92t36.5 103q0 123 -73 195.5t-202 72.5q-156 0 -259 -100t-103 -257t81.5 -245t238.5 -88q42 0 91 16t84 40l24 -30q-40 -36 -103 -62.5t-119 -26.5q-184 0 -287 106t-103 286q0 118 64.5 215.5t171.5 152
t230 54.5q166 0 263.5 -87t97.5 -235q0 -50 -69.5 -121.5t-150.5 -122.5q-91 -60 -135 -60q-33 0 -33 40q0 24 11 65l14 60l-6 2q-80 -120 -132 -151q-25 -16 -49 -16q-87 0 -87 100q0 133 93.5 243t211.5 110q43 0 119 -14l16 -21q-16 -29 -26 -60zM549 369q-12 8 -59.5 8
t-86.5 -47t-57 -107.5t-18 -114t24 -53.5q29 0 77 56t95 132q7 19 15 61.5t10 64.5z" />
    <glyph glyph-name="A" unicode="A" horiz-adv-x="652" 
d="M148 75q0 -18 25 -27l56 -18l-6 -39q-65 9 -110 9t-114 -9l-8 39q45 9 57 21t29 60l196 534q47 9 89 30l218 -564q18 -47 30 -59.5t51 -21.5l-7 -39q-69 9 -134.5 9t-140.5 -9l-6 39q33 10 56.5 19t23.5 26q0 7 -3 14l-51 139h-202l-47 -139q-2 -5 -2 -14zM286 485
l-67 -193h157l-67 186l-11 42l-7 3z" />
    <glyph glyph-name="B" unicode="B" horiz-adv-x="617" 
d="M94 650l195 8q247 0 247 -148q0 -65 -41 -97.5t-96 -43.5v-7q73 -4 128 -46.5t55 -131.5t-75 -140.5t-188 -51.5l-139 8q-50 0 -124 -8l-8 38q38 8 55 17.5t17 31.5v489q0 22 -12 28q-19 11 -50 18l-10 3l8 36q10 -3 38 -3zM249 319v-228q0 -26 21 -37.5t46 -11.5
q52 0 88.5 35t36.5 103q0 139 -130 139h-62zM249 376h38q53 0 83.5 32t30.5 91q0 110 -112 110q-21 0 -40 -7v-226z" />
    <glyph glyph-name="C" unicode="C" horiz-adv-x="680" 
d="M403 -16q-160 0 -261.5 85.5t-101.5 229.5q0 162 101 264.5t270 102.5q54 0 91.5 -6t50.5 -8t48 -9.5t42 -8.5q-10 -112 -27 -176l-54 -10q-14 107 -34 136q-41 26 -135 26t-148 -76t-54 -198.5t61.5 -209t160.5 -86.5q72 0 110.5 36.5t60.5 119.5l54 -5q-1 -67 -21 -174
q-99 -33 -214 -33z" />
    <glyph glyph-name="D" unicode="D" horiz-adv-x="768" 
d="M249 98q0 -52 110.5 -52t169 76t58.5 211.5t-65 203.5t-202 68q-46 0 -71 -9v-498zM99 653l240 7q178 0 281 -70q108 -73 108 -237t-96 -262.5t-265 -98.5q-46 0 -109 4t-88 4t-113 -9l-8 39q37 8 54 17.5t17 31.5v490q0 12 -2.5 16.5t-11.5 10.5q-18 11 -48 18l-10 3
l8 37q17 -1 43 -1z" />
    <glyph glyph-name="E" unicode="E" horiz-adv-x="594" 
d="M518 656l2 -87q0 -35 -3 -70l-46 -8q-14 77 -32 98h-190v-220h115q25 0 33 15q6 11 15 46l2 10l43 -5q-8 -53 -8 -98.5t8 -95.5l-43 -4q-9 39 -16.5 54.5t-33.5 15.5h-115v-245h200q13 11 30.5 51.5t24.5 65.5l46 -8q-1 -29 -8 -89.5t-13 -81.5h-349q-41 0 -127 -9l-8 39
q65 13 73 30q2 5 2 19v494q0 23 -16 30q-19 9 -48 15l-11 3l9 39q96 -10 126 -10h246q48 0 92 6z" />
    <glyph glyph-name="F" unicode="F" horiz-adv-x="523" 
d="M355 302h-106v-215q0 -15 4 -22.5t18 -12.5l80 -19l-7 -42q-76 9 -146.5 9t-142.5 -9l-7 39q38 8 55 17.5t17 31.5v494q0 25 -20 33t-52 15l9 39q82 -10 123 -10h241q47 0 87 6q2 -23 2 -63t-2 -97l-46 -8q-19 84 -34 100h-179v-224h106q27 0 33 15l12 57l38 -5
q-8 -53 -8 -99.5t8 -96.5l-38 -5q-6 42 -12 57t-33 15z" />
    <glyph glyph-name="G" unicode="G" horiz-adv-x="707" 
d="M401 666q87 0 231 -32q-8 -92 -26 -166l-54 -8q-11 92 -33 124q-41 26 -135.5 26t-148.5 -76t-54 -198.5t61.5 -209t160.5 -86.5q57 0 94 26v126q0 27 -22 35l-73 19l9 42q94 -9 157.5 -9t108.5 9l7 -39q-28 -9 -43 -18.5t-15 -30.5v-181q-98 -35 -233 -35
q-156 0 -254.5 85.5t-98.5 229.5q0 162 98.5 264.5t262.5 102.5z" />
    <glyph glyph-name="H" unicode="H" horiz-adv-x="815" 
d="M566 373v197q0 14 -2.5 20t-11.5 10q-19 9 -54 14l-13 1l9 44q74 -9 136 -9t129 9l8 -39q-38 -8 -55 -17.5t-17 -30.5v-494q0 -21 12 -28q19 -10 50 -18l10 -2l-8 -39q-67 9 -129 9t-137 -9l-8 44q72 9 79 25q2 6 2 20v225h-317v-225q0 -14 2.5 -20t12.5 -10
q17 -9 54 -14l12 -1l-8 -44q-75 9 -136.5 9t-129.5 -9l-8 39q38 8 55 17.5t17 30.5v494q0 21 -12 28q-19 10 -50 18l-10 2l9 39q66 -9 128.5 -9t135.5 9l9 -44q-47 -6 -64 -13.5t-17 -29.5v-199h317z" />
    <glyph glyph-name="I" unicode="I" horiz-adv-x="369" 
d="M249 572v-494q0 -13 2.5 -18.5t12.5 -10.5q16 -9 48 -17l11 -2l-7 -39q-69 9 -130.5 9t-130.5 -9l-7 39q62 13 70 30q2 5 2 18v494q0 13 -2.5 18.5t-11.5 10.5q-17 9 -48 17l-10 2l7 39q69 -9 130.5 -9t130.5 9l7 -39q-64 -12 -71 -30q-3 -5 -3 -18z" />
    <glyph glyph-name="J" unicode="J" horiz-adv-x="303" 
d="M82 0v572q0 13 -2.5 18.5t-11.5 10.5q-17 9 -48 17l-10 2l7 39q69 -9 130.5 -9t130.5 9l7 -39q-64 -12 -71 -30q-3 -5 -3 -18v-522q0 -43 -2 -65.5t-12.5 -55t-35 -60t-65.5 -58.5l-96 -71l-30 30q112 121 112 230z" />
    <glyph glyph-name="K" unicode="K" horiz-adv-x="717" 
d="M494 602q0 14 -56 23l7 33q49 -8 101 -8t103 8l7 -33q-34 -5 -54 -15.5t-41 -33.5l-194 -205l251 -275q34 -37 56 -49.5t58 -21.5l-7 -33q-67 8 -148.5 8t-136.5 -8l-9 33q4 1 12 2.5t12 2.5t10.5 2.5t10 3t6.5 3.5q7 4 7 12.5t-18 28.5l-208 237v33l216 226q15 16 15 26
zM249 572v-494q0 -13 2.5 -18.5t12.5 -10.5q16 -9 56 -17l13 -2l-7 -39q-75 9 -138.5 9t-132.5 -9l-7 39q62 13 70 30q2 5 2 18v494q0 13 -2.5 18.5t-11.5 10.5q-17 9 -48 17l-10 2l7 39q69 -9 130.5 -9t130.5 9l7 -39q-64 -12 -71 -30q-3 -5 -3 -18z" />
    <glyph glyph-name="L" unicode="L" horiz-adv-x="540" 
d="M249 563v-500h176q13 11 33.5 51.5t27.5 63.5l48 -9q-1 -25 -9 -86.5t-14 -82.5h-334q-22 0 -121 -9l-8 38q38 8 55 17.5t17 32.5v492q0 22 -12 29q-19 10 -50 18l-10 2l9 39q69 -9 141.5 -9t144.5 9l8 -42q-62 -12 -82 -19.5t-20 -34.5z" />
    <glyph glyph-name="M" unicode="M" horiz-adv-x="944" 
d="M657 660q52 -10 105.5 -10t111.5 10l7 -39q-37 -9 -55 -18t-16 -34l30 -487q1 -24 18 -34q16 -8 52 -18l-7 -39q-63 9 -125 9t-141 -9l-7 41q72 15 82 32q4 5 3 18l-24 429l-6 5q-11 -50 -21 -74l-119 -300q-17 -42 -37 -114l-6 -22l-95 -24q-28 95 -49 147l-120 308
l-19 66l-7 -5l-29 -416q-1 -13 2.5 -18.5t12.5 -10.5q17 -9 57 -18l13 -3l-8 -41q-65 9 -113.5 9t-111.5 -9l-8 39q37 8 54.5 17t18.5 32l37 493q1 22 -16 31q-16 8 -49 15l-11 3l7 39q55 -10 115.5 -10t116.5 10q12 -46 20 -69l144 -389l13 -47l7 -2q2 33 9 48l143 384z
" />
    <glyph glyph-name="N" unicode="N" horiz-adv-x="769" 
d="M205 87q0 -15 4 -23t18 -12q13 -6 64 -16l16 -3l-8 -42q-69 9 -123 9t-126 -9l-8 39q41 7 62 18q16 7 16 31v494q0 22 -16 30l-59 18l7 39q55 -10 107.5 -10t108.5 10q23 -40 62 -97l208 -300q15 -23 28 -59l4 -12l5 4v374q0 22 -17 30q-11 6 -54 16l-13 3l7 41
q77 -10 119.5 -10t110.5 10l7 -39q-38 -8 -56.5 -17.5t-18.5 -30.5v-380q0 -78 6 -159l2 -27l-108 -21q-37 82 -114 192l-200 286q-17 24 -31 54l-5 11l-5 -4v-438z" />
    <glyph glyph-name="O" unicode="O" horiz-adv-x="771" 
d="M134 71q-94 87 -94 240t93.5 254t251.5 101t252 -87t94 -240t-93.5 -254t-251.5 -101t-252 87zM229.5 534.5q-48.5 -73.5 -48.5 -196t55 -209.5t156 -87t149.5 73.5t48.5 196t-55 209.5t-156 87t-149.5 -73.5z" />
    <glyph glyph-name="P" unicode="P" horiz-adv-x="558" 
d="M263 319l33 -4q111 0 111 147t-121 147q-16 0 -37 -7v-515q0 -15 4 -22.5t18 -12.5l81 -19l-8 -42q-94 9 -146 9t-142 -9l-8 39q38 8 55 17.5t17 31.5v490q0 21 -12 27q-18 10 -51 18l-10 3l8 37q3 -3 35 -3l197 7q259 0 259 -184q0 -82 -66 -141.5t-147 -59.5
q-13 0 -34.5 9t-31.5 16z" />
    <glyph glyph-name="Q" unicode="Q" horiz-adv-x="771" 
d="M129 75.5q-89 86.5 -89 237.5t93.5 252t251.5 101t252 -87t94 -238.5t-90 -251.5t-240 -104q23 -6 95.5 -53t110.5 -47t79 57l28 -36q-50 -69 -82 -94t-64.5 -25t-72.5 25.5t-74.5 51t-53.5 25.5t-42.5 -17.5t-37.5 -34.5l-35 27q18 25 58.5 66.5t60.5 53.5
q-153 5 -242 91.5zM229.5 534.5q-48.5 -73.5 -48.5 -196t55 -210.5t156 -88t149.5 73.5t48.5 197t-55 210.5t-156 87t-149.5 -73.5z" />
    <glyph glyph-name="R" unicode="R" horiz-adv-x="665" 
d="M249 341h30q128 0 128 134q0 69 -28 101.5t-90 32.5q-23 0 -40 -7v-261zM88 651l201 7q115 0 186 -39.5t71 -129.5q0 -66 -48 -115t-115 -54v-7q30 -7 61 -42t53 -75q61 -111 100 -138t80 -27l-6 -37h-177q-24 0 -60 56q-32 51 -59 102.5t-41.5 78t-28.5 40t-38 13.5h-18
v-197q0 -15 4 -22.5t18 -12.5l80 -19l-7 -42q-94 9 -146.5 9t-142.5 -9l-7 39q62 13 70 30q2 5 2 19v490q0 22 -12 29q-22 11 -50 17l-10 2l7 37q3 -3 33 -3z" />
    <glyph glyph-name="S" unicode="S" horiz-adv-x="524" 
d="M248 40q45 0 74.5 28t29.5 77q0 46 -40 80q-33 28 -75.5 52.5t-53.5 31t-37 24.5t-37.5 31t-26.5 32q-27 36 -27 91q0 84 62.5 131.5t159.5 47.5q35 0 182 -26q-1 -24 -10.5 -80t-15.5 -78l-49 -7q-7 81 -19 112q-34 25 -96 25q-39 0 -64.5 -24.5t-25.5 -67.5
q0 -42 43 -74q32 -24 81 -51.5t72 -42.5t53 -40q56 -49 56 -125q0 -99 -70.5 -151t-173.5 -52t-190 37q-2 13 -2 80.5t4 86.5l52 11q6 -70 41 -114.5t103 -44.5z" />
    <glyph glyph-name="T" unicode="T" horiz-adv-x="579" 
d="M441 -9q-77 9 -151.5 9t-151.5 -9l-9 40q83 16 93 33q3 5 3 18v506h-132q-10 -27 -21 -118l-57 9q-9 71 -9 114.5t1 64.5q67 -8 106 -8h353q39 0 106 8q1 -12 1 -48.5t-10 -130.5l-56 -9q-6 80 -21 118h-132v-506q0 -20 12 -26q19 -11 68 -22l16 -3z" />
    <glyph glyph-name="U" unicode="U" horiz-adv-x="754" 
d="M648 572v-327q0 -127 -70 -193t-204 -66t-201 59.5t-67 187.5v339q0 13 -2.5 18.5t-11.5 10.5q-17 9 -48 17l-10 2l7 39q69 -9 130.5 -9t130.5 9l7 -39q-64 -12 -71 -30q-3 -5 -3 -18v-323q0 -97 40 -142.5t122 -45.5t124 45t42 123v343q0 13 -2.5 18.5t-11.5 10.5
q-16 9 -47 17l-11 2l7 39q51 -9 104 -9t113 9l7 -39q-64 -12 -72 -30q-2 -5 -2 -18z" />
    <glyph glyph-name="V" unicode="V" horiz-adv-x="640" 
d="M498 575q0 19 -26 27l-59 18l7 39q64 -9 111 -9t107 9l8 -39q-39 -9 -50 -21.5t-26 -59.5l-207 -546h-94l-197 546q-17 47 -28.5 59.5t-49.5 21.5l9 39q66 -9 132 -9t141 9l7 -39q-36 -10 -59 -19.5t-23 -27.5q0 -6 2 -12l133 -384l10 -41l7 -3l6 44l136 384q3 7 3 14z
" />
    <glyph glyph-name="W" unicode="W" horiz-adv-x="1020" 
d="M2 659q66 -9 131.5 -9t140.5 9l7 -39q-36 -9 -57 -18q-25 -9 -25 -28q0 -8 2 -13l119 -382l6 -29l6 -1l4 33l152 467h102l152 -467l6 -26l5 -1l6 30l118 376q2 5 2 13q0 21 -25 28l-59 18l7 39q65 -9 110.5 -9t105.5 9l8 -39q-39 -10 -50 -22t-26 -59l-186 -547h-93
l-154 461l-6 27l-5 1l-8 -34l-150 -455h-94l-182 547q-15 46 -27 58.5t-51 22.5z" />
    <glyph glyph-name="X" unicode="X" horiz-adv-x="696" 
d="M376 30q78 20 78 42q0 11 -5 17l-131 185l-138 -185q-5 -8 -5 -16q0 -15 28 -27l50 -16l-7 -39q-65 9 -113.5 9t-115.5 -10l-8 39q27 7 46.5 21t46.5 48l179 228l-151 215q-29 41 -49 56.5t-54 22.5l8 39q66 -9 142 -9t144 9l7 -39q-32 -6 -49.5 -15.5t-17.5 -23t4 -20.5
l117 -164l121 164q4 5 4 16q0 31 -69 43l7 39q64 -9 112 -9t108 9l9 -39q-41 -10 -55.5 -20t-42.5 -48l-158 -205l171 -238q30 -43 48.5 -57.5t49.5 -21.5l-8 -39q-66 9 -146.5 9t-149.5 -9z" />
    <glyph glyph-name="Y" unicode="Y" horiz-adv-x="608" 
d="M-4 660q70 -10 139.5 -10t153.5 10l-3 -38q-29 -6 -46 -15.5t-17 -25t8 -28.5l111 -193l106 194q10 17 10 28.5t-10.5 19t-64.5 20.5l-3 38q82 -10 123 -10t109 10l-4 -38q-31 -3 -50 -17t-37 -53l-157 -276v-198q0 -14 2.5 -19.5t11.5 -10.5q20 -10 58 -18l14 -2l-9 -36
q-75 8 -138.5 8t-132.5 -8l-8 37q73 12 80 29q3 6 3 20v196l-165 285q-17 35 -34 47.5t-46 15.5z" />
    <glyph glyph-name="Z" unicode="Z" horiz-adv-x="595" 
d="M168 650h362l9 -55l-351 -527h240q15 14 44 66t39 80l51 -12q-1 -28 -14 -101.5t-21 -100.5h-481l-14 52l354 530h-228q-29 -39 -51 -132l-50 9q0 148 6 186l34 18q30 -13 71 -13z" />
    <glyph glyph-name="bracketleft" unicode="[" horiz-adv-x="327" 
d="M96 -156v806h209v-64h-119v-678h119v-64h-209z" />
    <glyph glyph-name="backslash" unicode="\" horiz-adv-x="441" 
d="M101 667l313 -798l-74 -39l-313 798z" />
    <glyph glyph-name="bracketright" unicode="]" horiz-adv-x="327" 
d="M231 650v-806h-209v64h119v678h-119v64h209z" />
    <glyph glyph-name="asciicircum" unicode="^" horiz-adv-x="476" 
d="M32 311l172 360h68l172 -360l-74 -31l-132 295l-132 -295z" />
    <glyph glyph-name="underscore" unicode="_" horiz-adv-x="500" 
d="M0 -156v69h500v-69h-500z" />
    <glyph glyph-name="grave" unicode="`" horiz-adv-x="322" 
d="M66 658l13 27q62 0 105 -9q9 -9 41 -71t41 -84l-47 -27z" />
    <glyph glyph-name="a" unicode="a" horiz-adv-x="459" 
d="M162 74.5q12 -15.5 38 -15.5t60 29v102l-52 -11q-58 -13 -58 -67q0 -22 12 -37.5zM380 291v-199q0 -21 8.5 -28t27.5 -10l25 -2l9 -34q-54 -9 -135 -34q-42 25 -52 64q-64 -64 -105 -64q-58 0 -93 32t-35 88t42 82.5t121 35.5l67 8v47q0 53 -11.5 79t-44.5 26t-59 -13
q-6 -21 -6 -91l-62 -17q-29 90 -30 122q118 54 176 54q81 0 119 -35.5t38 -110.5z" />
    <glyph glyph-name="b" unicode="b" horiz-adv-x="515" 
d="M419.5 53.5q-64.5 -69.5 -158.5 -69.5t-199 41v587q0 18 -5 25.5t-20 7.5l-37 -5l-6 38q34 13 90.5 25.5t90.5 14.5l20 -23q-13 -25 -13 -93v-219q65 54 120 54q90 0 136 -56t46 -157t-64.5 -170.5zM261 363q-39 0 -69 -19l-10 -7v-230q0 -30 21.5 -48.5t59 -18.5t65 42
t27.5 124q0 157 -94 157z" />
    <glyph glyph-name="c" unicode="c" horiz-adv-x="437" 
d="M322 264q1 9 1 22q0 62 -11 82q-26 17 -73 17q-79 0 -79 -157q0 -82 32 -124t87.5 -42t118.5 36l20 -29q-94 -85 -172 -85q-96 0 -155.5 60.5t-59.5 159t58.5 166t157.5 67.5q32 0 84.5 -13.5t80.5 -24.5q-2 -22 -14.5 -73.5t-21.5 -71.5z" />
    <glyph glyph-name="d" unicode="d" horiz-adv-x="542" 
d="M461 95q0 -26 16 -33q13 -9 53 -9l7 -35q-82 -12 -142 -34q-40 26 -51 65q-58 -65 -112 -65q-92 0 -141.5 57.5t-49.5 159.5t62.5 169t168.5 67q40 0 69 -18v188q0 37 -17.5 37t-56.5 -9l-7 40q33 14 94.5 27.5t98.5 15.5l20 -23q-12 -25 -12 -93v-507zM196.5 98.5
q26.5 -40.5 67.5 -40.5t77 29v246q-14 20 -36 34t-42 14q-41 0 -67 -40.5t-26 -121t26.5 -121z" />
    <glyph glyph-name="e" unicode="e" horiz-adv-x="450" 
d="M275 62q63 0 125 43l21 -32q-96 -89 -179 -89q-98 0 -156.5 60t-58.5 158t59 166.5t153.5 68.5t141.5 -57.5t47 -154.5l-272 -18q8 -145 119 -145zM298 275q0 111 -66 111q-37 0 -56.5 -38.5t-19.5 -92.5z" />
    <glyph glyph-name="f" unicode="f" horiz-adv-x="326" 
d="M95 479q0 99 55.5 169t153.5 70q46 0 115 -23q-7 -41 -42 -130l-41 8q0 41 -15 66.5t-46 25.5t-45.5 -39t-14.5 -90v-120l112 10l-9 -65l-103 4v-288q0 -13 3 -18t12 -11q17 -11 56 -18l13 -3l-8 -36q-110 9 -133.5 9t-122.5 -9l-8 36q36 8 52 18t16 31v291h-56l-5 40
l61 15v57z" />
    <glyph glyph-name="g" unicode="g" horiz-adv-x="471" 
d="M464 377q-15 -3 -37.5 -3t-41.5 1q38 -40 38 -94q0 -76 -55.5 -118.5t-141.5 -42.5q-22 0 -34 3q-37 -31 -37 -48q0 -23 66 -27l99 -7q69 -5 106.5 -36.5t37.5 -79.5q0 -77 -86 -131t-178 -54t-143 30.5t-51 89.5q0 31 9 46l84 60q-56 21 -56 79q0 17 7 27l89 65
q-11 3 -33 16.5t-35.5 28.5t-25 41.5t-11.5 57.5q0 74 55 115t142 41q41 0 84 -16h23q67 6 124 32l18 -19zM163 -52q-37 -44 -37 -74.5t30 -52.5t81 -22t85.5 25.5t34.5 65t-64 44.5zM158 287q0 -51 18.5 -84.5t54.5 -33.5q67 0 67 105q0 49 -18.5 82t-53.5 33
q-68 0 -68 -102z" />
    <glyph glyph-name="h" unicode="h" horiz-adv-x="570" 
d="M491 286v-210q0 -13 2.5 -18t12.5 -11q14 -9 53 -20l-8 -36q-99 9 -112 9t-116 -9l-8 35q25 7 41 18q15 11 15 30v192q0 50 -15.5 72.5t-51 22.5t-90.5 -39v-248q0 -30 57 -48l-8 -35q-103 9 -116 9t-112 -9l-9 36q36 7 53 19q15 9 15 30v531q0 35 -25 35l-38 -7l-7 40
q32 14 90 27.5t93 15.5l19 -23q-12 -25 -12 -93v-236l32 27q52 44 97 44q73 0 110.5 -35.5t37.5 -115.5z" />
    <glyph glyph-name="i" unicode="i" 
d="M217 321v-245q0 -13 2.5 -18t12.5 -10q18 -11 53 -21l-7 -36q-86 9 -121 9t-120 -9l-8 36q36 8 53 20q15 9 15 29v250q0 35 -27 35l-35 -7l-8 40q36 15 95 29t91 14l20 -23q-16 -42 -16 -93zM62 591q0 31 21.5 50t56.5 19t57 -19t22 -50t-22 -50t-57 -19t-56.5 19
t-21.5 50z" />
    <glyph glyph-name="j" unicode="j" horiz-adv-x="272" 
d="M87 -28v354q0 35 -27 35l-35 -7l-8 40q36 15 95 29t91 14l20 -23q-16 -42 -16 -93v-319q0 -71 -13 -98q-32 -51 -82 -94q-22 -19 -30 -26q-51 -44 -55 -44l-26 26q60 65 79 131q7 23 7 75zM52 591q0 31 21.5 50t56.5 19t57 -19t22 -50t-22 -50t-57 -19t-56.5 19t-21.5 50
z" />
    <glyph glyph-name="k" unicode="k" horiz-adv-x="565" 
d="M217 602v-348l121 103q19 17 19 23q0 9 -30 13l-3 34q31 -6 93.5 -6t104.5 6l-3 -35q-21 -5 -36 -8.5t-40 -25.5l-118 -102l166 -180q22 -24 41 -34l42 -15l-8 -36q-65 9 -112.5 9t-105.5 -9l-8 36q9 1 20 7t11 14t-19 28l-135 148v-148q0 -13 3 -18t12 -11q12 -9 48 -20
l-7 -36q-83 9 -117 9t-119 -9l-8 36q36 8 53 20q15 9 15 29v531q0 35 -27 35l-35 -7l-8 40q36 15 95 29t91 14l20 -23q-16 -42 -16 -93z" />
    <glyph glyph-name="l" unicode="l" 
d="M217 602v-526q0 -13 2.5 -18t12.5 -10q18 -11 53 -21l-7 -36q-86 9 -121 9t-120 -9l-8 36q36 8 53 20q15 9 15 29v531q0 35 -27 35l-35 -7l-8 40q36 15 95 29t91 14l20 -23q-16 -42 -16 -93z" />
    <glyph glyph-name="m" unicode="m" horiz-adv-x="838" 
d="M624 338.5q-15 22.5 -50.5 22.5t-87.5 -42q2 -20 2 -33v-210q0 -19 11 -27q16 -12 43 -22l-8 -36q-88 9 -100.5 9t-111.5 -9l-7 35q24 8 38.5 19t14.5 29v192q0 50 -15 72.5t-50 22.5t-86 -39v-248q0 -31 47 -46l7 -2l-7 -35q-99 9 -112.5 9t-112.5 -9l-10 36q36 8 52 18
t16 31v250q0 34 -26 34l-46 -6l-5 38q33 15 83 28.5t82 16.5l21 -23q0 -20 10 -48l33 27q53 44 94 44q106 0 134 -79l43 35q53 44 94 44q71 0 108 -35.5t37 -115.5v-210q0 -13 3 -18t12 -11q14 -9 53 -20l-8 -36q-99 9 -113 9t-113 -9l-7 35q24 8 38.5 19t14.5 29v192
q0 50 -15 72.5z" />
    <glyph glyph-name="n" unicode="n" horiz-adv-x="573" 
d="M217 74q0 -30 57 -48l-7 -35q-103 9 -116 9t-112 -9l-10 36q36 8 52 18t16 31v250q0 34 -26 34l-46 -6l-5 38q33 15 83 28.5t82 16.5l21 -23q0 -20 10 -48l33 27q53 44 97 44q73 0 110.5 -35.5t37.5 -115.5v-210q0 -13 2.5 -18t11.5 -10q19 -11 54 -21l-8 -36
q-99 9 -112.5 9t-116.5 -9l-7 35q25 8 41 19q15 11 15 29v192q0 50 -15.5 72.5t-51 22.5t-90.5 -39v-248z" />
    <glyph glyph-name="o" unicode="o" horiz-adv-x="510" 
d="M89.5 42q-58.5 58 -58.5 158.5t61.5 166t165 65.5t162.5 -58.5t59 -158t-62.5 -165.5t-165.5 -66t-161.5 58zM160 219q0 -89 28.5 -136.5t79.5 -47.5q82 0 82 162q0 89 -29 136.5t-81 47.5q-80 0 -80 -162z" />
    <glyph glyph-name="p" unicode="p" horiz-adv-x="532" 
d="M282 35q39 0 66.5 43.5t27.5 127.5q0 156 -91 156q-37 0 -81 -41v-230q11 -24 33 -40t45 -16zM284 -253q-93 9 -126 9t-132 -9l-10 36q36 8 52 18t16 31v499q0 34 -26 34l-46 -6l-5 38q86 38 163 45l21 -23q0 -22 10 -50l44 33q46 35 83 35q91 0 134 -55t43 -157.5
t-65 -171.5t-167 -69q-33 0 -69 22v-176q0 -19 16 -30q23 -10 60 -16l11 -2z" />
    <glyph glyph-name="q" unicode="q" horiz-adv-x="505" 
d="M448 319v-488q0 -13 2.5 -18t12.5 -11l48 -20l-7 -36q-67 10 -108 10t-151 -10l-8 39q55 11 74 19t19 28v210q-61 -58 -107 -58q-94 0 -145 57t-51 158.5t62.5 169.5t167.5 68q27 0 62.5 -8t54 -8t66.5 16l20 -13q-12 -25 -12 -105zM182.5 93.5q26.5 -40.5 66.5 -40.5
t79 30v232q0 30 -23 48t-60.5 18t-63 -40.5t-25.5 -123.5t26.5 -123.5z" />
    <glyph glyph-name="r" unicode="r" horiz-adv-x="408" 
d="M335 437q30 0 78 -24q-5 -27 -18.5 -77t-22.5 -72l-42 -5q0 95 -27 95q-36 0 -86 -69v-208q0 -13 4 -18.5t15 -10.5q19 -9 58 -15l14 -2l-7 -40q-119 9 -151 9t-113 -9l-9 36q37 8 53 18t16 31v250q0 34 -26 34l-46 -6l-5 38q34 15 84.5 29t82.5 16l21 -23q0 -37 9 -69
l28 39q37 53 90 53z" />
    <glyph glyph-name="s" unicode="s" horiz-adv-x="389" 
d="M183 32q24 0 40 15t16 37.5t-6 34t-20 21.5q-20 16 -56.5 34t-57 31t-40 42.5t-19.5 68.5q0 56 44.5 88.5t110.5 32.5t150 -23q-3 -65 -17 -110l-40 -9q-24 96 -91 96q-45 0 -45 -53q0 -21 17.5 -36t51.5 -31.5t49 -25t40 -27.5q46 -36 46 -101t-50 -99t-131.5 -34
t-142.5 27q-2 17 -2 59.5t2 59.5l49 11q8 -49 35 -79t67 -30z" />
    <glyph glyph-name="t" unicode="t" horiz-adv-x="342" 
d="M193 124q0 -38 11 -51t40.5 -13t76.5 30l20 -33q-88 -73 -145 -73t-90 27.5t-33 97.5v262h-50l-8 37l58 18v49l120 55v-110l118 9l-11 -65l-107 4v-244z" />
    <glyph glyph-name="u" unicode="u" horiz-adv-x="550" 
d="M467 321v-226q0 -26 16 -33q13 -9 53 -9l8 -34q-89 -16 -142 -35q-52 32 -52 70q-74 -70 -124 -70q-72 0 -110 35t-38 116v191q0 35 -27 35l-35 -7l-8 40q36 15 95 29t91 14l20 -23q-16 -42 -16 -93v-166q0 -50 15.5 -72.5t51 -22.5t82.5 36v230q0 35 -27 35l-35 -7
l-8 40q36 15 95 29t91 14l20 -23q-16 -42 -16 -93z" />
    <glyph glyph-name="v" unicode="v" horiz-adv-x="464" 
d="M342 347q5 11 5 19.5t-6 12.5q-11 10 -47 14l-2 35q56 -7 94 -7t97 7l-7 -37q-26 -3 -35.5 -11.5t-21.5 -35.5l-151 -353h-73l-152 357q-10 25 -19.5 33t-35.5 11l-7 37q67 -8 108 -8t132 8l-4 -35q-31 -8 -41.5 -12.5t-10.5 -13.5t5 -20l78 -198l6 -26l6 -1l7 29z" />
    <glyph glyph-name="w" unicode="w" horiz-adv-x="730" 
d="M-17 429q67 -8 108 -8t132 8l-4 -35q-31 -8 -43 -13q-8 -4 -8 -13t4 -20l71 -198l6 -26l6 -1l7 29l95 269h74l88 -271l6 -26l6 -1l7 29l68 195q5 11 5 19.5t-6 12.5q-11 10 -47 14l-2 35q56 -7 94 -7t97 7l-7 -37q-26 -3 -35.5 -11.5t-21.5 -35.5l-143 -353h-74l-91 250
l-7 29l-6 1l-6 -30l-94 -250h-72l-145 357q-10 25 -19.5 33t-35.5 11z" />
    <glyph glyph-name="x" unicode="x" horiz-adv-x="520" 
d="M3 429q60 -8 128 -8t122 8l-3 -36q-44 -11 -44 -24q0 -7 11 -20l64 -77l58 76q8 11 8 19t-3 12t-9.5 6t-11.5 3t-12.5 2t-10.5 2l-2 36q30 -7 87 -7t102 7l-4 -36q-21 -1 -35.5 -10.5t-35.5 -34.5l-96 -117l135 -160q35 -40 74 -43l-8 -36q-70 9 -127 9t-120 -9l-8 36
q58 10 58 29q0 8 -12 22l-72 85l-71 -85q-13 -15 -13 -23t4.5 -12t12.5 -6.5t14 -4.5q22 -5 26 -5l-9 -36q-61 9 -96.5 9t-93.5 -9l-8 36q49 5 85 47l115 130l-125 149q-32 39 -69 40z" />
    <glyph glyph-name="y" unicode="y" horiz-adv-x="465" 
d="M70 -244h-17q-24 41 -37 117l23 14q29 -18 51 -18q47 0 72 43l34 79l-153 357q-12 27 -21 34t-34 10l-7 37q80 -8 115 -8t125 8l-4 -35q-2 -1 -10.5 -3t-14 -3.5t-12.5 -3.5q-14 -6 -14 -15q0 -7 4 -21l88 -225l86 229q3 9 3 17q0 18 -53 24l-2 35q49 -7 82 -7t109 7
l-7 -37q-24 -1 -33.5 -8.5t-19.5 -30.5l-210 -491q-45 -105 -143 -105z" />
    <glyph glyph-name="z" unicode="z" horiz-adv-x="419" 
d="M160 421h218l11 -28l-220 -338h134q9 9 27 42t24 50l46 -8q-2 -42 -27 -139h-343l-6 28l221 340h-131q-8 -9 -20.5 -38.5t-17.5 -49.5l-44 7q0 110 6 132l25 16q47 -14 97 -14z" />
    <glyph glyph-name="braceleft" unicode="{" horiz-adv-x="336" 
d="M125 411l-9 153q0 35 28 60q23 21 105 36q27 5 32 6l15 -29q-7 -3 -21.5 -8.5t-24.5 -11t-15 -10.5q-13 -13 -13 -33t7 -75t7 -78q0 -57 -37.5 -102.5t-81.5 -57.5v-9q44 -12 81.5 -59t37.5 -106q0 -26 -7 -84.5t-7 -76t4 -25t9 -12.5t15 -10.5t16 -7.5q23 -9 30 -12
l-15 -29q-5 1 -32 6t-38 7.5t-33.5 10.5t-33.5 18q-28 25 -28 60l9 165q0 55 -22 96.5t-63 41.5v43q41 0 63 40t22 93z" />
    <glyph glyph-name="bar" unicode="|" horiz-adv-x="309" 
d="M112 -170v836h85v-836h-85z" />
    <glyph glyph-name="braceright" unicode="}" horiz-adv-x="336" 
d="M211 97l9 -165q0 -35 -28 -60q-23 -21 -105 -36q-27 -5 -32 -6l-15 29q7 3 21.5 8.5t24.5 11t15 10.5q13 13 13 34t-7 79.5t-7 84.5q0 59 37.5 106t81.5 59v9q-44 12 -81.5 57.5t-37.5 102.5q0 23 7 78t7 71.5t-4 24t-9 12.5t-15 10.5t-16 7.5q-23 9 -30 12l15 29
q5 -1 32 -6t38 -7.5t33.5 -10.5t33.5 -18q28 -25 28 -60l-9 -153q0 -53 22 -93t63 -40v-43q-41 0 -63 -41.5t-22 -96.5z" />
    <glyph glyph-name="asciitilde" unicode="~" horiz-adv-x="503" 
d="M157 237q-37 0 -88 -65l-39 26q15 27 51 72.5t56 62.5l35 6q17 -4 81.5 -40t92.5 -36q38 0 88 65l39 -21q-16 -30 -52 -78.5t-55 -63.5l-35 -6q-17 5 -81.5 41.5t-92.5 36.5z" />
    <glyph glyph-name="nbspace" unicode="&#xa0;" horiz-adv-x="205" 
 />
    <glyph glyph-name="exclamdown" unicode="&#xa1;" horiz-adv-x="271" 
d="M206 -244l-13 -16q-23 0 -70.5 6t-60.5 12q19 226 31 354l10 103l54 13l17 -12l7 -153zM219 363q0 -33 -23 -53.5t-60 -20.5t-60.5 20.5t-23.5 53.5t23.5 53.5t60.5 20.5t60 -20.5t23 -53.5z" />
    <glyph glyph-name="cent" unicode="&#xa2;" horiz-adv-x="462" 
d="M331 355q1 8 1 21q0 55 -11 73q-16 10 -41 14l-10 -309q6 -1 18 -1q56 0 119 36l20 -29q-87 -78 -160 -85l-3 -86l-48 -5l3 93q-81 11 -130 68t-49 146t52.5 153.5t142.5 72.5l3 87l48 6l-4 -94q71 -9 139 -36q-2 -21 -14.5 -68.5t-21.5 -66.5zM164 314q0 -105 58 -144
l11 294q-69 -14 -69 -150z" />
    <glyph glyph-name="sterling" unicode="&#xa3;" horiz-adv-x="525" 
d="M119 335v31q0 101 58 172.5t161 71.5q46 0 120 -18q-8 -63 -35 -146l-49 -3q0 35 -10 95q-20 17 -54.5 17t-50 -40t-15.5 -92v-88h136l-10 -52h-126v-96q0 -35 -13 -62.5t-30 -40.5l-21 -7l3 -6h207q10 10 27 49t21 58l47 -9q-2 -72 -19 -169h-309q-20 0 -119 -9l-8 38
q10 1 29.5 10.5t28.5 19.5q31 35 31 76v148h-69l10 52h59z" />
    <glyph glyph-name="currency" unicode="&#xa4;" horiz-adv-x="586" 
d="M131 180q-38 54 -38 123.5t39 122.5q-45 31 -72 56l3 22q16 22 30 29l22 4q28 -33 54 -71q54 43 123.5 43t123.5 -43q28 40 55 71l22 -4q14 -7 30 -29l3 -22q-27 -25 -72 -56q40 -54 40 -122.5t-39 -123.5q40 -28 71 -55l-3 -22q-16 -22 -30 -29l-22 -4q-26 29 -55 70
q-55 -42 -123.5 -42t-123.5 42q-27 -39 -54 -70l-22 4q-14 7 -30 29l-3 22q31 27 71 55zM177 303q0 -55 33.5 -91.5t83 -36.5t83 36.5t33.5 91.5t-33.5 92t-83 37t-83 -37t-33.5 -92z" />
    <glyph glyph-name="yen" unicode="&#xa5;" horiz-adv-x="592" 
d="M230 259v35l-144 211q-24 34 -40.5 47t-43.5 16l-4 38q60 -10 130.5 -10t150.5 10l-3 -38q-57 -12 -57 -41q0 -11 8 -23l99 -139l96 139q11 15 11 25.5t-7.5 16.5t-17 10t-21 7.5t-13.5 4.5l-3 38q74 -10 112 -10t110 10l-4 -38q-32 -3 -50.5 -16.5t-46.5 -53.5
l-142 -207v-32h124l-10 -52h-114v-49h106l-10 -52h-96v-28q0 -14 2.5 -19.5t11.5 -10.5q20 -11 54 -18l12 -2l-8 -37q-81 9 -132.5 9t-132.5 -9l-7 38q70 12 78 29q2 6 2 20v28h-124l10 52h114v49h-106l10 52h96z" />
    <glyph glyph-name="brokenbar" unicode="&#xa6;" horiz-adv-x="309" 
d="M112 -170v294h85v-294h-85zM112 379v287h85v-287h-85z" />
    <glyph glyph-name="section" unicode="&#xa7;" horiz-adv-x="471" 
d="M53.5 209q-8.5 26 -8.5 58t22 64t55 51q-75 52 -75 127t54.5 116t146.5 41q45 0 142 -27q-1 -22 -7.5 -69.5t-11.5 -64.5l-42 -9q-15 79 -23 94q-24 23 -62.5 23t-55.5 -21t-17 -52t19 -51t49 -38.5t59.5 -36t40.5 -25t32.5 -25.5t30.5 -32q25 -41 25 -81.5t-23.5 -73.5
t-57.5 -53q73 -54 73 -132.5t-59.5 -120.5t-152 -42t-152.5 35v144l48 11q9 -60 38.5 -97.5t72.5 -37.5q76 0 76 80q0 34 -24 56.5t-71.5 51.5t-57.5 35.5t-34 26t-32.5 34.5t-17 41zM293 158q17 26 17 60t-24 57t-90 63l-21 12q-18 -26 -18 -58.5t17 -50.5t45 -36t33 -21
q16 -12 41 -26z" />
    <glyph glyph-name="dieresis" unicode="&#xa8;" horiz-adv-x="384" 
d="M5 587q0 30 20.5 48.5t54.5 18.5t55 -18.5t21 -48.5t-21 -48.5t-54.5 -18.5t-54.5 18.5t-21 48.5zM228 587q0 30 20.5 48.5t54.5 18.5t55 -18.5t21 -48.5t-21 -48.5t-54.5 -18.5t-54.5 18.5t-21 48.5z" />
    <glyph glyph-name="copyright" unicode="&#xa9;" horiz-adv-x="706" 
d="M358 131q-77 0 -126.5 43t-49.5 119.5t49 128.5t130 52q39 0 115 -19q-4 -59 -13 -95l-38 -7q0 39 -9 70q-23 10 -62 10t-61 -35.5t-22 -91t25 -95t61.5 -39.5t54.5 16.5t30 55.5l32 -2q0 -37 -10 -93q-50 -18 -106 -18zM35 297q0 130 93 221.5t225 91.5t225 -91.5
t93 -221.5t-93 -221.5t-225 -91.5t-225 91.5t-93 221.5zM94 297q0 -109 76 -186.5t183 -77.5t183 77.5t76 186.5t-76 186.5t-183 77.5t-183 -77.5t-76 -186.5z" />
    <glyph glyph-name="ordfeminine" unicode="&#xaa;" horiz-adv-x="381" 
d="M288 511v-120q0 -15 7 -21q7 -3 16.5 -3t20.5 2l8 -36q-42 -7 -88 -27q-13 5 -26.5 20t-17.5 30q-50 -50 -84.5 -50t-56.5 21.5t-22 61t29 58t83 24.5l46 7v24q0 72 -38 72q-24 0 -42 -8q-5 -16 -5 -31t1 -23l-38 -8q-5 10 -11.5 37.5t-7.5 38.5q78 35 120 35
q106 0 106 -104zM136 392q0 -29 25 -29q20 0 42 20v65l-31 -7q-36 -10 -36 -49z" />
    <glyph glyph-name="guillemotleft" unicode="&#xab;" horiz-adv-x="512" 
d="M225 24l-187 172v34l187 172l30 -29l-98 -160l98 -160zM434 24l-187 172v34l187 172l30 -29l-98 -160l98 -160z" />
    <glyph glyph-name="logicalnot" unicode="&#xac;" horiz-adv-x="573" 
d="M52 229v85h469v-214h-72v129h-397z" />
    <glyph glyph-name="registered" unicode="&#xae;" horiz-adv-x="497" 
d="M228 471h13q33 0 33 35t-30 35q-10 0 -16 -3v-67zM158 377q22 0 22 12v142q0 7 -5 8l-17 4l1 16h12l73 2q80 0 80 -50q0 -20 -14 -34t-35 -15v-3q13 -3 35 -35.5t32 -37.5q7 -6 20 -6l-5 -19h-50q-9 0 -17 12.5t-12.5 20t-11.5 19t-9 14.5t-4.5 7.5t-4.5 7.5q-6 9 -13 9
h-7v-59q0 -9 7 -11l20 -4l-2 -17q-32 2 -45 2t-49 -2zM32 449q0 91 63 154t154 63t153.5 -63t62.5 -154t-62.5 -153.5t-153.5 -62.5t-154 62.5t-63 153.5zM83 449q0 -74 49 -126t117 -52t116.5 52t48.5 126t-48.5 126t-116.5 52t-117 -52t-49 -126z" />
    <glyph glyph-name="overscore" unicode="&#xaf;" horiz-adv-x="500" 
d="M0 527v69h500v-69h-500z" />
    <glyph glyph-name="degree" unicode="&#xb0;" horiz-adv-x="331" 
d="M36 541q0 52 37.5 88.5t91 36.5t92 -36.5t38.5 -88.5t-38.5 -88.5t-92 -36.5t-91 36.5t-37.5 88.5zM104 541q0 -27 18 -46.5t43 -19.5t43.5 19.5t18.5 46t-18.5 46.5t-43.5 20t-43 -19.5t-18 -46.5z" />
    <glyph glyph-name="plusminus" unicode="&#xb1;" horiz-adv-x="472" 
d="M276 502v-149h142v-76h-142v-151h-80v151h-142v76h142v149h80zM425 11h-378v75h378v-75z" />
    <glyph glyph-name="twosuperior" unicode="&#xb2;" horiz-adv-x="367" 
d="M40 355q156 135 156 208q0 56 -40 56q-28 0 -50 -12q-3 -16 -3 -33.5t2 -35.5l-37 -4q-19 38 -28 101q81 30 131 30t84.5 -24t34.5 -73q0 -28 -12 -53t-25 -39.5t-39.5 -39t-76.5 -63.5l3 -7h116q8 7 23 28.5t19 32.5l27 -5q0 -12 -8 -51.5t-13 -55.5h-259z" />
    <glyph glyph-name="threesuperior" unicode="&#xb3;" horiz-adv-x="347" 
d="M193 574q0 46 -40 46q-36 0 -51 -7q-3 -33 -3 -45.5v-16.5l-33 -5q-16 29 -23 95q93 25 133 25t73.5 -20t33.5 -53.5t-26 -55.5t-59 -28v-7q43 0 75 -21t32 -66.5t-43.5 -77t-99 -31.5t-124.5 18q1 16 9.5 53.5t14.5 52.5l34 -4q-1 -15 -1 -35.5t4 -31.5q21 -7 48 -7
t45.5 15t18.5 39q0 69 -70 69q-7 0 -15 -1l2 35q22 5 43.5 24t21.5 41z" />
    <glyph glyph-name="acute" unicode="&#xb4;" horiz-adv-x="322" 
d="M243 685l13 -27l-153 -164l-47 27q9 22 41 84t41 71q43 9 105 9z" />
    <glyph glyph-name="mu" unicode="&#xb5;" horiz-adv-x="527" 
d="M129 0q2 -187 45 -244l-19 -16q-20 0 -53 5.5t-46 11.5q2 172 16 367v281l12 17q36 11 98 15l20 -23q-10 -25 -10 -93v-166q0 -90 40 -90q32 0 60.5 43.5t28.5 85.5v210l11 18q36 10 100 15l20 -23q-10 -25 -10 -93v-211q0 -43 24 -43q17 0 51 45l26 -22
q-73 -106 -140 -106q-35 0 -57 23t-22 55v30q-52 -108 -124 -108q-43 0 -71 16z" />
    <glyph glyph-name="paragraph" unicode="&#xb6;" horiz-adv-x="535" 
d="M78.5 285q-52.5 47 -52.5 130.5t53.5 139t142.5 55.5h40l23 -19v-334l-23 -19h-40q-91 0 -143.5 47zM437 555v-513q0 -57 -16 -102q-22 -47 -67 -78.5t-102 -31.5h-17q-28 37 -49 122l25 10q31 -24 55.5 -24t43.5 17.5t25 44.5q7 22 7 77v445q0 87 -13 121l20 23
q107 -9 186 -35l-9 -45q-39 6 -59.5 6t-25 -9t-4.5 -28z" />
    <glyph glyph-name="periodcentered" unicode="&#xb7;" horiz-adv-x="285" 
d="M57 277q0 32 23 52.5t60 20.5t60.5 -20.5t23.5 -52.5t-23.5 -52.5t-60.5 -20.5t-60 20.5t-23 52.5z" />
    <glyph glyph-name="cedilla" unicode="&#xb8;" horiz-adv-x="322" 
d="M233.5 -93.5q22.5 -22.5 22.5 -61.5t-30.5 -64.5t-78.5 -25.5t-104 38l19 37q46 -23 78 -23q38 0 38 35q0 23 -17 33t-30 10t-24 -3l-18 26l52 92h60l-22 -71q32 0 54.5 -22.5z" />
    <glyph glyph-name="onesuperior" unicode="&#xb9;" horiz-adv-x="293" 
d="M41 346q67 6 67 38v181q0 16 -6 22.5t-22 6.5h-40l-4 29q69 30 140 43l17 -17v-265q0 -17 11 -23q19 -11 52 -15l-5 -36q-40 5 -102 5t-101 -5z" />
    <glyph glyph-name="ordmasculine" unicode="&#xba;" horiz-adv-x="382" 
d="M38 457q0 69 42 113.5t112.5 44.5t111 -39.5t40.5 -108.5t-42.5 -115.5t-113 -46.5t-110.5 41.5t-40 110.5zM132 471q0 -58 18 -89t50 -31q49 0 49 106q0 54 -18 83t-50 29q-49 0 -49 -98z" />
    <glyph glyph-name="guillemotright" unicode="&#xbb;" horiz-adv-x="512" 
d="M474 196l-187 -172l-30 29l98 160l-98 160l30 29l187 -172v-34zM265 196l-187 -172l-30 29l98 160l-98 160l30 29l187 -172v-34z" />
    <glyph glyph-name="onequarter" unicode="&#xbc;" horiz-adv-x="731" 
d="M179 15l356 672l53 -30l-357 -673zM57 346q67 6 67 38v181q0 16 -6 22.5t-22 6.5h-40l-4 29q69 30 140 43l17 -17v-265q0 -17 11 -23q19 -11 52 -15l-5 -36q-40 5 -102 5t-101 -5zM621 98v-40q0 -14 11 -19l29 -10l-4 -34q-53 5 -81.5 5t-88.5 -5l-4 34q31 5 42 10.5
t11 18.5v40h-127l-24 39l156 214h80v-203h49l-10 -50h-39zM536 148v138l-2 1l-6 -14l-87 -120l3 -5h92z" />
    <glyph glyph-name="onehalf" unicode="&#xbd;" horiz-adv-x="779" 
d="M157 15l356 672l53 -30l-357 -673zM57 346q67 6 67 38v181q0 16 -6 22.5t-22 6.5h-40l-4 29q69 30 140 43l17 -17v-265q0 -17 11 -23q19 -11 52 -15l-5 -36q-40 5 -102 5t-101 -5zM431 40q156 135 156 208q0 56 -40 56q-28 0 -50 -12q-3 -16 -3 -33.5t2 -35.5l-37 -4
q-19 38 -28 101q81 30 131 30t84.5 -24t34.5 -73q0 -28 -12 -53t-25 -39.5t-39.5 -39t-76.5 -63.5l3 -7h116q8 7 23 28.5t19 32.5l27 -5q0 -12 -8 -51.5t-13 -55.5h-259z" />
    <glyph glyph-name="threequarters" unicode="&#xbe;" horiz-adv-x="738" 
d="M185 15l356 672l53 -30l-357 -673zM206 574q0 46 -40 46q-36 0 -51 -7q-3 -33 -3 -45.5v-16.5l-33 -5q-16 29 -23 95q93 25 133 25t73.5 -20t33.5 -53.5t-26 -55.5t-59 -28v-7q43 0 75 -21t32 -66.5t-43.5 -77t-99 -31.5t-124.5 18q1 16 9.5 53.5t14.5 52.5l34 -4
q-1 -15 -1 -35.5t4 -31.5q21 -7 48 -7t45.5 15t18.5 39q0 69 -70 69q-7 0 -15 -1l2 35q22 5 43.5 24t21.5 41zM628 98v-40q0 -14 11 -19l29 -10l-4 -34q-52 5 -81 5t-89 -5l-4 34q31 5 42 10.5t11 18.5v40h-127l-24 39l156 214h80v-203h49l-10 -50h-39zM543 148v138l-2 1
l-6 -14l-87 -120l3 -5h92z" />
    <glyph glyph-name="questiondown" unicode="&#xbf;" horiz-adv-x="432" 
d="M205 -5q-66 -66 -66 -107t20.5 -64t55.5 -23t53.5 27t20.5 93l54 11q26 -93 26 -135q-106 -47 -182.5 -47t-122 37.5t-45.5 111.5q0 29 18.5 58.5t36.5 46.5t50.5 43t45.5 39q42 38 42 68l-5 47l39 33q44 -44 63 -97q-2 -31 -20.5 -54t-25.5 -31t-30.5 -30.5t-27.5 -26.5
zM314 358q0 -33 -23 -53.5t-60 -20.5t-60.5 20.5t-23.5 53.5t23.5 53.5t60.5 20.5t60 -20.5t23 -53.5z" />
    <glyph glyph-name="Agrave" unicode="&#xc0;" horiz-adv-x="650" 
d="M147 75q0 -18 25 -27l56 -18l-6 -39q-64 9 -109.5 9t-114.5 -9l-8 39q45 9 57 21t29 60l196 534q47 9 89 30l218 -564q18 -47 30 -59.5t51 -21.5l-7 -39q-69 9 -134.5 9t-140.5 -9l-6 39q33 10 56.5 19t23.5 26q0 7 -3 14l-51 139h-202l-47 -139q-2 -5 -2 -14zM149 799
l5 29q56 16 104 19q11 -6 58 -58.5t61 -70.5l-38 -38zM285 485l-67 -193h157l-67 186l-11 42l-7 3z" />
    <glyph glyph-name="Aacute" unicode="&#xc1;" horiz-adv-x="650" 
d="M147 75q0 -18 25 -27l56 -18l-6 -39q-64 9 -109.5 9t-114.5 -9l-8 39q45 9 57 21t29 60l196 534q47 9 89 30l218 -564q18 -47 30 -59.5t51 -21.5l-7 -39q-69 9 -134.5 9t-140.5 -9l-6 39q33 10 56.5 19t23.5 26q0 7 -3 14l-51 139h-202l-47 -139q-2 -5 -2 -14zM438 828
l5 -29l-190 -119l-38 38q14 18 61 70.5t58 58.5q48 -3 104 -19zM285 485l-67 -193h157l-67 186l-11 42l-7 3z" />
    <glyph glyph-name="Acircumflex" unicode="&#xc2;" horiz-adv-x="650" 
d="M147 75q0 -18 25 -27l56 -18l-6 -39q-64 9 -109.5 9t-114.5 -9l-8 39q45 9 57 21t29 60l196 534q47 9 89 30l218 -564q18 -47 30 -59.5t51 -21.5l-7 -39q-69 9 -134.5 9t-140.5 -9l-6 39q33 10 56.5 19t23.5 26q0 7 -3 14l-51 139h-202l-47 -139q-2 -5 -2 -14zM250 847
q20 5 53.5 5t52.5 -5q12 -8 50.5 -60.5t47.5 -67.5l-43 -31l-108 89l-108 -89l-44 31q7 13 47 66t52 62zM285 485l-67 -193h157l-67 186l-11 42l-7 3z" />
    <glyph glyph-name="Atilde" unicode="&#xc3;" horiz-adv-x="650" 
d="M147 75q0 -18 25 -27l56 -18l-6 -39q-64 9 -109.5 9t-114.5 -9l-8 39q45 9 57 21t29 60l196 534q47 9 89 30l218 -564q18 -47 30 -59.5t51 -21.5l-7 -39q-69 9 -134.5 9t-140.5 -9l-6 39q33 10 56.5 19t23.5 26q0 7 -3 14l-51 139h-202l-47 -139q-2 -5 -2 -14zM303 708
q-45 21 -70.5 21t-62.5 -46l-31 19q12 22 41.5 64t43.5 55l23 4q12 -2 57 -25t70 -23t60 40l32 -22q-12 -21 -41 -58t-42 -48l-23 -4q-12 2 -57 23zM285 485l-67 -193h157l-67 186l-11 42l-7 3z" />
    <glyph glyph-name="Adieresis" unicode="&#xc4;" horiz-adv-x="650" 
d="M147 75q0 -18 25 -27l56 -18l-6 -39q-64 9 -109.5 9t-114.5 -9l-8 39q45 9 57 21t29 60l196 534q47 9 89 30l218 -564q18 -47 30 -59.5t51 -21.5l-7 -39q-69 9 -134.5 9t-140.5 -9l-6 39q33 10 56.5 19t23.5 26q0 7 -3 14l-51 139h-202l-47 -139q-2 -5 -2 -14zM285 485
l-67 -193h157l-67 186l-11 42l-7 3zM116 755q0 30 20.5 48.5t54.5 18.5t55 -18.5t21 -48.5t-21 -48.5t-54.5 -18.5t-54.5 18.5t-21 48.5zM339 755q0 30 20.5 48.5t54.5 18.5t55 -18.5t21 -48.5t-21 -48.5t-54.5 -18.5t-54.5 18.5t-21 48.5z" />
    <glyph glyph-name="Aring" unicode="&#xc5;" horiz-adv-x="650" 
d="M147 75q0 -18 25 -27l56 -18l-6 -39q-64 9 -109.5 9t-114.5 -9l-8 39q45 9 57 21t29 60l196 534q47 9 89 30l218 -564q18 -47 30 -59.5t51 -21.5l-7 -39q-69 9 -134.5 9t-140.5 -9l-6 39q33 10 56.5 19t23.5 26q0 7 -3 14l-51 139h-202l-47 -139q-2 -5 -2 -14zM209 766
q0 37 30 63.5t71 26.5t71.5 -26.5t30.5 -63.5t-30.5 -63.5t-71.5 -26.5t-71 26.5t-30 63.5zM285 485l-67 -193h157l-67 186l-11 42l-7 3zM269 766q0 -19 12 -32t29 -13t29.5 13t12.5 32t-12.5 32t-29.5 13t-29 -13t-12 -32z" />
    <glyph glyph-name="AE" unicode="&#xc6;" horiz-adv-x="854" 
d="M441 650h251q50 0 87 6v-157l-52 -9q-14 77 -32 98h-170v-220h100q25 0 33 15q6 11 14 45l3 11l43 -6q-8 -53 -8 -98t8 -101l-43 -6q-8 44 -16 60.5t-34 16.5h-100v-242h180q13 11 30.5 50.5t24.5 64.5l50 -8q-1 -30 -7.5 -90t-12.5 -80h-349q-38 0 -110 -9l-7 39
q38 8 55 17.5t17 31.5v226h-148l-99 -216q-8 -17 -8 -27t8 -14q14 -8 45 -16l10 -2l-6 -38q-63 8 -114 8t-99 -8l-7 38q36 8 54 21.5t40 59.5l256 546q55 -7 113 -7zM396 588h-19l-100 -220h119v220z" />
    <glyph glyph-name="Ccedilla" unicode="&#xc7;" horiz-adv-x="680" 
d="M40 299q0 162 101 264.5t270 102.5q54 0 91.5 -6t50.5 -8t48 -9.5t42 -8.5q-10 -112 -27 -176l-54 -10q-14 107 -34 136q-41 26 -135 26t-148 -76t-54 -198.5t61.5 -209t160.5 -86.5q72 0 110.5 36.5t60.5 119.5l54 -5q-1 -67 -21 -174q-85 -29 -192 -32l-17 -56
q32 0 54.5 -22.5t22.5 -61.5t-30.5 -64.5t-78.5 -25.5t-104 38l19 37q46 -23 78 -23q38 0 38 35q0 23 -17 33t-30 10t-24 -3l-18 26l44 78q-144 11 -233 95t-89 218z" />
    <glyph glyph-name="Egrave" unicode="&#xc8;" horiz-adv-x="583" 
d="M508 656l2 -87q0 -35 -3 -70l-46 -8q-14 77 -32 98h-190v-220h115q25 0 33 15q6 11 15 46l2 10l43 -5q-8 -53 -8 -98.5t8 -95.5l-43 -4q-9 39 -16.5 54.5t-33.5 15.5h-115v-245h200q13 11 30.5 51.5t24.5 65.5l46 -8q-1 -29 -8 -89.5t-13 -81.5h-349q-41 0 -127 -9l-8 39
q65 13 73 30q2 5 2 19v494q0 23 -16 30q-19 9 -48 15l-11 3l9 39q96 -10 126 -10h246q48 0 92 6zM140 799l5 29q56 16 104 19q11 -6 58 -58.5t61 -70.5l-38 -38z" />
    <glyph glyph-name="Eacute" unicode="&#xc9;" horiz-adv-x="583" 
d="M508 656l2 -87q0 -35 -3 -70l-46 -8q-14 77 -32 98h-190v-220h115q25 0 33 15q6 11 15 46l2 10l43 -5q-8 -53 -8 -98.5t8 -95.5l-43 -4q-9 39 -16.5 54.5t-33.5 15.5h-115v-245h200q13 11 30.5 51.5t24.5 65.5l46 -8q-1 -29 -8 -89.5t-13 -81.5h-349q-41 0 -127 -9l-8 39
q65 13 73 30q2 5 2 19v494q0 23 -16 30q-19 9 -48 15l-11 3l9 39q96 -10 126 -10h246q48 0 92 6zM429 828l5 -29l-190 -119l-38 38q14 18 61 70.5t58 58.5q48 -3 104 -19z" />
    <glyph glyph-name="Ecircumflex" unicode="&#xca;" horiz-adv-x="583" 
d="M508 656l2 -87q0 -35 -3 -70l-46 -8q-14 77 -32 98h-190v-220h115q25 0 33 15q6 11 15 46l2 10l43 -5q-8 -53 -8 -98.5t8 -95.5l-43 -4q-9 39 -16.5 54.5t-33.5 15.5h-115v-245h200q13 11 30.5 51.5t24.5 65.5l46 -8q-1 -29 -8 -89.5t-13 -81.5h-349q-41 0 -127 -9l-8 39
q65 13 73 30q2 5 2 19v494q0 23 -16 30q-19 9 -48 15l-11 3l9 39q96 -10 126 -10h246q48 0 92 6zM241 847q20 5 53.5 5t52.5 -5q12 -8 50.5 -60.5t47.5 -67.5l-43 -31l-108 89l-108 -89l-44 31q7 13 47 66t52 62z" />
    <glyph glyph-name="Edieresis" unicode="&#xcb;" horiz-adv-x="583" 
d="M508 656l2 -87q0 -35 -3 -70l-46 -8q-14 77 -32 98h-190v-220h115q25 0 33 15q6 11 15 46l2 10l43 -5q-8 -53 -8 -98.5t8 -95.5l-43 -4q-9 39 -16.5 54.5t-33.5 15.5h-115v-245h200q13 11 30.5 51.5t24.5 65.5l46 -8q-1 -29 -8 -89.5t-13 -81.5h-349q-41 0 -127 -9l-8 39
q65 13 73 30q2 5 2 19v494q0 23 -16 30q-19 9 -48 15l-11 3l9 39q96 -10 126 -10h246q48 0 92 6zM107 754q0 30 20.5 48.5t54.5 18.5t55 -18.5t21 -48.5t-21 -48.5t-54.5 -18.5t-54.5 18.5t-21 48.5zM330 754q0 30 20.5 48.5t54.5 18.5t55 -18.5t21 -48.5t-21 -48.5
t-54.5 -18.5t-54.5 18.5t-21 48.5z" />
    <glyph glyph-name="Igrave" unicode="&#xcc;" horiz-adv-x="339" 
d="M234 572v-494q0 -13 2.5 -18.5t11.5 -10.5q17 -9 50 -17l10 -2l-7 -39q-69 9 -130.5 9t-130.5 -9l-7 39q62 13 69 30q3 5 3 18v494q0 13 -2.5 18.5t-12.5 10.5q-16 9 -47 17l-10 2l7 39q69 -9 130.5 -9t130.5 9l7 -39q-64 -12 -72 -30q-2 -5 -2 -18zM17 799l5 29
q56 16 104 19q11 -6 58 -58.5t61 -70.5l-38 -38z" />
    <glyph glyph-name="Iacute" unicode="&#xcd;" horiz-adv-x="339" 
d="M234 572v-494q0 -13 2.5 -18.5t11.5 -10.5q17 -9 50 -17l10 -2l-7 -39q-69 9 -130.5 9t-130.5 -9l-7 39q62 13 69 30q3 5 3 18v494q0 13 -2.5 18.5t-12.5 10.5q-16 9 -47 17l-10 2l7 39q69 -9 130.5 -9t130.5 9l7 -39q-64 -12 -72 -30q-2 -5 -2 -18zM306 828l5 -29
l-190 -119l-38 38q14 18 61 70.5t58 58.5q48 -3 104 -19z" />
    <glyph glyph-name="Icircumflex" unicode="&#xce;" horiz-adv-x="339" 
d="M234 572v-494q0 -13 2.5 -18.5t11.5 -10.5q17 -9 50 -17l10 -2l-7 -39q-69 9 -130.5 9t-130.5 -9l-7 39q62 13 69 30q3 5 3 18v494q0 13 -2.5 18.5t-12.5 10.5q-16 9 -47 17l-10 2l7 39q69 -9 130.5 -9t130.5 9l7 -39q-64 -12 -72 -30q-2 -5 -2 -18zM118 847q20 5 53.5 5
t52.5 -5q12 -8 50.5 -60.5t47.5 -67.5l-43 -31l-108 89l-108 -89l-44 31q7 13 47 66t52 62z" />
    <glyph glyph-name="Idieresis" unicode="&#xcf;" horiz-adv-x="339" 
d="M234 572v-494q0 -13 2.5 -18.5t11.5 -10.5q17 -9 50 -17l10 -2l-7 -39q-69 9 -130.5 9t-130.5 -9l-7 39q62 13 69 30q3 5 3 18v494q0 13 -2.5 18.5t-12.5 10.5q-16 9 -47 17l-10 2l7 39q69 -9 130.5 -9t130.5 9l7 -39q-64 -12 -72 -30q-2 -5 -2 -18zM-16 754
q0 30 20.5 48.5t54.5 18.5t55 -18.5t21 -48.5t-21 -48.5t-54.5 -18.5t-54.5 18.5t-21 48.5zM207 754q0 30 20.5 48.5t54.5 18.5t55 -18.5t21 -48.5t-21 -48.5t-54.5 -18.5t-54.5 18.5t-21 48.5z" />
    <glyph glyph-name="Eth" unicode="&#xd0;" horiz-adv-x="773" 
d="M104 653l240 7q178 0 280 -70q109 -73 109 -237t-96 -262.5t-265 -98.5q-46 0 -109 4t-88 4t-113 -9l-8 39q37 8 54 17.5t17 31.5v234h-79l10 52h69v204q0 12 -2.5 16.5t-12.5 10.5q-17 11 -47 18l-10 3l8 37q17 -1 43 -1zM254 98q0 -52 110.5 -52t169 76t58.5 211.5
t-65 203.5t-202 68q-46 0 -71 -9v-231h153l-10 -52h-143v-215z" />
    <glyph glyph-name="Ntilde" unicode="&#xd1;" horiz-adv-x="764" 
d="M206 87q0 -15 4 -23t18 -12q13 -6 64 -16l16 -3l-8 -42q-69 9 -123 9t-126 -9l-8 39q41 7 62 18q16 7 16 31v494q0 22 -16 30l-59 18l7 39q55 -10 107.5 -10t108.5 10q23 -40 62 -97l208 -300q15 -23 28 -59l4 -12l5 4v374q0 22 -17 30q-11 6 -55 16l-12 3l7 41
q77 -10 119.5 -10t110.5 10l7 -39q-38 -8 -56.5 -17.5t-18.5 -30.5v-380q0 -78 6 -159l2 -27l-108 -21q-37 82 -114 192l-200 286q-17 24 -31 54l-5 11l-5 -4v-438zM392 709q-45 21 -70.5 21t-62.5 -46l-31 19q12 22 41.5 64t43.5 55l23 4q12 -2 57 -25t70 -23t60 40l32 -22
q-12 -21 -41 -58t-42 -48l-23 -4q-12 2 -57 23z" />
    <glyph glyph-name="Ograve" unicode="&#xd2;" horiz-adv-x="755" 
d="M126 71q-94 87 -94 240t93.5 254t251.5 101t252 -87t94 -240t-93.5 -254t-251.5 -101t-252 87zM221.5 534.5q-48.5 -73.5 -48.5 -196t55 -209.5t156 -87t149.5 73.5t48.5 196t-55 209.5t-156 87t-149.5 -73.5zM221 799l5 29q56 16 104 19q11 -6 58 -58.5t61 -70.5
l-38 -38z" />
    <glyph glyph-name="Oacute" unicode="&#xd3;" horiz-adv-x="755" 
d="M126 71q-94 87 -94 240t93.5 254t251.5 101t252 -87t94 -240t-93.5 -254t-251.5 -101t-252 87zM221.5 534.5q-48.5 -73.5 -48.5 -196t55 -209.5t156 -87t149.5 73.5t48.5 196t-55 209.5t-156 87t-149.5 -73.5zM510 828l5 -29l-190 -119l-38 38q14 18 61 70.5t58 58.5
q48 -3 104 -19z" />
    <glyph glyph-name="Ocircumflex" unicode="&#xd4;" horiz-adv-x="755" 
d="M126 71q-94 87 -94 240t93.5 254t251.5 101t252 -87t94 -240t-93.5 -254t-251.5 -101t-252 87zM221.5 534.5q-48.5 -73.5 -48.5 -196t55 -209.5t156 -87t149.5 73.5t48.5 196t-55 209.5t-156 87t-149.5 -73.5zM322 847q20 5 53.5 5t52.5 -5q12 -8 50.5 -60.5t47.5 -67.5
l-43 -31l-108 89l-108 -89l-44 31q7 13 47 66t52 62z" />
    <glyph glyph-name="Otilde" unicode="&#xd5;" horiz-adv-x="755" 
d="M126 71q-94 87 -94 240t93.5 254t251.5 101t252 -87t94 -240t-93.5 -254t-251.5 -101t-252 87zM221.5 534.5q-48.5 -73.5 -48.5 -196t55 -209.5t156 -87t149.5 73.5t48.5 196t-55 209.5t-156 87t-149.5 -73.5zM375 713q-45 21 -70.5 21t-62.5 -46l-31 19q12 22 41.5 64
t43.5 55l23 4q12 -2 57 -25t70 -23t60 40l32 -22q-12 -21 -41 -58t-42 -48l-23 -4q-12 2 -57 23z" />
    <glyph glyph-name="Odieresis" unicode="&#xd6;" horiz-adv-x="755" 
d="M126 71q-94 87 -94 240t93.5 254t251.5 101t252 -87t94 -240t-93.5 -254t-251.5 -101t-252 87zM221.5 534.5q-48.5 -73.5 -48.5 -196t55 -209.5t156 -87t149.5 73.5t48.5 196t-55 209.5t-156 87t-149.5 -73.5zM188 754q0 30 20.5 48.5t54.5 18.5t55 -18.5t21 -48.5
t-21 -48.5t-54.5 -18.5t-54.5 18.5t-21 48.5zM411 754q0 30 20.5 48.5t54.5 18.5t55 -18.5t21 -48.5t-21 -48.5t-54.5 -18.5t-54.5 18.5t-21 48.5z" />
    <glyph glyph-name="multiply" unicode="&#xd7;" horiz-adv-x="472" 
d="M101 404l135 -135l135 135l51 -51l-135 -135l135 -135l-51 -51l-135 135l-135 -135l-51 51l135 135l-135 135z" />
    <glyph glyph-name="Oslash" unicode="&#xd8;" horiz-adv-x="775" 
d="M148 60q-106 87 -106 245.5t93.5 259.5t249.5 101q88 0 164 -30l44 63l38 -41l-33 -48q135 -86 135 -269q0 -155 -93.5 -256t-249.5 -101q-113 0 -197 45l-44 -63l-38 41zM545.5 114.5q46.5 72.5 46.5 200t-55 208.5l-287 -412q56 -69 152.5 -69t143 72.5zM231.5 534.5
q-48.5 -73.5 -48.5 -185.5t36 -187l281 403q-51 43 -124 43q-96 0 -144.5 -73.5z" />
    <glyph glyph-name="Ugrave" unicode="&#xd9;" horiz-adv-x="724" 
d="M628 572v-327q0 -127 -70 -193t-204 -66t-201 59.5t-67 187.5v339q0 13 -2.5 18.5t-11.5 10.5q-17 9 -48 17l-10 2l7 39q69 -9 130.5 -9t130.5 9l7 -39q-64 -12 -71 -30q-3 -5 -3 -18v-323q0 -97 40 -142.5t122 -45.5t124 45t42 123v343q0 13 -2.5 18.5t-11.5 10.5
q-16 9 -47 17l-11 2l7 39q51 -9 104 -9t113 9l7 -39q-64 -12 -72 -30q-2 -5 -2 -18zM218 799l5 29q56 16 104 19q11 -6 58 -58.5t61 -70.5l-38 -38z" />
    <glyph glyph-name="Uacute" unicode="&#xda;" horiz-adv-x="724" 
d="M628 572v-327q0 -127 -70 -193t-204 -66t-201 59.5t-67 187.5v339q0 13 -2.5 18.5t-11.5 10.5q-17 9 -48 17l-10 2l7 39q69 -9 130.5 -9t130.5 9l7 -39q-64 -12 -71 -30q-3 -5 -3 -18v-323q0 -97 40 -142.5t122 -45.5t124 45t42 123v343q0 13 -2.5 18.5t-11.5 10.5
q-16 9 -47 17l-11 2l7 39q51 -9 104 -9t113 9l7 -39q-64 -12 -72 -30q-2 -5 -2 -18zM507 828l5 -29l-190 -119l-38 38q14 18 61 70.5t58 58.5q48 -3 104 -19z" />
    <glyph glyph-name="Ucircumflex" unicode="&#xdb;" horiz-adv-x="724" 
d="M628 572v-327q0 -127 -70 -193t-204 -66t-201 59.5t-67 187.5v339q0 13 -2.5 18.5t-11.5 10.5q-17 9 -48 17l-10 2l7 39q69 -9 130.5 -9t130.5 9l7 -39q-64 -12 -71 -30q-3 -5 -3 -18v-323q0 -97 40 -142.5t122 -45.5t124 45t42 123v343q0 13 -2.5 18.5t-11.5 10.5
q-16 9 -47 17l-11 2l7 39q51 -9 104 -9t113 9l7 -39q-64 -12 -72 -30q-2 -5 -2 -18zM319 847q20 5 53.5 5t52.5 -5q12 -8 50.5 -60.5t47.5 -67.5l-43 -31l-108 89l-108 -89l-44 31q7 13 47 66t52 62z" />
    <glyph glyph-name="Udieresis" unicode="&#xdc;" horiz-adv-x="724" 
d="M628 572v-327q0 -127 -70 -193t-204 -66t-201 59.5t-67 187.5v339q0 13 -2.5 18.5t-11.5 10.5q-17 9 -48 17l-10 2l7 39q69 -9 130.5 -9t130.5 9l7 -39q-64 -12 -71 -30q-3 -5 -3 -18v-323q0 -97 40 -142.5t122 -45.5t124 45t42 123v343q0 13 -2.5 18.5t-11.5 10.5
q-16 9 -47 17l-11 2l7 39q51 -9 104 -9t113 9l7 -39q-64 -12 -72 -30q-2 -5 -2 -18zM185 754q0 30 20.5 48.5t54.5 18.5t55 -18.5t21 -48.5t-21 -48.5t-54.5 -18.5t-54.5 18.5t-21 48.5zM408 754q0 30 20.5 48.5t54.5 18.5t55 -18.5t21 -48.5t-21 -48.5t-54.5 -18.5
t-54.5 18.5t-21 48.5z" />
    <glyph glyph-name="Yacute" unicode="&#xdd;" horiz-adv-x="592" 
d="M-20 660q70 -10 139.5 -10t153.5 10l-3 -38q-29 -6 -46 -15.5t-17 -25t8 -28.5l111 -193l106 194q10 17 10 28.5t-10.5 19t-64.5 20.5l-3 38q82 -10 123 -10t109 10l-4 -38q-31 -3 -50 -17t-37 -53l-157 -276v-198q0 -14 2.5 -19.5t11.5 -10.5q20 -10 58 -18l14 -2
l-9 -36q-75 8 -138.5 8t-132.5 -8l-8 37q73 12 80 29q3 6 3 20v196l-165 285q-17 35 -34 47.5t-46 15.5zM442 828l5 -29l-190 -119l-38 38q14 18 61 70.5t58 58.5q48 -3 104 -19z" />
    <glyph glyph-name="Thorn" unicode="&#xde;" horiz-adv-x="547" 
d="M263 220l33 -4q111 0 111 139.5t-121 139.5q-16 0 -37 -7v-410q0 -13 2.5 -18.5t12.5 -10.5q16 -9 48 -17l11 -2l-7 -39q-69 9 -130.5 9t-130.5 -9l-7 39q62 13 70 30q2 5 2 18v494q0 13 -2.5 18.5t-11.5 10.5q-16 9 -48 17l-10 2l7 39q69 -9 130.5 -9t130.5 9l7 -39
q-64 -13 -71 -30q-3 -5 -3 -18v-29q12 1 38 1q259 0 259 -174q0 -80 -66 -138t-147 -58q-13 0 -34.5 9t-31.5 16z" />
    <glyph glyph-name="germandbls" unicode="&#xdf;" horiz-adv-x="596" 
d="M95 474q0 101 56.5 172.5t154 71.5t152 -54t54.5 -119q0 -43 -20 -77t-44 -51t-44 -35t-20 -31.5t4.5 -23.5t10 -17t18 -16t19.5 -13t25 -14q64 -36 90.5 -68t26.5 -81q0 -66 -48.5 -100t-121 -34t-124.5 27q-2 16 -2 59.5t2 58.5l39 7q7 -46 30 -75t51 -29q57 0 57 60
q0 36 -20.5 56.5t-58 41.5t-54.5 33t-34 40t-17 60t11 53.5t26.5 36t31.5 29.5q38 34 38 95.5t-23.5 92t-80.5 30.5q-34 0 -49.5 -38t-15.5 -91v-464q0 -13 3 -17.5t14 -12.5l32 -15l-8 -30q-75 8 -106.5 8t-114.5 -8l-8 35q36 9 52 19t16 30v291h-56l-5 40l61 15v52z" />
    <glyph glyph-name="agrave" unicode="&#xe0;" horiz-adv-x="459" 
d="M162 74.5q12 -15.5 38 -15.5t60 29v102l-52 -11q-58 -13 -58 -67q0 -22 12 -37.5zM380 291v-199q0 -21 8.5 -28t27.5 -10l25 -2l9 -34q-54 -9 -135 -34q-42 25 -52 64q-64 -64 -105 -64q-58 0 -93 32t-35 88t42 82.5t121 35.5l67 8v47q0 53 -11.5 79t-44.5 26t-59 -13
q-6 -21 -6 -91l-62 -17q-29 90 -30 122q118 54 176 54q81 0 119 -35.5t38 -110.5zM96 658l13 27q62 0 105 -9q9 -9 41 -71t41 -84l-47 -27z" />
    <glyph glyph-name="aacute" unicode="&#xe1;" horiz-adv-x="459" 
d="M162 74.5q12 -15.5 38 -15.5t60 29v102l-52 -11q-58 -13 -58 -67q0 -22 12 -37.5zM380 291v-199q0 -21 8.5 -28t27.5 -10l25 -2l9 -34q-54 -9 -135 -34q-42 25 -52 64q-64 -64 -105 -64q-58 0 -93 32t-35 88t42 82.5t121 35.5l67 8v47q0 53 -11.5 79t-44.5 26t-59 -13
q-6 -21 -6 -91l-62 -17q-29 90 -30 122q118 54 176 54q81 0 119 -35.5t38 -110.5zM330 685l13 -27l-153 -164l-47 27q9 22 41 84t41 71q43 9 105 9z" />
    <glyph glyph-name="acircumflex" unicode="&#xe2;" horiz-adv-x="459" 
d="M162 74.5q12 -15.5 38 -15.5t60 29v102l-52 -11q-58 -13 -58 -67q0 -22 12 -37.5zM380 291v-199q0 -21 8.5 -28t27.5 -10l25 -2l9 -34q-54 -9 -135 -34q-42 25 -52 64q-64 -64 -105 -64q-58 0 -93 32t-35 88t42 82.5t121 35.5l67 8v47q0 53 -11.5 79t-44.5 26t-59 -13
q-6 -21 -6 -91l-62 -17q-29 90 -30 122q118 54 176 54q81 0 119 -35.5t38 -110.5zM169 673q33 5 56 5t50 -5q10 -9 44.5 -71.5t42.5 -80.5l-47 -27l-93 104l-93 -104l-47 27q8 18 42.5 80.5t44.5 71.5z" />
    <glyph glyph-name="atilde" unicode="&#xe3;" horiz-adv-x="459" 
d="M162 74.5q12 -15.5 38 -15.5t60 29v102l-52 -11q-58 -13 -58 -67q0 -22 12 -37.5zM380 291v-199q0 -21 8.5 -28t27.5 -10l25 -2l9 -34q-54 -9 -135 -34q-42 25 -52 64q-64 -64 -105 -64q-58 0 -93 32t-35 88t42 82.5t121 35.5l67 8v47q0 53 -11.5 79t-44.5 26t-59 -13
q-6 -21 -6 -91l-62 -17q-29 90 -30 122q118 54 176 54q81 0 119 -35.5t38 -110.5zM222 536q-45 21 -70.5 21t-62.5 -46l-31 19q12 22 41.5 64t43.5 55l23 4q12 -2 57 -25t70 -23t60 40l32 -22q-12 -21 -41 -58t-42 -48l-23 -4q-12 2 -57 23z" />
    <glyph glyph-name="adieresis" unicode="&#xe4;" horiz-adv-x="459" 
d="M162 74.5q12 -15.5 38 -15.5t60 29v102l-52 -11q-58 -13 -58 -67q0 -22 12 -37.5zM380 291v-199q0 -21 8.5 -28t27.5 -10l25 -2l9 -34q-54 -9 -135 -34q-42 25 -52 64q-64 -64 -105 -64q-58 0 -93 32t-35 88t42 82.5t121 35.5l67 8v47q0 53 -11.5 79t-44.5 26t-59 -13
q-6 -21 -6 -91l-62 -17q-29 90 -30 122q118 54 176 54q81 0 119 -35.5t38 -110.5zM35 587q0 30 20.5 48.5t54.5 18.5t55 -18.5t21 -48.5t-21 -48.5t-54.5 -18.5t-54.5 18.5t-21 48.5zM258 587q0 30 20.5 48.5t54.5 18.5t55 -18.5t21 -48.5t-21 -48.5t-54.5 -18.5t-54.5 18.5
t-21 48.5z" />
    <glyph glyph-name="aring" unicode="&#xe5;" horiz-adv-x="459" 
d="M162 74.5q12 -15.5 38 -15.5t60 29v102l-52 -11q-58 -13 -58 -67q0 -22 12 -37.5zM380 291v-199q0 -21 8.5 -28t27.5 -10l25 -2l9 -34q-54 -9 -135 -34q-42 25 -52 64q-64 -64 -105 -64q-58 0 -93 32t-35 88t42 82.5t121 35.5l67 8v47q0 53 -11.5 79t-44.5 26t-59 -13
q-6 -21 -6 -91l-62 -17q-29 90 -30 122q118 54 176 54q81 0 119 -35.5t38 -110.5zM179 588q0 -19 12 -32t29 -13t29.5 13t12.5 32t-12.5 32t-29.5 13t-29 -13t-12 -32zM119 588q0 37 30 63.5t71 26.5t71.5 -26.5t30.5 -63.5t-30.5 -63.5t-71.5 -26.5t-71 26.5t-30 63.5z" />
    <glyph glyph-name="ae" unicode="&#xe6;" horiz-adv-x="680" 
d="M508 57q63 0 125 43l18 -27q-94 -89 -176 -89q-109 0 -164 79q-89 -79 -150.5 -79t-96 32t-34.5 88t42 82.5t120 35.5l82 10v45q0 50 -15 75t-53 25t-62 -13q-4 -19 -4 -79l-56 -14q-16 53 -23 112q108 54 161 54q94 0 132 -45q51 45 119 45q92 0 138.5 -56t46.5 -151
l-266 -20q8 -153 116 -153zM197 54q41 0 96 42q-19 44 -19 97l-67 -14q-54 -12 -54 -67q0 -24 12.5 -41t31.5 -17zM513 354q-15 32 -49 32t-53 -38.5t-19 -91.5l136 19q0 47 -15 79z" />
    <glyph glyph-name="ccedilla" unicode="&#xe7;" horiz-adv-x="437" 
d="M78.5 57.5q-47.5 58.5 -47.5 151.5t58.5 160.5t157.5 67.5q32 0 84.5 -13.5t80.5 -24.5q-2 -22 -14.5 -73.5t-21.5 -71.5l-54 10q1 9 1 22q0 62 -11 82q-26 17 -73 17q-79 0 -79 -157q0 -82 32 -124t87.5 -42t118.5 36l20 -29q-82 -73 -150 -83l-17 -57q32 0 54.5 -22.5
t22.5 -61.5t-30.5 -64.5t-78.5 -25.5t-104 38l19 37q46 -23 78 -23q38 0 38 35q0 23 -17 33t-30 10t-24 -3l-18 26l44 79q-79 12 -126.5 70.5z" />
    <glyph glyph-name="egrave" unicode="&#xe8;" horiz-adv-x="450" 
d="M275 62q63 0 125 43l21 -32q-96 -89 -179 -89q-98 0 -156.5 60t-58.5 158t59 166.5t153.5 68.5t141.5 -57.5t47 -154.5l-272 -18q8 -145 119 -145zM298 275q0 111 -66 111q-37 0 -56.5 -38.5t-19.5 -92.5zM114 658l13 27q62 0 105 -9q9 -9 41 -71t41 -84l-47 -27z" />
    <glyph glyph-name="eacute" unicode="&#xe9;" horiz-adv-x="450" 
d="M275 62q63 0 125 43l21 -32q-96 -89 -179 -89q-98 0 -156.5 60t-58.5 158t59 166.5t153.5 68.5t141.5 -57.5t47 -154.5l-272 -18q8 -145 119 -145zM298 275q0 111 -66 111q-37 0 -56.5 -38.5t-19.5 -92.5zM348 685l13 -27l-153 -164l-47 27q9 22 41 84t41 71q43 9 105 9z
" />
    <glyph glyph-name="ecircumflex" unicode="&#xea;" horiz-adv-x="450" 
d="M275 62q63 0 125 43l21 -32q-96 -89 -179 -89q-98 0 -156.5 60t-58.5 158t59 166.5t153.5 68.5t141.5 -57.5t47 -154.5l-272 -18q8 -145 119 -145zM298 275q0 111 -66 111q-37 0 -56.5 -38.5t-19.5 -92.5zM187 673q33 5 56 5t50 -5q10 -9 44.5 -71.5t42.5 -80.5l-47 -27
l-93 104l-93 -104l-47 27q8 18 42.5 80.5t44.5 71.5z" />
    <glyph glyph-name="edieresis" unicode="&#xeb;" horiz-adv-x="450" 
d="M275 62q63 0 125 43l21 -32q-96 -89 -179 -89q-98 0 -156.5 60t-58.5 158t59 166.5t153.5 68.5t141.5 -57.5t47 -154.5l-272 -18q8 -145 119 -145zM298 275q0 111 -66 111q-37 0 -56.5 -38.5t-19.5 -92.5zM53 587q0 30 20.5 48.5t54.5 18.5t55 -18.5t21 -48.5t-21 -48.5
t-54.5 -18.5t-54.5 18.5t-21 48.5zM276 587q0 30 20.5 48.5t54.5 18.5t55 -18.5t21 -48.5t-21 -48.5t-54.5 -18.5t-54.5 18.5t-21 48.5z" />
    <glyph glyph-name="igrave" unicode="&#xec;" 
d="M217 321v-245q0 -13 2.5 -18t12.5 -10q18 -11 53 -21l-7 -36q-86 9 -121 9t-120 -9l-8 36q36 8 53 20q15 9 15 29v250q0 35 -27 35l-35 -7l-8 40q36 15 95 29t91 14l20 -23q-16 -42 -16 -93zM18 658l13 27q62 0 105 -9q9 -9 41 -71t41 -84l-47 -27z" />
    <glyph glyph-name="iacute" unicode="&#xed;" 
d="M217 321v-245q0 -13 2.5 -18t12.5 -10q18 -11 53 -21l-7 -36q-86 9 -121 9t-120 -9l-8 36q36 8 53 20q15 9 15 29v250q0 35 -27 35l-35 -7l-8 40q36 15 95 29t91 14l20 -23q-16 -42 -16 -93zM252 685l13 -27l-153 -164l-47 27q9 22 41 84t41 71q43 9 105 9z" />
    <glyph glyph-name="icircumflex" unicode="&#xee;" 
d="M217 321v-245q0 -13 2.5 -18t12.5 -10q18 -11 53 -21l-7 -36q-86 9 -121 9t-120 -9l-8 36q36 8 53 20q15 9 15 29v250q0 35 -27 35l-35 -7l-8 40q36 15 95 29t91 14l20 -23q-16 -42 -16 -93zM91 673q33 5 56 5t50 -5q10 -9 44.5 -71.5t42.5 -80.5l-47 -27l-93 104
l-93 -104l-47 27q8 18 42.5 80.5t44.5 71.5z" />
    <glyph glyph-name="idieresis" unicode="&#xef;" 
d="M217 321v-245q0 -13 2.5 -18t12.5 -10q18 -11 53 -21l-7 -36q-86 9 -121 9t-120 -9l-8 36q36 8 53 20q15 9 15 29v250q0 35 -27 35l-35 -7l-8 40q36 15 95 29t91 14l20 -23q-16 -42 -16 -93zM-43 587q0 30 20.5 48.5t54.5 18.5t55 -18.5t21 -48.5t-21 -48.5t-54.5 -18.5
t-54.5 18.5t-21 48.5zM180 587q0 30 20.5 48.5t54.5 18.5t55 -18.5t21 -48.5t-21 -48.5t-54.5 -18.5t-54.5 18.5t-21 48.5z" />
    <glyph glyph-name="eth" unicode="&#xf0;" horiz-adv-x="460" 
d="M436 290q0 -220 -112 -281q-46 -25 -112 -25q-108 0 -166 58t-58 158.5t61.5 166t161.5 65.5q20 0 44 -9t33 -19q-18 96 -60 159l-101 -58l-16 47l86 50q-59 62 -144 78l5 38q112 -5 209 -76l114 66l16 -47l-91 -53q130 -123 130 -318zM117 219q0 -89 28.5 -136.5
t79.5 -47.5q76 0 76 162q0 82 -7 118q-30 61 -97 61q-80 0 -80 -157z" />
    <glyph glyph-name="ntilde" unicode="&#xf1;" horiz-adv-x="573" 
d="M217 74q0 -30 57 -48l-7 -35q-103 9 -116 9t-112 -9l-10 36q36 8 52 18t16 31v250q0 34 -26 34l-46 -6l-5 38q33 15 83 28.5t82 16.5l21 -23q0 -20 10 -48l33 27q53 44 97 44q73 0 110.5 -35.5t37.5 -115.5v-210q0 -13 2.5 -18t11.5 -10q19 -11 54 -21l-8 -36
q-99 9 -112.5 9t-116.5 -9l-7 35q25 8 41 19q15 11 15 29v192q0 50 -15.5 72.5t-51 22.5t-90.5 -39v-248zM293 536q-45 21 -70.5 21t-62.5 -46l-31 19q12 22 41.5 64t43.5 55l23 4q12 -2 57 -25t70 -23t60 40l32 -22q-12 -21 -41 -58t-42 -48l-23 -4q-12 2 -57 23z" />
    <glyph glyph-name="ograve" unicode="&#xf2;" horiz-adv-x="510" 
d="M89.5 42q-58.5 58 -58.5 158.5t61.5 166t165 65.5t162.5 -58.5t59 -158t-62.5 -165.5t-165.5 -66t-161.5 58zM160 219q0 -89 28.5 -136.5t79.5 -47.5q82 0 82 162q0 89 -29 136.5t-81 47.5q-80 0 -80 -162zM137 657l13 27q62 0 105 -9q9 -9 41 -71t41 -84l-47 -27z" />
    <glyph glyph-name="oacute" unicode="&#xf3;" horiz-adv-x="510" 
d="M89.5 42q-58.5 58 -58.5 158.5t61.5 166t165 65.5t162.5 -58.5t59 -158t-62.5 -165.5t-165.5 -66t-161.5 58zM160 219q0 -89 28.5 -136.5t79.5 -47.5q82 0 82 162q0 89 -29 136.5t-81 47.5q-80 0 -80 -162zM371 684l13 -27l-153 -164l-47 27q9 22 41 84t41 71q43 9 105 9
z" />
    <glyph glyph-name="ocircumflex" unicode="&#xf4;" horiz-adv-x="510" 
d="M89.5 42q-58.5 58 -58.5 158.5t61.5 166t165 65.5t162.5 -58.5t59 -158t-62.5 -165.5t-165.5 -66t-161.5 58zM160 219q0 -89 28.5 -136.5t79.5 -47.5q82 0 82 162q0 89 -29 136.5t-81 47.5q-80 0 -80 -162zM210 672q33 5 56 5t50 -5q10 -9 44.5 -71.5t42.5 -80.5l-47 -27
l-93 104l-93 -104l-47 27q8 18 42.5 80.5t44.5 71.5z" />
    <glyph glyph-name="otilde" unicode="&#xf5;" horiz-adv-x="510" 
d="M89.5 42q-58.5 58 -58.5 158.5t61.5 166t165 65.5t162.5 -58.5t59 -158t-62.5 -165.5t-165.5 -66t-161.5 58zM160 219q0 -89 28.5 -136.5t79.5 -47.5q82 0 82 162q0 89 -29 136.5t-81 47.5q-80 0 -80 -162zM263 535q-45 21 -70.5 21t-62.5 -46l-31 19q12 22 41.5 64
t43.5 55l23 4q12 -2 57 -25t70 -23t60 40l32 -22q-12 -21 -41 -58t-42 -48l-23 -4q-12 2 -57 23z" />
    <glyph glyph-name="odieresis" unicode="&#xf6;" horiz-adv-x="510" 
d="M89.5 42q-58.5 58 -58.5 158.5t61.5 166t165 65.5t162.5 -58.5t59 -158t-62.5 -165.5t-165.5 -66t-161.5 58zM160 219q0 -89 28.5 -136.5t79.5 -47.5q82 0 82 162q0 89 -29 136.5t-81 47.5q-80 0 -80 -162zM76 586q0 30 20.5 48.5t54.5 18.5t55 -18.5t21 -48.5t-21 -48.5
t-54.5 -18.5t-54.5 18.5t-21 48.5zM299 586q0 30 20.5 48.5t54.5 18.5t55 -18.5t21 -48.5t-21 -48.5t-54.5 -18.5t-54.5 18.5t-21 48.5z" />
    <glyph glyph-name="divide" unicode="&#xf7;" horiz-adv-x="464" 
d="M162 371q0 27 19 44t50 17t50.5 -17t19.5 -44.5t-19.5 -44t-50 -16.5t-50 17t-19.5 44zM181.5 33q-19.5 17 -19.5 44.5t19 44t50 16.5t50.5 -16.5t19.5 -44t-19.5 -44.5t-50 -17t-50 17zM421 186h-378v76h378v-76z" />
    <glyph glyph-name="oslash" unicode="&#xf8;" horiz-adv-x="522" 
d="M97 38q-62 57 -62 161t61.5 171t161.5 67q57 0 103 -20l42 60l37 -39l-33 -48q80 -61 80 -166.5t-66.5 -172.5t-161.5 -67q-68 0 -118 25l-39 -56l-37 39zM340.5 73q17.5 37 17.5 112t-11 119l-155 -222q28 -46 79.5 -46t69 37zM164 219q0 -42 6 -75l149 214
q-26 28 -71.5 28t-64.5 -38.5t-19 -128.5z" />
    <glyph glyph-name="ugrave" unicode="&#xf9;" horiz-adv-x="550" 
d="M467 321v-226q0 -26 16 -33q13 -9 53 -9l8 -34q-89 -16 -142 -35q-52 32 -52 70q-74 -70 -124 -70q-72 0 -110 35t-38 116v191q0 35 -27 35l-35 -7l-8 40q36 15 95 29t91 14l20 -23q-16 -42 -16 -93v-166q0 -50 15.5 -72.5t51 -22.5t82.5 36v230q0 35 -27 35l-35 -7
l-8 40q36 15 95 29t91 14l20 -23q-16 -42 -16 -93zM144 658l13 27q62 0 105 -9q9 -9 41 -71t41 -84l-47 -27z" />
    <glyph glyph-name="uacute" unicode="&#xfa;" horiz-adv-x="550" 
d="M467 321v-226q0 -26 16 -33q13 -9 53 -9l8 -34q-89 -16 -142 -35q-52 32 -52 70q-74 -70 -124 -70q-72 0 -110 35t-38 116v191q0 35 -27 35l-35 -7l-8 40q36 15 95 29t91 14l20 -23q-16 -42 -16 -93v-166q0 -50 15.5 -72.5t51 -22.5t82.5 36v230q0 35 -27 35l-35 -7
l-8 40q36 15 95 29t91 14l20 -23q-16 -42 -16 -93zM378 685l13 -27l-153 -164l-47 27q9 22 41 84t41 71q43 9 105 9z" />
    <glyph glyph-name="ucircumflex" unicode="&#xfb;" horiz-adv-x="550" 
d="M467 321v-226q0 -26 16 -33q13 -9 53 -9l8 -34q-89 -16 -142 -35q-52 32 -52 70q-74 -70 -124 -70q-72 0 -110 35t-38 116v191q0 35 -27 35l-35 -7l-8 40q36 15 95 29t91 14l20 -23q-16 -42 -16 -93v-166q0 -50 15.5 -72.5t51 -22.5t82.5 36v230q0 35 -27 35l-35 -7
l-8 40q36 15 95 29t91 14l20 -23q-16 -42 -16 -93zM217 673q33 5 56 5t50 -5q10 -9 44.5 -71.5t42.5 -80.5l-47 -27l-93 104l-93 -104l-47 27q8 18 42.5 80.5t44.5 71.5z" />
    <glyph glyph-name="udieresis" unicode="&#xfc;" horiz-adv-x="550" 
d="M467 321v-226q0 -26 16 -33q13 -9 53 -9l8 -34q-89 -16 -142 -35q-52 32 -52 70q-74 -70 -124 -70q-72 0 -110 35t-38 116v191q0 35 -27 35l-35 -7l-8 40q36 15 95 29t91 14l20 -23q-16 -42 -16 -93v-166q0 -50 15.5 -72.5t51 -22.5t82.5 36v230q0 35 -27 35l-35 -7
l-8 40q36 15 95 29t91 14l20 -23q-16 -42 -16 -93zM83 587q0 30 20.5 48.5t54.5 18.5t55 -18.5t21 -48.5t-21 -48.5t-54.5 -18.5t-54.5 18.5t-21 48.5zM306 587q0 30 20.5 48.5t54.5 18.5t55 -18.5t21 -48.5t-21 -48.5t-54.5 -18.5t-54.5 18.5t-21 48.5z" />
    <glyph glyph-name="yacute" unicode="&#xfd;" horiz-adv-x="465" 
d="M70 -244h-17q-24 41 -37 117l23 14q29 -18 51 -18q47 0 72 43l34 79l-153 357q-12 27 -21 34t-34 10l-7 37q80 -8 115 -8t125 8l-4 -35q-2 -1 -10.5 -3t-14 -3.5t-12.5 -3.5q-14 -6 -14 -15q0 -7 4 -21l88 -225l86 229q3 9 3 17q0 18 -53 24l-2 35q49 -7 82 -7t109 7
l-7 -37q-24 -1 -33.5 -8.5t-19.5 -30.5l-210 -491q-45 -105 -143 -105zM349 685l13 -27l-153 -164l-47 27q9 22 41 84t41 71q43 9 105 9z" />
    <glyph glyph-name="thorn" unicode="&#xfe;" horiz-adv-x="515" 
d="M262 -253q-93 9 -126 9t-132 -9l-10 36q36 8 52 18t16 31v780q0 18 -5 25.5t-20 7.5l-37 -5l-6 38q34 13 90.5 25.5t90.5 14.5l20 -23q-13 -25 -13 -93v-219q65 54 120 54q90 0 136 -56t46 -157t-64.5 -170.5t-164.5 -69.5q-31 0 -73 7v-161q0 -19 16 -30q23 -10 60 -16
l11 -2zM261 363q-39 0 -69 -19l-10 -7v-230q0 -30 21.5 -48.5t59 -18.5t65 42t27.5 124q0 157 -94 157z" />
    <glyph glyph-name="ydieresis" unicode="&#xff;" horiz-adv-x="466" 
d="M70 -244h-17q-24 41 -37 117l23 14q29 -18 51 -18q47 0 72 43l34 79l-153 357q-12 27 -21 34t-34 10l-7 37q80 -8 115 -8t125 8l-4 -35q-2 -1 -10.5 -3t-14 -3.5t-12.5 -3.5q-14 -6 -14 -15q0 -7 4 -21l88 -225l86 229q3 9 3 17q0 18 -53 24l-2 35q49 -7 82 -7t109 7
l-7 -37q-24 -1 -33.5 -8.5t-19.5 -30.5l-210 -491q-45 -105 -143 -105zM54 587q0 30 20.5 48.5t54.5 18.5t55 -18.5t21 -48.5t-21 -48.5t-54.5 -18.5t-54.5 18.5t-21 48.5zM277 587q0 30 20.5 48.5t54.5 18.5t55 -18.5t21 -48.5t-21 -48.5t-54.5 -18.5t-54.5 18.5t-21 48.5z
" />
    <glyph glyph-name="Amacron" unicode="&#x100;" horiz-adv-x="652" 
d="M148 75q0 -18 25 -27l56 -18l-6 -39q-65 9 -110 9t-114 -9l-8 39q45 9 57 21t29 60l196 534q47 9 89 30l218 -564q18 -47 30 -59.5t51 -21.5l-7 -39q-69 9 -134.5 9t-140.5 -9l-6 39q33 10 56.5 19t23.5 26q0 7 -3 14l-51 139h-202l-47 -139q-2 -5 -2 -14zM166 705l14 76
h263l-14 -76h-263zM286 485l-67 -193h157l-67 186l-11 42l-7 3z" />
    <glyph glyph-name="amacron" unicode="&#x101;" horiz-adv-x="459" 
d="M162 74.5q12 -15.5 38 -15.5t60 29v102l-52 -11q-58 -13 -58 -67q0 -22 12 -37.5zM380 291v-199q0 -21 8.5 -28t27.5 -10l25 -2l9 -34q-54 -9 -135 -34q-42 25 -52 64q-64 -64 -105 -64q-58 0 -93 32t-35 88t42 82.5t121 35.5l67 8v47q0 53 -11.5 79t-44.5 26t-59 -13
q-6 -21 -6 -91l-62 -17q-29 90 -30 122q118 54 176 54q81 0 119 -35.5t38 -110.5zM79 548l14 76h273l-14 -76h-273z" />
    <glyph glyph-name="Abreve" unicode="&#x102;" horiz-adv-x="652" 
d="M148 75q0 -18 25 -27l56 -18l-6 -39q-65 9 -110 9t-114 -9l-8 39q45 9 57 21t29 60l196 534q47 9 89 30l218 -564q18 -47 30 -59.5t51 -21.5l-7 -39q-69 9 -134.5 9t-140.5 -9l-6 39q33 10 56.5 19t23.5 26q0 7 -3 14l-51 139h-202l-47 -139q-2 -5 -2 -14zM405 732.5
q-37 -40.5 -97.5 -40.5t-95 39.5t-34.5 103.5l34 10q15 -66 98 -66t98 66l34 -10q0 -62 -37 -102.5zM286 485l-67 -193h157l-67 186l-11 42l-7 3z" />
    <glyph glyph-name="abreve" unicode="&#x103;" horiz-adv-x="459" 
d="M162 74.5q12 -15.5 38 -15.5t60 29v102l-52 -11q-58 -13 -58 -67q0 -22 12 -37.5zM380 291v-199q0 -21 8.5 -28t27.5 -10l25 -2l9 -34q-54 -9 -135 -34q-42 25 -52 64q-64 -64 -105 -64q-58 0 -93 32t-35 88t42 82.5t121 35.5l67 8v47q0 53 -11.5 79t-44.5 26t-59 -13
q-6 -21 -6 -91l-62 -17q-29 90 -30 122q118 54 176 54q81 0 119 -35.5t38 -110.5zM323 546.5q-37 -40.5 -97.5 -40.5t-95 39.5t-34.5 103.5l34 10q15 -66 98 -66t98 66l34 -10q0 -62 -37 -102.5z" />
    <glyph glyph-name="Aogonek" unicode="&#x104;" horiz-adv-x="652" 
d="M507 -143q0 -19 10 -33t34 -14t55 19l20 -33q-58 -41 -106.5 -41t-75.5 25t-27 69q0 22 8 40t31 39q28 28 88 72h-11q-79 0 -154 -9l-6 39q33 10 56.5 19t23.5 26q0 7 -3 14l-51 139h-202l-47 -139q-2 -5 -2 -14q0 -18 25 -27l56 -18l-6 -39q-65 9 -110 9t-114 -9l-8 39
q45 9 57 21t29 60l196 534q47 9 89 30l218 -564q18 -47 30 -59.5t51 -21.5l-7 -39q-51 6 -71 7q-76 -78 -76 -141zM286 485l-67 -193h157l-67 186l-11 42l-7 3z" />
    <glyph glyph-name="aogonek" unicode="&#x105;" horiz-adv-x="459" 
d="M256 -143q0 -19 10 -33t34 -14t55 19l20 -33q-58 -41 -106.5 -41t-75.5 25t-27 69q0 22 8 40t30 39q29 28 89 72q-23 20 -30 48q-64 -64 -105 -64q-58 0 -93 32t-35 88t42 82.5t121 35.5l67 8v47q0 53 -11.5 79t-44.5 26t-59 -13q-6 -21 -6 -91l-62 -17q-29 90 -30 122
q118 54 176 54q81 0 119 -35.5t38 -110.5v-199q0 -21 8.5 -28t27.5 -10l25 -2l9 -34q-55 -9 -130 -32q-64 -72 -64 -129zM162 74.5q12 -15.5 38 -15.5t60 29v102l-52 -11q-58 -13 -58 -67q0 -22 12 -37.5z" />
    <glyph glyph-name="Cacute" unicode="&#x106;" horiz-adv-x="680" 
d="M403 -16q-160 0 -261.5 85.5t-101.5 229.5q0 162 101 264.5t270 102.5q54 0 91.5 -6t50.5 -8t48 -9.5t42 -8.5q-10 -112 -27 -176l-54 -10q-14 107 -34 136q-41 26 -135 26t-148 -76t-54 -198.5t61.5 -209t160.5 -86.5q72 0 110.5 36.5t60.5 119.5l54 -5q-1 -67 -21 -174
q-99 -33 -214 -33zM546 828l5 -29l-190 -119l-38 38q14 18 61 70.5t58 58.5q48 -3 104 -19z" />
    <glyph glyph-name="cacute" unicode="&#x107;" horiz-adv-x="437" 
d="M322 264q1 9 1 22q0 62 -11 82q-26 17 -73 17q-79 0 -79 -157q0 -82 32 -124t87.5 -42t118.5 36l20 -29q-94 -85 -172 -85q-96 0 -155.5 60.5t-59.5 159t58.5 166t157.5 67.5q32 0 84.5 -13.5t80.5 -24.5q-2 -22 -14.5 -73.5t-21.5 -71.5zM355 685l13 -27l-153 -164
l-47 27q9 22 41 84t41 71q43 9 105 9z" />
    <glyph glyph-name="Ccircumflex" unicode="&#x108;" horiz-adv-x="680" 
d="M403 -16q-160 0 -261.5 85.5t-101.5 229.5q0 162 101 264.5t270 102.5q54 0 91.5 -6t50.5 -8t48 -9.5t42 -8.5q-10 -112 -27 -176l-54 -10q-14 107 -34 136q-41 26 -135 26t-148 -76t-54 -198.5t61.5 -209t160.5 -86.5q72 0 110.5 36.5t60.5 119.5l54 -5q-1 -67 -21 -174
q-99 -33 -214 -33zM358 847q20 5 53.5 5t52.5 -5q12 -8 50.5 -60.5t47.5 -67.5l-43 -31l-108 89l-108 -89l-44 31q7 13 47 66t52 62z" />
    <glyph glyph-name="ccircumflex" unicode="&#x109;" horiz-adv-x="437" 
d="M322 264q1 9 1 22q0 62 -11 82q-26 17 -73 17q-79 0 -79 -157q0 -82 32 -124t87.5 -42t118.5 36l20 -29q-94 -85 -172 -85q-96 0 -155.5 60.5t-59.5 159t58.5 166t157.5 67.5q32 0 84.5 -13.5t80.5 -24.5q-2 -22 -14.5 -73.5t-21.5 -71.5zM194 673q33 5 56 5t50 -5
q10 -9 44.5 -71.5t42.5 -80.5l-47 -27l-93 104l-93 -104l-47 27q8 18 42.5 80.5t44.5 71.5z" />
    <glyph glyph-name="Cdot" unicode="&#x10a;" horiz-adv-x="680" 
d="M403 -16q-160 0 -261.5 85.5t-101.5 229.5q0 162 101 264.5t270 102.5q54 0 91.5 -6t50.5 -8t48 -9.5t42 -8.5q-10 -112 -27 -176l-54 -10q-14 107 -34 136q-41 26 -135 26t-148 -76t-54 -198.5t61.5 -209t160.5 -86.5q72 0 110.5 36.5t60.5 119.5l54 -5q-1 -67 -21 -174
q-99 -33 -214 -33zM328 765q0 32 23 52.5t60 20.5t60.5 -20.5t23.5 -52.5t-23.5 -52.5t-60.5 -20.5t-60 20.5t-23 52.5z" />
    <glyph glyph-name="cdot" unicode="&#x10b;" horiz-adv-x="437" 
d="M322 264q1 9 1 22q0 62 -11 82q-26 17 -73 17q-79 0 -79 -157q0 -82 32 -124t87.5 -42t118.5 36l20 -29q-94 -85 -172 -85q-96 0 -155.5 60.5t-59.5 159t58.5 166t157.5 67.5q32 0 84.5 -13.5t80.5 -24.5q-2 -22 -14.5 -73.5t-21.5 -71.5zM164 591q0 32 23 52.5t60 20.5
t60.5 -20.5t23.5 -52.5t-23.5 -52.5t-60.5 -20.5t-60 20.5t-23 52.5z" />
    <glyph glyph-name="Ccaron" unicode="&#x10c;" horiz-adv-x="680" 
d="M403 -16q-160 0 -261.5 85.5t-101.5 229.5q0 162 101 264.5t270 102.5q54 0 91.5 -6t50.5 -8t48 -9.5t42 -8.5q-10 -112 -27 -176l-54 -10q-14 107 -34 136q-41 26 -135 26t-148 -76t-54 -198.5t61.5 -209t160.5 -86.5q72 0 110.5 36.5t60.5 119.5l54 -5q-1 -67 -21 -174
q-99 -33 -214 -33zM463 697q-20 -5 -53.5 -5t-52.5 5q-12 8 -50.5 60.5t-47.5 67.5l43 31l108 -89l108 89l44 -31q-7 -13 -47 -66t-52 -62z" />
    <glyph glyph-name="ccaron" unicode="&#x10d;" horiz-adv-x="437" 
d="M322 264q1 9 1 22q0 62 -11 82q-26 17 -73 17q-79 0 -79 -157q0 -82 32 -124t87.5 -42t118.5 36l20 -29q-94 -85 -172 -85q-96 0 -155.5 60.5t-59.5 159t58.5 166t157.5 67.5q32 0 84.5 -13.5t80.5 -24.5q-2 -22 -14.5 -73.5t-21.5 -71.5zM300 505q-27 -5 -56.5 -5
t-49.5 5q-10 9 -44.5 71.5t-42.5 80.5l47 27l93 -104l93 104l47 -27q-8 -18 -42.5 -80.5t-44.5 -71.5z" />
    <glyph glyph-name="Dcaron" unicode="&#x10e;" horiz-adv-x="768" 
d="M249 98q0 -52 110.5 -52t169 76t58.5 211.5t-65 203.5t-202 68q-46 0 -71 -9v-498zM99 653l240 7q178 0 281 -70q108 -73 108 -237t-96 -262.5t-265 -98.5q-46 0 -109 4t-88 4t-113 -9l-8 39q37 8 54 17.5t17 31.5v490q0 12 -2.5 16.5t-11.5 10.5q-18 11 -48 18l-10 3
l8 37q17 -1 43 -1zM362 697q-20 -5 -53.5 -5t-52.5 5q-12 8 -50.5 60.5t-47.5 67.5l43 31l108 -89l108 89l44 -31q-7 -13 -47 -66t-52 -62z" />
    <glyph glyph-name="dcaron" unicode="&#x10f;" horiz-adv-x="624" 
d="M461 95q0 -26 16 -33q13 -9 53 -9l7 -35q-82 -12 -142 -34q-40 26 -51 65q-58 -65 -112 -65q-92 0 -141.5 57.5t-49.5 159.5t62.5 169t168.5 67q40 0 69 -18v188q0 37 -17.5 37t-56.5 -9l-7 40q33 14 94.5 27.5t98.5 15.5l20 -23q-12 -25 -12 -93v-507zM196.5 98.5
q26.5 -40.5 67.5 -40.5t77 29v246q-14 20 -36 34t-42 14q-41 0 -67 -40.5t-26 -121t26.5 -121zM626.5 696.5q31.5 -21.5 31.5 -53t-41.5 -80t-82.5 -77.5l-29 24q18 19 35 47t17 47.5t-51 24.5l-9 19q11 17 30.5 39.5t33.5 32.5q34 -2 65.5 -23.5z" />
    <glyph glyph-name="Dcroat" unicode="&#x110;" horiz-adv-x="773" 
d="M104 653l240 7q178 0 280 -70q109 -73 109 -237t-96 -262.5t-265 -98.5q-46 0 -109 4t-88 4t-113 -9l-8 39q37 8 54 17.5t17 31.5v234h-79l10 52h69v204q0 12 -2.5 16.5t-12.5 10.5q-17 11 -47 18l-10 3l8 37q17 -1 43 -1zM254 98q0 -52 110.5 -52t169 76t58.5 211.5
t-65 203.5t-202 68q-46 0 -71 -9v-231h153l-10 -52h-143v-215z" />
    <glyph glyph-name="dslash" unicode="&#x111;" horiz-adv-x="542" 
d="M341 588v19q0 37 -17.5 37t-56.5 -9l-7 40q33 14 94.5 27.5t98.5 15.5l20 -23q-12 -25 -12 -93v-14h71l-10 -52h-61v-441q0 -26 16 -33q13 -9 53 -9l7 -35q-82 -12 -142 -34q-40 26 -51 65q-58 -65 -112 -65q-92 0 -141.5 57.5t-49.5 159.5t62.5 169t168.5 67
q40 0 69 -18v117h-144l10 52h134zM196.5 98.5q26.5 -40.5 67.5 -40.5t77 29v246q-14 20 -36 34t-42 14q-41 0 -67 -40.5t-26 -121t26.5 -121z" />
    <glyph glyph-name="Emacron" unicode="&#x112;" horiz-adv-x="594" 
d="M518 656l2 -87q0 -35 -3 -70l-46 -8q-14 77 -32 98h-190v-220h115q25 0 33 15q6 11 15 46l2 10l43 -5q-8 -53 -8 -98.5t8 -95.5l-43 -4q-9 39 -16.5 54.5t-33.5 15.5h-115v-245h200q13 11 30.5 51.5t24.5 65.5l46 -8q-1 -29 -8 -89.5t-13 -81.5h-349q-41 0 -127 -9l-8 39
q65 13 73 30q2 5 2 19v494q0 23 -16 30q-19 9 -48 15l-11 3l9 39q96 -10 126 -10h246q48 0 92 6zM166 705l14 76h263l-14 -76h-263z" />
    <glyph glyph-name="emacron" unicode="&#x113;" horiz-adv-x="450" 
d="M275 62q63 0 125 43l21 -32q-96 -89 -179 -89q-98 0 -156.5 60t-58.5 158t59 166.5t153.5 68.5t141.5 -57.5t47 -154.5l-272 -18q8 -145 119 -145zM298 275q0 111 -66 111q-37 0 -56.5 -38.5t-19.5 -92.5zM97 548l14 76h273l-14 -76h-273z" />
    <glyph glyph-name="Ebreve" unicode="&#x114;" horiz-adv-x="594" 
d="M518 656l2 -87q0 -35 -3 -70l-46 -8q-14 77 -32 98h-190v-220h115q25 0 33 15q6 11 15 46l2 10l43 -5q-8 -53 -8 -98.5t8 -95.5l-43 -4q-9 39 -16.5 54.5t-33.5 15.5h-115v-245h200q13 11 30.5 51.5t24.5 65.5l46 -8q-1 -29 -8 -89.5t-13 -81.5h-349q-41 0 -127 -9l-8 39
q65 13 73 30q2 5 2 19v494q0 23 -16 30q-19 9 -48 15l-11 3l9 39q96 -10 126 -10h246q48 0 92 6zM405 732.5q-37 -40.5 -97.5 -40.5t-95 39.5t-34.5 103.5l34 10q15 -66 98 -66t98 66l34 -10q0 -62 -37 -102.5z" />
    <glyph glyph-name="ebreve" unicode="&#x115;" horiz-adv-x="450" 
d="M275 62q63 0 125 43l21 -32q-96 -89 -179 -89q-98 0 -156.5 60t-58.5 158t59 166.5t153.5 68.5t141.5 -57.5t47 -154.5l-272 -18q8 -145 119 -145zM298 275q0 111 -66 111q-37 0 -56.5 -38.5t-19.5 -92.5zM341 546.5q-37 -40.5 -97.5 -40.5t-95 39.5t-34.5 103.5l34 10
q15 -66 98 -66t98 66l34 -10q0 -62 -37 -102.5z" />
    <glyph glyph-name="Edot" unicode="&#x116;" horiz-adv-x="594" 
d="M518 656l2 -87q0 -35 -3 -70l-46 -8q-14 77 -32 98h-190v-220h115q25 0 33 15q6 11 15 46l2 10l43 -5q-8 -53 -8 -98.5t8 -95.5l-43 -4q-9 39 -16.5 54.5t-33.5 15.5h-115v-245h200q13 11 30.5 51.5t24.5 65.5l46 -8q-1 -29 -8 -89.5t-13 -81.5h-349q-41 0 -127 -9l-8 39
q65 13 73 30q2 5 2 19v494q0 23 -16 30q-19 9 -48 15l-11 3l9 39q96 -10 126 -10h246q48 0 92 6zM221 765q0 32 23 52.5t60 20.5t60.5 -20.5t23.5 -52.5t-23.5 -52.5t-60.5 -20.5t-60 20.5t-23 52.5z" />
    <glyph glyph-name="edot" unicode="&#x117;" horiz-adv-x="450" 
d="M275 62q63 0 125 43l21 -32q-96 -89 -179 -89q-98 0 -156.5 60t-58.5 158t59 166.5t153.5 68.5t141.5 -57.5t47 -154.5l-272 -18q8 -145 119 -145zM298 275q0 111 -66 111q-37 0 -56.5 -38.5t-19.5 -92.5zM157 591q0 32 23 52.5t60 20.5t60.5 -20.5t23.5 -52.5
t-23.5 -52.5t-60.5 -20.5t-60 20.5t-23 52.5z" />
    <glyph glyph-name="Eogonek" unicode="&#x118;" horiz-adv-x="594" 
d="M518 656l2 -87q0 -35 -3 -70l-46 -8q-14 77 -32 98h-190v-220h115q25 0 33 15q6 11 15 46l2 10l43 -5q-8 -53 -8 -98.5t8 -95.5l-43 -4q-9 39 -16.5 54.5t-33.5 15.5h-115v-245h200q13 11 30.5 51.5t24.5 65.5l46 -8q-1 -29 -8 -89.5t-13 -81.5h-58q-78 -80 -78 -143
q0 -19 10 -33t34 -14t55 19l20 -33q-58 -41 -106.5 -41t-75.5 25t-27 69q0 22 8 40t31 39q28 28 88 72h-250q-41 0 -127 -9l-8 39q65 13 73 30q2 5 2 19v494q0 23 -16 30q-19 9 -48 15l-11 3l9 39q96 -10 126 -10h246q48 0 92 6z" />
    <glyph glyph-name="eogonek" unicode="&#x119;" horiz-adv-x="450" 
d="M230 -143q0 -19 10 -33t34 -14t55 19l20 -33q-58 -41 -106.5 -41t-75.5 25t-27 65.5t25 69.5t80 69h-3q-98 0 -156.5 60t-58.5 158t59 166.5t153.5 68.5t141.5 -57.5t47 -154.5l-272 -18q8 -145 119 -145q63 0 125 43l21 -32q-66 -61 -119 -79q-72 -76 -72 -137zM298 275
q0 111 -66 111q-37 0 -56.5 -38.5t-19.5 -92.5z" />
    <glyph glyph-name="Ecaron" unicode="&#x11a;" horiz-adv-x="594" 
d="M518 656l2 -87q0 -35 -3 -70l-46 -8q-14 77 -32 98h-190v-220h115q25 0 33 15q6 11 15 46l2 10l43 -5q-8 -53 -8 -98.5t8 -95.5l-43 -4q-9 39 -16.5 54.5t-33.5 15.5h-115v-245h200q13 11 30.5 51.5t24.5 65.5l46 -8q-1 -29 -8 -89.5t-13 -81.5h-349q-41 0 -127 -9l-8 39
q65 13 73 30q2 5 2 19v494q0 23 -16 30q-19 9 -48 15l-11 3l9 39q96 -10 126 -10h246q48 0 92 6zM356 697q-20 -5 -53.5 -5t-52.5 5q-12 8 -50.5 60.5t-47.5 67.5l43 31l108 -89l108 89l44 -31q-7 -13 -47 -66t-52 -62z" />
    <glyph glyph-name="ecaron" unicode="&#x11b;" horiz-adv-x="450" 
d="M275 62q63 0 125 43l21 -32q-96 -89 -179 -89q-98 0 -156.5 60t-58.5 158t59 166.5t153.5 68.5t141.5 -57.5t47 -154.5l-272 -18q8 -145 119 -145zM298 275q0 111 -66 111q-37 0 -56.5 -38.5t-19.5 -92.5zM293 505q-27 -5 -56.5 -5t-49.5 5q-10 9 -44.5 71.5t-42.5 80.5
l47 27l93 -104l93 104l47 -27q-8 -18 -42.5 -80.5t-44.5 -71.5z" />
    <glyph glyph-name="Gcircumflex" unicode="&#x11c;" horiz-adv-x="707" 
d="M401 666q87 0 231 -32q-8 -92 -26 -166l-54 -8q-11 92 -33 124q-41 26 -135.5 26t-148.5 -76t-54 -198.5t61.5 -209t160.5 -86.5q57 0 94 26v126q0 27 -22 35l-73 19l9 42q94 -9 157.5 -9t108.5 9l7 -39q-28 -9 -43 -18.5t-15 -30.5v-181q-98 -35 -233 -35
q-156 0 -254.5 85.5t-98.5 229.5q0 162 98.5 264.5t262.5 102.5zM348 847q20 5 53.5 5t52.5 -5q12 -8 50.5 -60.5t47.5 -67.5l-43 -31l-108 89l-108 -89l-44 31q7 13 47 66t52 62z" />
    <glyph glyph-name="gcircumflex" unicode="&#x11d;" horiz-adv-x="471" 
d="M464 377q-15 -3 -37.5 -3t-41.5 1q38 -40 38 -94q0 -76 -55.5 -118.5t-141.5 -42.5q-22 0 -34 3q-37 -31 -37 -48q0 -23 66 -27l99 -7q69 -5 106.5 -36.5t37.5 -79.5q0 -77 -86 -131t-178 -54t-143 30.5t-51 89.5q0 31 9 46l84 60q-56 21 -56 79q0 17 7 27l89 65
q-11 3 -33 16.5t-35.5 28.5t-25 41.5t-11.5 57.5q0 74 55 115t142 41q41 0 84 -16h23q67 6 124 32l18 -19zM163 -52q-37 -44 -37 -74.5t30 -52.5t81 -22t85.5 25.5t34.5 65t-64 44.5zM178 673q33 5 56 5t50 -5q10 -9 44.5 -71.5t42.5 -80.5l-47 -27l-93 104l-93 -104l-47 27
q8 18 42.5 80.5t44.5 71.5zM158 287q0 -51 18.5 -84.5t54.5 -33.5q67 0 67 105q0 49 -18.5 82t-53.5 33q-68 0 -68 -102z" />
    <glyph glyph-name="Gbreve" unicode="&#x11e;" horiz-adv-x="707" 
d="M401 666q87 0 231 -32q-8 -92 -26 -166l-54 -8q-11 92 -33 124q-41 26 -135.5 26t-148.5 -76t-54 -198.5t61.5 -209t160.5 -86.5q57 0 94 26v126q0 27 -22 35l-73 19l9 42q94 -9 157.5 -9t108.5 9l7 -39q-28 -9 -43 -18.5t-15 -30.5v-181q-98 -35 -233 -35
q-156 0 -254.5 85.5t-98.5 229.5q0 162 98.5 264.5t262.5 102.5zM502 732.5q-37 -40.5 -97.5 -40.5t-95 39.5t-34.5 103.5l34 10q15 -66 98 -66t98 66l34 -10q0 -62 -37 -102.5z" />
    <glyph glyph-name="gbreve" unicode="&#x11f;" horiz-adv-x="471" 
d="M464 377q-15 -3 -37.5 -3t-41.5 1q38 -40 38 -94q0 -76 -55.5 -118.5t-141.5 -42.5q-22 0 -34 3q-37 -31 -37 -48q0 -23 66 -27l99 -7q69 -5 106.5 -36.5t37.5 -79.5q0 -77 -86 -131t-178 -54t-143 30.5t-51 89.5q0 31 9 46l84 60q-56 21 -56 79q0 17 7 27l89 65
q-11 3 -33 16.5t-35.5 28.5t-25 41.5t-11.5 57.5q0 74 55 115t142 41q41 0 84 -16h23q67 6 124 32l18 -19zM163 -52q-37 -44 -37 -74.5t30 -52.5t81 -22t85.5 25.5t34.5 65t-64 44.5zM158 287q0 -51 18.5 -84.5t54.5 -33.5q67 0 67 105q0 49 -18.5 82t-53.5 33
q-68 0 -68 -102zM332 546.5q-37 -40.5 -97.5 -40.5t-95 39.5t-34.5 103.5l34 10q15 -66 98 -66t98 66l34 -10q0 -62 -37 -102.5z" />
    <glyph glyph-name="Gdot" unicode="&#x120;" horiz-adv-x="707" 
d="M401 666q87 0 231 -32q-8 -92 -26 -166l-54 -8q-11 92 -33 124q-41 26 -135.5 26t-148.5 -76t-54 -198.5t61.5 -209t160.5 -86.5q57 0 94 26v126q0 27 -22 35l-73 19l9 42q94 -9 157.5 -9t108.5 9l7 -39q-28 -9 -43 -18.5t-15 -30.5v-181q-98 -35 -233 -35
q-156 0 -254.5 85.5t-98.5 229.5q0 162 98.5 264.5t262.5 102.5zM318 765q0 32 23 52.5t60 20.5t60.5 -20.5t23.5 -52.5t-23.5 -52.5t-60.5 -20.5t-60 20.5t-23 52.5z" />
    <glyph glyph-name="gdot" unicode="&#x121;" horiz-adv-x="471" 
d="M464 377q-15 -3 -37.5 -3t-41.5 1q38 -40 38 -94q0 -76 -55.5 -118.5t-141.5 -42.5q-22 0 -34 3q-37 -31 -37 -48q0 -23 66 -27l99 -7q69 -5 106.5 -36.5t37.5 -79.5q0 -77 -86 -131t-178 -54t-143 30.5t-51 89.5q0 31 9 46l84 60q-56 21 -56 79q0 17 7 27l89 65
q-11 3 -33 16.5t-35.5 28.5t-25 41.5t-11.5 57.5q0 74 55 115t142 41q41 0 84 -16h23q67 6 124 32l18 -19zM163 -52q-37 -44 -37 -74.5t30 -52.5t81 -22t85.5 25.5t34.5 65t-64 44.5zM158 287q0 -51 18.5 -84.5t54.5 -33.5q67 0 67 105q0 49 -18.5 82t-53.5 33
q-68 0 -68 -102zM148 591q0 32 23 52.5t60 20.5t60.5 -20.5t23.5 -52.5t-23.5 -52.5t-60.5 -20.5t-60 20.5t-23 52.5z" />
    <glyph glyph-name="Gcommaaccent" unicode="&#x122;" horiz-adv-x="707" 
d="M401 666q87 0 231 -32q-8 -92 -26 -166l-54 -8q-11 92 -33 124q-41 26 -135.5 26t-148.5 -76t-54 -198.5t61.5 -209t160.5 -86.5q57 0 94 26v126q0 27 -22 35l-73 19l9 42q94 -9 157.5 -9t108.5 9l7 -39q-28 -9 -43 -18.5t-15 -30.5v-181q-98 -35 -233 -35
q-156 0 -254.5 85.5t-98.5 229.5q0 162 98.5 264.5t262.5 102.5zM445.5 -59.5q31.5 -21.5 31.5 -53t-41.5 -80t-82.5 -77.5l-29 24q18 19 35 47t17 47.5t-51 24.5l-9 19q11 17 30.5 39.5t33.5 32.5q34 -2 65.5 -23.5z" />
    <glyph glyph-name="gcommaaccent" unicode="&#x123;" horiz-adv-x="471" 
d="M464 377q-15 -3 -37.5 -3t-41.5 1q38 -40 38 -94q0 -76 -55.5 -118.5t-141.5 -42.5q-22 0 -34 3q-37 -31 -37 -48q0 -23 66 -27l99 -7q69 -5 106.5 -36.5t37.5 -79.5q0 -77 -86 -131t-178 -54t-143 30.5t-51 89.5q0 31 9 46l84 60q-56 21 -56 79q0 17 7 27l89 65
q-11 3 -33 16.5t-35.5 28.5t-25 41.5t-11.5 57.5q0 74 55 115t142 41q41 0 84 -16h23q67 6 124 32l18 -19zM163 -52q-37 -44 -37 -74.5t30 -52.5t81 -22t85.5 25.5t34.5 65t-64 44.5zM158 287q0 -51 18.5 -84.5t54.5 -33.5q67 0 67 105q0 49 -18.5 82t-53.5 33
q-68 0 -68 -102zM183.5 515.5q-31.5 21.5 -31.5 53t41.5 80t82.5 77.5l29 -24q-18 -19 -35 -47t-17 -47.5t51 -24.5l9 -19q-11 -17 -30.5 -39.5t-33.5 -32.5q-34 2 -65.5 23.5z" />
    <glyph glyph-name="Hcircumflex" unicode="&#x124;" horiz-adv-x="815" 
d="M566 373v197q0 14 -2.5 20t-11.5 10q-19 9 -54 14l-13 1l9 44q74 -9 136 -9t129 9l8 -39q-38 -8 -55 -17.5t-17 -30.5v-494q0 -21 12 -28q19 -10 50 -18l10 -2l-8 -39q-67 9 -129 9t-137 -9l-8 44q72 9 79 25q2 6 2 20v225h-317v-225q0 -14 2.5 -20t12.5 -10
q17 -9 54 -14l12 -1l-8 -44q-75 9 -136.5 9t-129.5 -9l-8 39q38 8 55 17.5t17 30.5v494q0 21 -12 28q-19 10 -50 18l-10 2l9 39q66 -9 128.5 -9t135.5 9l9 -44q-47 -6 -64 -13.5t-17 -29.5v-199h317zM354 847q20 5 53.5 5t52.5 -5q12 -8 50.5 -60.5t47.5 -67.5l-43 -31
l-108 89l-108 -89l-44 31q7 13 47 66t52 62z" />
    <glyph glyph-name="hcircumflex" unicode="&#x125;" horiz-adv-x="570" 
d="M491 286v-210q0 -13 2.5 -18t12.5 -11q14 -9 53 -20l-8 -36q-99 9 -112 9t-116 -9l-8 35q25 7 41 18q15 11 15 30v192q0 50 -15.5 72.5t-51 22.5t-90.5 -39v-248q0 -30 57 -48l-8 -35q-103 9 -116 9t-112 -9l-9 36q36 7 53 19q15 9 15 30v531q0 35 -25 35l-38 -7l-7 40
q32 14 90 27.5t93 15.5l19 -23q-12 -25 -12 -93v-236l32 27q52 44 97 44q73 0 110.5 -35.5t37.5 -115.5zM87 894q20 5 53.5 5t52.5 -5q12 -8 50.5 -60.5t47.5 -67.5l-43 -31l-108 89l-108 -89l-44 31q7 13 47 66t52 62z" />
    <glyph glyph-name="Hbar" unicode="&#x126;" horiz-adv-x="815" 
d="M120 530v42q0 21 -12 28q-19 10 -50 18l-10 2l9 39q66 -9 128.5 -9t135.5 9l9 -44q-47 -6 -64 -13.5t-17 -29.5v-42h317v40q0 14 -2.5 20t-11.5 10q-19 9 -54 14l-13 1l9 44q74 -9 136 -9t129 9l8 -39q-38 -8 -55 -17.5t-17 -30.5v-42h84l-10 -52h-74v-400q0 -21 12 -28
q19 -10 50 -18l10 -2l-8 -39q-67 9 -129 9t-137 -9l-8 44q72 9 79 25q2 6 2 20v225h-317v-225q0 -14 2.5 -20t12.5 -10q17 -9 54 -14l12 -1l-8 -44q-75 9 -136.5 9t-129.5 -9l-8 39q38 8 55 17.5t17 30.5v400h-84l10 52h74zM566 373v105h-317v-105h317z" />
    <glyph glyph-name="hbar" unicode="&#x127;" horiz-adv-x="570" 
d="M491 286v-210q0 -13 2.5 -18t12.5 -11q14 -9 53 -20l-8 -36q-99 9 -112 9t-116 -9l-8 35q25 7 41 18q15 11 15 30v192q0 50 -15.5 72.5t-51 22.5t-90.5 -39v-248q0 -30 57 -48l-8 -35q-103 9 -116 9t-112 -9l-9 36q36 7 53 19q15 9 15 30v456h-74l10 52h64v23
q0 35 -25 35l-38 -7l-7 40q32 14 90 27.5t93 15.5l19 -23q-12 -25 -12 -93v-18h135l-10 -52h-125v-166l32 27q52 44 97 44q73 0 110.5 -35.5t37.5 -115.5z" />
    <glyph glyph-name="Itilde" unicode="&#x128;" horiz-adv-x="369" 
d="M249 572v-494q0 -13 2.5 -18.5t12.5 -10.5q16 -9 48 -17l11 -2l-7 -39q-69 9 -130.5 9t-130.5 -9l-7 39q62 13 70 30q2 5 2 18v494q0 13 -2.5 18.5t-11.5 10.5q-17 9 -48 17l-10 2l7 39q69 -9 130.5 -9t130.5 9l7 -39q-64 -12 -71 -30q-3 -5 -3 -18zM186 708
q-45 21 -70.5 21t-62.5 -46l-31 19q12 22 41.5 64t43.5 55l23 4q12 -2 57 -25t70 -23t60 40l32 -22q-12 -21 -41 -58t-42 -48l-23 -4q-12 2 -57 23z" />
    <glyph glyph-name="itilde" unicode="&#x129;" 
d="M217 321v-245q0 -13 2.5 -18t12.5 -10q18 -11 53 -21l-7 -36q-86 9 -121 9t-120 -9l-8 36q36 8 53 20q15 9 15 29v250q0 35 -27 35l-35 -7l-8 40q36 15 95 29t91 14l20 -23q-16 -42 -16 -93zM144 536q-45 21 -70.5 21t-62.5 -46l-31 19q12 22 41.5 64t43.5 55l23 4
q12 -2 57 -25t70 -23t60 40l32 -22q-12 -21 -41 -58t-42 -48l-23 -4q-12 2 -57 23z" />
    <glyph glyph-name="imacron" unicode="&#x12b;" 
d="M16 548l14 76h243l-14 -76h-243zM217 321v-245q0 -13 2.5 -18t12.5 -10q18 -11 53 -21l-7 -36q-86 9 -121 9t-120 -9l-8 36q36 8 53 20q15 9 15 29v250q0 35 -27 35l-35 -7l-8 40q36 15 95 29t91 14l20 -23q-16 -42 -16 -93z" />
    <glyph glyph-name="Ibreve" unicode="&#x12c;" horiz-adv-x="369" 
d="M249 572v-494q0 -13 2.5 -18.5t12.5 -10.5q16 -9 48 -17l11 -2l-7 -39q-69 9 -130.5 9t-130.5 -9l-7 39q62 13 70 30q2 5 2 18v494q0 13 -2.5 18.5t-11.5 10.5q-17 9 -48 17l-10 2l7 39q69 -9 130.5 -9t130.5 9l7 -39q-64 -12 -71 -30q-3 -5 -3 -18zM287 732.5
q-37 -40.5 -97.5 -40.5t-95 39.5t-34.5 103.5l34 10q15 -66 98 -66t98 66l34 -10q0 -62 -37 -102.5z" />
    <glyph glyph-name="Iogonek" unicode="&#x12e;" horiz-adv-x="369" 
d="M170 -143q0 -19 10 -33t34 -14t55 19l20 -33q-58 -41 -106.5 -41t-75.5 25t-27 69t38 79q36 34 88 72h-21q-61 0 -130 -9l-7 39q62 13 70 30q2 5 2 18v494q0 13 -2.5 18.5t-11.5 10.5q-17 9 -48 17l-10 2l7 39q69 -9 130.5 -9t130.5 9l7 -39q-64 -12 -71 -30
q-3 -5 -3 -18v-494q0 -13 2.5 -18.5t12.5 -10.5q16 -9 48 -17l11 -2l-7 -39q-45 6 -70 7q-76 -78 -76 -141z" />
    <glyph glyph-name="iogonek" unicode="&#x12f;" 
d="M135 -143q0 -19 10 -33t34 -14t55 19l20 -33q-58 -41 -106.5 -41t-75.5 25t-27 69q0 22 8 40t31 39q28 28 88 72h-15q-35 0 -120 -9l-8 36q36 8 53 20q15 9 15 29v250q0 35 -27 35l-35 -7l-8 40q36 15 95 29t91 14l20 -23q-16 -42 -16 -93v-245q0 -13 2.5 -18t12.5 -10
q18 -11 53 -21l-7 -36q-18 2 -68 7q-75 -80 -75 -141zM62 591q0 31 21.5 50t56.5 19t57 -19t22 -50t-22 -50t-57 -19t-56.5 19t-21.5 50z" />
    <glyph glyph-name="Idot" unicode="&#x130;" horiz-adv-x="369" 
d="M249 572v-494q0 -13 2.5 -18.5t12.5 -10.5q16 -9 48 -17l11 -2l-7 -39q-69 9 -130.5 9t-130.5 -9l-7 39q62 13 70 30q2 5 2 18v494q0 13 -2.5 18.5t-11.5 10.5q-17 9 -48 17l-10 2l7 39q69 -9 130.5 -9t130.5 9l7 -39q-64 -12 -71 -30q-3 -5 -3 -18zM103 765
q0 32 23 52.5t60 20.5t60.5 -20.5t23.5 -52.5t-23.5 -52.5t-60.5 -20.5t-60 20.5t-23 52.5z" />
    <glyph glyph-name="dotlessi" unicode="&#x131;" 
d="M217 321v-245q0 -13 2.5 -18t12.5 -10q18 -11 53 -21l-7 -36q-86 9 -121 9t-120 -9l-8 36q36 8 53 20q15 9 15 29v250q0 35 -27 35l-35 -7l-8 40q36 15 95 29t91 14l20 -23q-16 -42 -16 -93z" />
    <glyph glyph-name="IJ" unicode="&#x132;" horiz-adv-x="672" 
d="M249 572v-494q0 -13 2.5 -18.5t12.5 -10.5q16 -9 48 -17l11 -2l-7 -39q-69 9 -130.5 9t-130.5 -9l-7 39q62 13 70 30q2 5 2 18v494q0 13 -2.5 18.5t-11.5 10.5q-17 9 -48 17l-10 2l7 39q69 -9 130.5 -9t130.5 9l7 -39q-64 -12 -71 -30q-3 -5 -3 -18zM451 0v572
q0 13 -2.5 18.5t-12.5 10.5q-16 9 -47 17l-10 2l7 39q69 -9 130.5 -9t130.5 9l7 -39q-64 -12 -72 -30q-2 -5 -2 -18v-522q0 -43 -2 -65.5t-12.5 -55t-35 -60t-65.5 -58.5l-96 -71l-30 30q112 121 112 230z" />
    <glyph glyph-name="ij" unicode="&#x133;" horiz-adv-x="570" 
d="M217 321v-245q0 -13 2.5 -18t12.5 -10q18 -11 53 -21l-7 -36q-86 9 -121 9t-120 -9l-8 36q36 8 53 20q15 9 15 29v250q0 35 -27 35l-35 -7l-8 40q36 15 95 29t91 14l20 -23q-16 -42 -16 -93zM62 591q0 31 21.5 50t56.5 19t57 -19t22 -50t-22 -50t-57 -19t-56.5 19
t-21.5 50zM385 -28v354q0 35 -27 35l-35 -7l-8 40q36 15 95 29t91 14l20 -23q-16 -42 -16 -93v-319q0 -71 -13 -98q-32 -51 -82 -94q-22 -19 -30 -26q-51 -44 -55 -44l-26 26q60 65 79 131q7 23 7 75zM350 591q0 31 21.5 50t56.5 19t57 -19t22 -50t-22 -50t-57 -19t-56.5 19
t-21.5 50z" />
    <glyph glyph-name="Jcircumflex" unicode="&#x134;" horiz-adv-x="303" 
d="M82 0v572q0 13 -2.5 18.5t-11.5 10.5q-17 9 -48 17l-10 2l7 39q69 -9 130.5 -9t130.5 9l7 -39q-64 -12 -71 -30q-3 -5 -3 -18v-522q0 -43 -2 -65.5t-12.5 -55t-35 -60t-65.5 -58.5l-96 -71l-30 30q112 121 112 230zM93 847q20 5 53.5 5t52.5 -5q12 -8 50.5 -60.5
t47.5 -67.5l-43 -31l-108 89l-108 -89l-44 31q7 13 47 66t52 62z" />
    <glyph glyph-name="jcircumflex" unicode="&#x135;" horiz-adv-x="272" 
d="M87 -28v354q0 35 -27 35l-35 -7l-8 40q36 15 95 29t91 14l20 -23q-16 -42 -16 -93v-319q0 -71 -13 -98q-32 -51 -82 -94q-22 -19 -30 -26q-51 -44 -55 -44l-26 26q60 65 79 131q7 23 7 75zM75 673q33 5 56 5t50 -5q10 -9 44.5 -71.5t42.5 -80.5l-47 -27l-93 104l-93 -104
l-47 27q8 18 42.5 80.5t44.5 71.5z" />
    <glyph glyph-name="Kcommaaccent" unicode="&#x136;" horiz-adv-x="717" 
d="M494 602q0 14 -56 23l7 33q49 -8 101 -8t103 8l7 -33q-34 -5 -54 -15.5t-41 -33.5l-194 -205l251 -275q34 -37 56 -49.5t58 -21.5l-7 -33q-67 8 -148.5 8t-136.5 -8l-9 33q4 1 12 2.5t12 2.5t10.5 2.5t10 3t6.5 3.5q7 4 7 12.5t-18 28.5l-208 237v33l216 226q15 16 15 26
zM249 572v-494q0 -13 2.5 -18.5t12.5 -10.5q16 -9 56 -17l13 -2l-7 -39q-75 9 -138.5 9t-132.5 -9l-7 39q62 13 70 30q2 5 2 18v494q0 13 -2.5 18.5t-11.5 10.5q-17 9 -48 17l-10 2l7 39q69 -9 130.5 -9t130.5 9l7 -39q-64 -12 -71 -30q-3 -5 -3 -18zM429.5 -59.5
q31.5 -21.5 31.5 -53t-41.5 -80t-82.5 -77.5l-29 24q18 19 35 47t17 47.5t-51 24.5l-9 19q11 17 30.5 39.5t33.5 32.5q34 -2 65.5 -23.5z" />
    <glyph glyph-name="kcommaaccent" unicode="&#x137;" horiz-adv-x="565" 
d="M217 602v-348l121 103q19 17 19 23q0 9 -30 13l-3 34q31 -6 93.5 -6t104.5 6l-3 -35q-21 -5 -36 -8.5t-40 -25.5l-118 -102l166 -180q22 -24 41 -34l42 -15l-8 -36q-65 9 -112.5 9t-105.5 -9l-8 36q9 1 20 7t11 14t-19 28l-135 148v-148q0 -13 3 -18t12 -11q12 -9 48 -20
l-7 -36q-83 9 -117 9t-119 -9l-8 36q36 8 53 20q15 9 15 29v531q0 35 -27 35l-35 -7l-8 40q36 15 95 29t91 14l20 -23q-16 -42 -16 -93zM352.5 -59.5q31.5 -21.5 31.5 -53t-41.5 -80t-82.5 -77.5l-29 24q18 19 35 47t17 47.5t-51 24.5l-9 19q11 17 30.5 39.5t33.5 32.5
q34 -2 65.5 -23.5z" />
    <glyph glyph-name="kgreenlandic" unicode="&#x138;" horiz-adv-x="575" 
d="M217 345v-91l136 103q19 17 19 23q0 9 -25 13l-3 34q29 -6 90 -6t103 6l-3 -35q-21 -5 -34 -8t-42 -26l-132 -103l175 -179q22 -24 41 -34l42 -15l-8 -36q-65 9 -112.5 9t-105.5 -9l-8 36q9 1 20 7t11 14t-19 28l-145 148v-148q0 -13 3 -18t12 -11q12 -9 48 -20l-7 -36
q-83 9 -117 9t-119 -9l-8 36q36 8 53 20q15 9 15 29v269q0 13 -3 18t-12 11q-12 9 -48 20l7 36q83 -9 116.5 -9t114.5 9l8 -36q-33 -8 -48 -20q-15 -9 -15 -29z" />
    <glyph glyph-name="Lacute" unicode="&#x139;" horiz-adv-x="540" 
d="M249 563v-500h176q13 11 33.5 51.5t27.5 63.5l48 -9q-1 -25 -9 -86.5t-14 -82.5h-334q-22 0 -121 -9l-8 38q38 8 55 17.5t17 32.5v492q0 22 -12 29q-19 10 -50 18l-10 2l9 39q69 -9 141.5 -9t144.5 9l8 -42q-62 -12 -82 -19.5t-20 -34.5zM330 828l5 -29l-190 -119l-38 38
q14 18 61 70.5t58 58.5q48 -3 104 -19z" />
    <glyph glyph-name="Lcommaaccent" unicode="&#x13b;" horiz-adv-x="540" 
d="M249 563v-500h176q13 11 33.5 51.5t27.5 63.5l48 -9q-1 -25 -9 -86.5t-14 -82.5h-334q-22 0 -121 -9l-8 38q38 8 55 17.5t17 32.5v492q0 22 -12 29q-19 10 -50 18l-10 2l9 39q69 -9 141.5 -9t144.5 9l8 -42q-62 -12 -82 -19.5t-20 -34.5zM362.5 -59.5
q31.5 -21.5 31.5 -53t-41.5 -80t-82.5 -77.5l-29 24q18 19 35 47t17 47.5t-51 24.5l-9 19q11 17 30.5 39.5t33.5 32.5q34 -2 65.5 -23.5z" />
    <glyph glyph-name="lcommaaccent" unicode="&#x13c;" 
d="M217 602v-526q0 -13 2.5 -18t12.5 -10q18 -11 53 -21l-7 -36q-86 9 -121 9t-120 -9l-8 36q36 8 53 20q15 9 15 29v531q0 35 -27 35l-35 -7l-8 40q36 15 95 29t91 14l20 -23q-16 -42 -16 -93zM209.5 -59.5q31.5 -21.5 31.5 -53t-41.5 -80t-82.5 -77.5l-29 24q18 19 35 47
t17 47.5t-51 24.5l-9 19q11 17 30.5 39.5t33.5 32.5q34 -2 65.5 -23.5z" />
    <glyph glyph-name="Lcaron" unicode="&#x13d;" horiz-adv-x="540" 
d="M249 563v-500h176q13 11 33.5 51.5t27.5 63.5l48 -9q-1 -25 -9 -86.5t-14 -82.5h-334q-22 0 -121 -9l-8 38q38 8 55 17.5t17 32.5v492q0 22 -12 29q-19 10 -50 18l-10 2l9 39q69 -9 141.5 -9t144.5 9l8 -42q-62 -12 -82 -19.5t-20 -34.5zM506.5 696.5
q31.5 -21.5 31.5 -53t-41.5 -80t-82.5 -77.5l-29 24q18 19 35 47t17 47.5t-51 24.5l-9 19q11 17 30.5 39.5t33.5 32.5q34 -2 65.5 -23.5z" />
    <glyph glyph-name="lcaron" unicode="&#x13e;" horiz-adv-x="381" 
d="M217 602v-526q0 -13 2.5 -18t12.5 -10q18 -11 53 -21l-7 -36q-86 9 -121 9t-120 -9l-8 36q36 8 53 20q15 9 15 29v531q0 35 -27 35l-35 -7l-8 40q36 15 95 29t91 14l20 -23q-16 -42 -16 -93zM382.5 694.5q31.5 -21.5 31.5 -53t-41.5 -80t-82.5 -77.5l-29 24q18 19 35 47
t17 47.5t-51 24.5l-9 19q11 17 30.5 39.5t33.5 32.5q34 -2 65.5 -23.5z" />
    <glyph glyph-name="Ldot" unicode="&#x13f;" horiz-adv-x="540" 
d="M249 563v-500h176q13 11 33.5 51.5t27.5 63.5l48 -9q-1 -25 -9 -86.5t-14 -82.5h-334q-22 0 -121 -9l-8 38q38 8 55 17.5t17 32.5v492q0 22 -12 29q-19 10 -50 18l-10 2l9 39q69 -9 141.5 -9t144.5 9l8 -42q-62 -12 -82 -19.5t-20 -34.5zM340 351q0 32 23 52.5t60 20.5
t60.5 -20.5t23.5 -52.5t-23.5 -52.5t-60.5 -20.5t-60 20.5t-23 52.5z" />
    <glyph glyph-name="ldot" unicode="&#x140;" horiz-adv-x="407" 
d="M217 602v-526q0 -13 2.5 -18t12.5 -10q18 -11 53 -21l-7 -36q-86 9 -121 9t-120 -9l-8 36q36 8 53 20q15 9 15 29v531q0 35 -27 35l-35 -7l-8 40q36 15 95 29t91 14l20 -23q-16 -42 -16 -93zM277 351q0 32 23 52.5t60 20.5t60.5 -20.5t23.5 -52.5t-23.5 -52.5
t-60.5 -20.5t-60 20.5t-23 52.5z" />
    <glyph glyph-name="Lslash" unicode="&#x141;" horiz-adv-x="540" 
d="M249 563v-155l134 72l14 -53l-148 -80v-284h176q13 11 33.5 51.5t27.5 63.5l48 -9q-1 -25 -9 -86.5t-14 -82.5h-334q-22 0 -121 -9l-8 38q38 8 55 17.5t17 32.5v199l-83 -44l-14 53l97 52v232q0 22 -12 29q-19 10 -50 18l-10 2l9 39q69 -9 141.5 -9t144.5 9l8 -42
q-62 -12 -82 -19.5t-20 -34.5z" />
    <glyph glyph-name="lslash" unicode="&#x142;" 
d="M217 602v-126l59 46l15 -56l-74 -58v-332q0 -13 2.5 -18t12.5 -10q18 -11 53 -21l-7 -36q-86 9 -121 9t-120 -9l-8 36q36 8 53 20q15 9 15 29v239l-59 -45l-15 56l74 57v224q0 35 -27 35l-35 -7l-8 40q36 15 95 29t91 14l20 -23q-16 -42 -16 -93z" />
    <glyph glyph-name="Nacute" unicode="&#x143;" horiz-adv-x="764" 
d="M206 87q0 -15 4 -23t18 -12q13 -6 64 -16l16 -3l-8 -42q-69 9 -123 9t-126 -9l-8 39q41 7 62 18q16 7 16 31v494q0 22 -16 30l-59 18l7 39q55 -10 107.5 -10t108.5 10q23 -40 62 -97l208 -300q15 -23 28 -59l4 -12l5 4v374q0 22 -17 30q-11 6 -55 16l-12 3l7 41
q77 -10 119.5 -10t110.5 10l7 -39q-38 -8 -56.5 -17.5t-18.5 -30.5v-380q0 -78 6 -159l2 -27l-108 -21q-37 82 -114 192l-200 286q-17 24 -31 54l-5 11l-5 -4v-438zM527 828l5 -29l-190 -119l-38 38q14 18 61 70.5t58 58.5q48 -3 104 -19z" />
    <glyph glyph-name="nacute" unicode="&#x144;" horiz-adv-x="573" 
d="M217 74q0 -30 57 -48l-7 -35q-103 9 -116 9t-112 -9l-10 36q36 8 52 18t16 31v250q0 34 -26 34l-46 -6l-5 38q33 15 83 28.5t82 16.5l21 -23q0 -20 10 -48l33 27q53 44 97 44q73 0 110.5 -35.5t37.5 -115.5v-210q0 -13 2.5 -18t11.5 -10q19 -11 54 -21l-8 -36
q-99 9 -112.5 9t-116.5 -9l-7 35q25 8 41 19q15 11 15 29v192q0 50 -15.5 72.5t-51 22.5t-90.5 -39v-248zM401 685l13 -27l-153 -164l-47 27q9 22 41 84t41 71q43 9 105 9z" />
    <glyph glyph-name="Ncommaaccent" unicode="&#x145;" horiz-adv-x="769" 
d="M205 87q0 -15 4 -23t18 -12q13 -6 64 -16l16 -3l-8 -42q-69 9 -123 9t-126 -9l-8 39q41 7 62 18q16 7 16 31v494q0 22 -16 30l-59 18l7 39q55 -10 107.5 -10t108.5 10q23 -40 62 -97l208 -300q15 -23 28 -59l4 -12l5 4v374q0 22 -17 30q-11 6 -54 16l-13 3l7 41
q77 -10 119.5 -10t110.5 10l7 -39q-38 -8 -56.5 -17.5t-18.5 -30.5v-380q0 -78 6 -159l2 -27l-108 -21q-37 82 -114 192l-200 286q-17 24 -31 54l-5 11l-5 -4v-438zM442.5 -59.5q31.5 -21.5 31.5 -53t-41.5 -80t-82.5 -77.5l-29 24q18 19 35 47t17 47.5t-51 24.5l-9 19
q11 17 30.5 39.5t33.5 32.5q34 -2 65.5 -23.5z" />
    <glyph glyph-name="ncommaaccent" unicode="&#x146;" horiz-adv-x="573" 
d="M217 74q0 -30 57 -48l-7 -35q-103 9 -116 9t-112 -9l-10 36q36 8 52 18t16 31v250q0 34 -26 34l-46 -6l-5 38q33 15 83 28.5t82 16.5l21 -23q0 -20 10 -48l33 27q53 44 97 44q73 0 110.5 -35.5t37.5 -115.5v-210q0 -13 2.5 -18t11.5 -10q19 -11 54 -21l-8 -36
q-99 9 -112.5 9t-116.5 -9l-7 35q25 8 41 19q15 11 15 29v192q0 50 -15.5 72.5t-51 22.5t-90.5 -39v-248zM345.5 -59.5q31.5 -21.5 31.5 -53t-41.5 -80t-82.5 -77.5l-29 24q18 19 35 47t17 47.5t-51 24.5l-9 19q11 17 30.5 39.5t33.5 32.5q34 -2 65.5 -23.5z" />
    <glyph glyph-name="Ncaron" unicode="&#x147;" horiz-adv-x="769" 
d="M205 87q0 -15 4 -23t18 -12q13 -6 64 -16l16 -3l-8 -42q-69 9 -123 9t-126 -9l-8 39q41 7 62 18q16 7 16 31v494q0 22 -16 30l-59 18l7 39q55 -10 107.5 -10t108.5 10q23 -40 62 -97l208 -300q15 -23 28 -59l4 -12l5 4v374q0 22 -17 30q-11 6 -54 16l-13 3l7 41
q77 -10 119.5 -10t110.5 10l7 -39q-38 -8 -56.5 -17.5t-18.5 -30.5v-380q0 -78 6 -159l2 -27l-108 -21q-37 82 -114 192l-200 286q-17 24 -31 54l-5 11l-5 -4v-438zM443 697q-20 -5 -53.5 -5t-52.5 5q-12 8 -50.5 60.5t-47.5 67.5l43 31l108 -89l108 89l44 -31
q-7 -13 -47 -66t-52 -62z" />
    <glyph glyph-name="ncaron" unicode="&#x148;" horiz-adv-x="573" 
d="M217 74q0 -30 57 -48l-7 -35q-103 9 -116 9t-112 -9l-10 36q36 8 52 18t16 31v250q0 34 -26 34l-46 -6l-5 38q33 15 83 28.5t82 16.5l21 -23q0 -20 10 -48l33 27q53 44 97 44q73 0 110.5 -35.5t37.5 -115.5v-210q0 -13 2.5 -18t11.5 -10q19 -11 54 -21l-8 -36
q-99 9 -112.5 9t-116.5 -9l-7 35q25 8 41 19q15 11 15 29v192q0 50 -15.5 72.5t-51 22.5t-90.5 -39v-248zM346 505q-27 -5 -56.5 -5t-49.5 5q-10 9 -44.5 71.5t-42.5 80.5l47 27l93 -104l93 104l47 -27q-8 -18 -42.5 -80.5t-44.5 -71.5z" />
    <glyph glyph-name="napostrophe" unicode="&#x149;" horiz-adv-x="573" 
d="M217 74q0 -30 57 -48l-7 -35q-103 9 -116 9t-112 -9l-10 36q36 8 52 18t16 31v250q0 34 -26 34l-46 -6l-5 38q33 15 83 28.5t82 16.5l21 -23q0 -20 10 -48l33 27q53 44 97 44q73 0 110.5 -35.5t37.5 -115.5v-210q0 -13 2.5 -18t11.5 -10q19 -11 54 -21l-8 -36
q-99 9 -112.5 9t-116.5 -9l-7 35q25 8 41 19q15 11 15 29v192q0 50 -15.5 72.5t-51 22.5t-90.5 -39v-248zM164.5 694.5q31.5 -21.5 31.5 -53t-41.5 -80t-82.5 -77.5l-29 24q18 19 35 47t17 47.5t-51 24.5l-9 19q11 17 30.5 39.5t33.5 32.5q34 -2 65.5 -23.5z" />
    <glyph glyph-name="Eng" unicode="&#x14a;" horiz-adv-x="769" 
d="M551 0q0 28 -105 178l-200 286q-17 24 -31 54l-5 11l-5 -4v-438q0 -15 4 -23t18 -12q13 -6 64 -16l16 -3l-8 -42q-69 9 -123 9t-126 -9l-8 39q41 7 62 18q16 7 16 31v494q0 22 -16 30l-59 18l7 39q55 -10 107.5 -10t108.5 10q23 -40 62 -97l208 -300q15 -23 28 -59l4 -12
l5 4v374q0 22 -17 30q-11 6 -54 16l-13 3l7 41q77 -10 119.5 -10t110.5 10l7 -39q-38 -8 -56.5 -17.5t-18.5 -30.5v-523q0 -44 -2 -66.5t-11 -55t-31.5 -60t-60.5 -57.5l-91 -71l-30 30q117 122 117 230z" />
    <glyph glyph-name="eng" unicode="&#x14b;" horiz-adv-x="573" 
d="M374 -28v294q0 50 -15.5 72.5t-51 22.5t-90.5 -39v-248q0 -30 57 -48l-7 -35q-103 9 -116 9t-112 -9l-10 36q36 8 52 18t16 31v250q0 34 -26 34l-46 -6l-5 38q33 15 83 28.5t82 16.5l21 -23q0 -20 10 -48l33 27q53 44 97 44q73 0 110.5 -35.5t37.5 -115.5v-284
q0 -71 -13 -98q-32 -51 -83 -94q-21 -19 -28 -26q-52 -44 -56 -44l-26 26q60 65 79 131q7 23 7 75z" />
    <glyph glyph-name="Omacron" unicode="&#x14c;" horiz-adv-x="771" 
d="M134 71q-94 87 -94 240t93.5 254t251.5 101t252 -87t94 -240t-93.5 -254t-251.5 -101t-252 87zM229.5 534.5q-48.5 -73.5 -48.5 -196t55 -209.5t156 -87t149.5 73.5t48.5 196t-55 209.5t-156 87t-149.5 -73.5zM245 705l14 76h263l-14 -76h-263z" />
    <glyph glyph-name="omacron" unicode="&#x14d;" horiz-adv-x="510" 
d="M89.5 42q-58.5 58 -58.5 158.5t61.5 166t165 65.5t162.5 -58.5t59 -158t-62.5 -165.5t-165.5 -66t-161.5 58zM160 219q0 -89 28.5 -136.5t79.5 -47.5q82 0 82 162q0 89 -29 136.5t-81 47.5q-80 0 -80 -162zM120 547l14 76h273l-14 -76h-273z" />
    <glyph glyph-name="Obreve" unicode="&#x14e;" horiz-adv-x="771" 
d="M134 71q-94 87 -94 240t93.5 254t251.5 101t252 -87t94 -240t-93.5 -254t-251.5 -101t-252 87zM229.5 534.5q-48.5 -73.5 -48.5 -196t55 -209.5t156 -87t149.5 73.5t48.5 196t-55 209.5t-156 87t-149.5 -73.5zM484 732.5q-37 -40.5 -97.5 -40.5t-95 39.5t-34.5 103.5
l34 10q15 -66 98 -66t98 66l34 -10q0 -62 -37 -102.5z" />
    <glyph glyph-name="obreve" unicode="&#x14f;" horiz-adv-x="510" 
d="M89.5 42q-58.5 58 -58.5 158.5t61.5 166t165 65.5t162.5 -58.5t59 -158t-62.5 -165.5t-165.5 -66t-161.5 58zM160 219q0 -89 28.5 -136.5t79.5 -47.5q82 0 82 162q0 89 -29 136.5t-81 47.5q-80 0 -80 -162zM364 545.5q-37 -40.5 -97.5 -40.5t-95 39.5t-34.5 103.5l34 10
q15 -66 98 -66t98 66l34 -10q0 -62 -37 -102.5z" />
    <glyph glyph-name="Ohungarumlaut" unicode="&#x150;" horiz-adv-x="771" 
d="M134 71q-94 87 -94 240t93.5 254t251.5 101t252 -87t94 -240t-93.5 -254t-251.5 -101t-252 87zM229.5 534.5q-48.5 -73.5 -48.5 -196t55 -209.5t156 -87t149.5 73.5t48.5 196t-55 209.5t-156 87t-149.5 -73.5zM569 890l17 -24l-125 -186l-51 19q5 20 27 88t30 78
q13 5 51 14t51 11zM400 890l17 -24l-125 -186l-51 19q5 20 27 88t30 78q13 5 51 14t51 11z" />
    <glyph glyph-name="ohungarumlaut" unicode="&#x151;" horiz-adv-x="510" 
d="M89.5 42q-58.5 58 -58.5 158.5t61.5 166t165 65.5t162.5 -58.5t59 -158t-62.5 -165.5t-165.5 -66t-161.5 58zM160 219q0 -89 28.5 -136.5t79.5 -47.5q82 0 82 162q0 89 -29 136.5t-81 47.5q-80 0 -80 -162zM449 696l17 -24l-125 -186l-51 19q5 20 27 88t30 78q13 5 51 14
t51 11zM280 696l17 -24l-125 -186l-51 19q5 20 27 88t30 78q13 5 51 14t51 11z" />
    <glyph glyph-name="OE" unicode="&#x152;" horiz-adv-x="946" 
d="M533 650h251q50 0 87 6v-157l-52 -9q-14 77 -32 98h-170v-220h100q25 0 33 15q6 11 14 45l3 11l43 -6q-8 -53 -8 -98t8 -101l-43 -6q-9 44 -16.5 60.5t-33.5 16.5h-100v-242h180q13 11 30.5 50.5t24.5 64.5l50 -8q-1 -30 -7.5 -90t-12.5 -80h-349q-34 0 -97 -7l-1 -1
q-30 -8 -62 -8q-153 0 -243 85.5t-90 239t89.5 255.5t238.5 102q39 0 67 -7q70 -9 98 -9zM268 90q47 -43 112 -43t108 22v496q-54 43 -129 43q-89 0 -133.5 -73.5t-44.5 -189.5q0 -175 87 -255z" />
    <glyph glyph-name="oe" unicode="&#x153;" horiz-adv-x="735" 
d="M563 57q63 0 125 43l18 -27q-94 -89 -182.5 -89t-145.5 63q-50 -63 -128 -63q-105 0 -162 58t-57 159.5t60 168.5t153.5 67t141.5 -64q56 69 145 69t135.5 -56t46.5 -151l-266 -20q8 -158 116 -158zM160 219q0 -89 27 -136.5t76 -47.5q63 0 66 150v12q0 91 -24.5 140
t-69.5 49q-75 0 -75 -167zM568 359q-15 32 -49 32t-53 -38.5t-19 -91.5l136 19q0 47 -15 79z" />
    <glyph glyph-name="Racute" unicode="&#x154;" horiz-adv-x="665" 
d="M249 341h30q128 0 128 134q0 69 -28 101.5t-90 32.5q-23 0 -40 -7v-261zM88 651l201 7q115 0 186 -39.5t71 -129.5q0 -66 -48 -115t-115 -54v-7q30 -7 61 -42t53 -75q61 -111 100 -138t80 -27l-6 -37h-177q-24 0 -60 56q-32 51 -59 102.5t-41.5 78t-28.5 40t-38 13.5h-18
v-197q0 -15 4 -22.5t18 -12.5l80 -19l-7 -42q-94 9 -146.5 9t-142.5 -9l-7 39q62 13 70 30q2 5 2 19v490q0 22 -12 29q-22 11 -50 17l-10 2l7 37q3 -3 33 -3zM416 828l5 -29l-190 -119l-38 38q14 18 61 70.5t58 58.5q48 -3 104 -19z" />
    <glyph glyph-name="racute" unicode="&#x155;" horiz-adv-x="408" 
d="M335 437q30 0 78 -24q-5 -27 -18.5 -77t-22.5 -72l-42 -5q0 95 -27 95q-36 0 -86 -69v-208q0 -13 4 -18.5t15 -10.5q19 -9 58 -15l14 -2l-7 -40q-119 9 -151 9t-113 -9l-9 36q37 8 53 18t16 31v250q0 34 -26 34l-46 -6l-5 38q34 15 84.5 29t82.5 16l21 -23q0 -37 9 -69
l28 39q37 53 90 53zM343 685l13 -27l-153 -164l-47 27q9 22 41 84t41 71q43 9 105 9z" />
    <glyph glyph-name="Rcommaaccent" unicode="&#x156;" horiz-adv-x="665" 
d="M249 341h30q128 0 128 134q0 69 -28 101.5t-90 32.5q-23 0 -40 -7v-261zM88 651l201 7q115 0 186 -39.5t71 -129.5q0 -66 -48 -115t-115 -54v-7q30 -7 61 -42t53 -75q61 -111 100 -138t80 -27l-6 -37h-177q-24 0 -60 56q-32 51 -59 102.5t-41.5 78t-28.5 40t-38 13.5h-18
v-197q0 -15 4 -22.5t18 -12.5l80 -19l-7 -42q-94 9 -146.5 9t-142.5 -9l-7 39q62 13 70 30q2 5 2 19v490q0 22 -12 29q-22 11 -50 17l-10 2l7 37q3 -3 33 -3zM412.5 -59.5q31.5 -21.5 31.5 -53t-41.5 -80t-82.5 -77.5l-29 24q18 19 35 47t17 47.5t-51 24.5l-9 19
q11 17 30.5 39.5t33.5 32.5q34 -2 65.5 -23.5z" />
    <glyph glyph-name="rcommaaccent" unicode="&#x157;" horiz-adv-x="408" 
d="M335 437q30 0 78 -24q-5 -27 -18.5 -77t-22.5 -72l-42 -5q0 95 -27 95q-36 0 -86 -69v-208q0 -13 4 -18.5t15 -10.5q19 -9 58 -15l14 -2l-7 -40q-119 9 -151 9t-113 -9l-9 36q37 8 53 18t16 31v250q0 34 -26 34l-46 -6l-5 38q34 15 84.5 29t82.5 16l21 -23q0 -37 9 -69
l28 39q37 53 90 53zM213.5 -59.5q31.5 -21.5 31.5 -53t-41.5 -80t-82.5 -77.5l-29 24q18 19 35 47t17 47.5t-51 24.5l-9 19q11 17 30.5 39.5t33.5 32.5q34 -2 65.5 -23.5z" />
    <glyph glyph-name="Rcaron" unicode="&#x158;" horiz-adv-x="665" 
d="M249 341h30q128 0 128 134q0 69 -28 101.5t-90 32.5q-23 0 -40 -7v-261zM88 651l201 7q115 0 186 -39.5t71 -129.5q0 -66 -48 -115t-115 -54v-7q30 -7 61 -42t53 -75q61 -111 100 -138t80 -27l-6 -37h-177q-24 0 -60 56q-32 51 -59 102.5t-41.5 78t-28.5 40t-38 13.5h-18
v-197q0 -15 4 -22.5t18 -12.5l80 -19l-7 -42q-94 9 -146.5 9t-142.5 -9l-7 39q62 13 70 30q2 5 2 19v490q0 22 -12 29q-22 11 -50 17l-10 2l7 37q3 -3 33 -3zM333 697q-20 -5 -53.5 -5t-52.5 5q-12 8 -50.5 60.5t-47.5 67.5l43 31l108 -89l108 89l44 -31q-7 -13 -47 -66
t-52 -62z" />
    <glyph glyph-name="rcaron" unicode="&#x159;" horiz-adv-x="408" 
d="M335 437q30 0 78 -24q-5 -27 -18.5 -77t-22.5 -72l-42 -5q0 95 -27 95q-36 0 -86 -69v-208q0 -13 4 -18.5t15 -10.5q19 -9 58 -15l14 -2l-7 -40q-119 9 -151 9t-113 -9l-9 36q37 8 53 18t16 31v250q0 34 -26 34l-46 -6l-5 38q34 15 84.5 29t82.5 16l21 -23q0 -37 9 -69
l28 39q37 53 90 53zM288 505q-27 -5 -56.5 -5t-49.5 5q-10 9 -44.5 71.5t-42.5 80.5l47 27l93 -104l93 104l47 -27q-8 -18 -42.5 -80.5t-44.5 -71.5z" />
    <glyph glyph-name="Sacute" unicode="&#x15a;" horiz-adv-x="524" 
d="M248 40q45 0 74.5 28t29.5 77q0 46 -40 80q-33 28 -75.5 52.5t-53.5 31t-37 24.5t-37.5 31t-26.5 32q-27 36 -27 91q0 84 62.5 131.5t159.5 47.5q35 0 182 -26q-1 -24 -10.5 -80t-15.5 -78l-49 -7q-7 81 -19 112q-34 25 -96 25q-39 0 -64.5 -24.5t-25.5 -67.5
q0 -42 43 -74q32 -24 81 -51.5t72 -42.5t53 -40q56 -49 56 -125q0 -99 -70.5 -151t-173.5 -52t-190 37q-2 13 -2 80.5t4 86.5l52 11q6 -70 41 -114.5t103 -44.5zM412 828l5 -29l-190 -119l-38 38q14 18 61 70.5t58 58.5q48 -3 104 -19z" />
    <glyph glyph-name="sacute" unicode="&#x15b;" horiz-adv-x="389" 
d="M183 32q24 0 40 15t16 37.5t-6 34t-20 21.5q-20 16 -56.5 34t-57 31t-40 42.5t-19.5 68.5q0 56 44.5 88.5t110.5 32.5t150 -23q-3 -65 -17 -110l-40 -9q-24 96 -91 96q-45 0 -45 -53q0 -21 17.5 -36t51.5 -31.5t49 -25t40 -27.5q46 -36 46 -101t-50 -99t-131.5 -34
t-142.5 27q-2 17 -2 59.5t2 59.5l49 11q8 -49 35 -79t67 -30zM312 685l13 -27l-153 -164l-47 27q9 22 41 84t41 71q43 9 105 9z" />
    <glyph glyph-name="Scircumflex" unicode="&#x15c;" horiz-adv-x="524" 
d="M248 40q45 0 74.5 28t29.5 77q0 46 -40 80q-33 28 -75.5 52.5t-53.5 31t-37 24.5t-37.5 31t-26.5 32q-27 36 -27 91q0 84 62.5 131.5t159.5 47.5q35 0 182 -26q-1 -24 -10.5 -80t-15.5 -78l-49 -7q-7 81 -19 112q-34 25 -96 25q-39 0 -64.5 -24.5t-25.5 -67.5
q0 -42 43 -74q32 -24 81 -51.5t72 -42.5t53 -40q56 -49 56 -125q0 -99 -70.5 -151t-173.5 -52t-190 37q-2 13 -2 80.5t4 86.5l52 11q6 -70 41 -114.5t103 -44.5zM224 847q20 5 53.5 5t52.5 -5q12 -8 50.5 -60.5t47.5 -67.5l-43 -31l-108 89l-108 -89l-44 31q7 13 47 66
t52 62z" />
    <glyph glyph-name="scircumflex" unicode="&#x15d;" horiz-adv-x="389" 
d="M183 32q24 0 40 15t16 37.5t-6 34t-20 21.5q-20 16 -56.5 34t-57 31t-40 42.5t-19.5 68.5q0 56 44.5 88.5t110.5 32.5t150 -23q-3 -65 -17 -110l-40 -9q-24 96 -91 96q-45 0 -45 -53q0 -21 17.5 -36t51.5 -31.5t49 -25t40 -27.5q46 -36 46 -101t-50 -99t-131.5 -34
t-142.5 27q-2 17 -2 59.5t2 59.5l49 11q8 -49 35 -79t67 -30zM151 673q33 5 56 5t50 -5q10 -9 44.5 -71.5t42.5 -80.5l-47 -27l-93 104l-93 -104l-47 27q8 18 42.5 80.5t44.5 71.5z" />
    <glyph glyph-name="Scedilla" unicode="&#x15e;" horiz-adv-x="524" 
d="M50 21q-2 13 -2 80.5t4 86.5l52 11q6 -70 41 -114.5t103 -44.5q45 0 74.5 28t29.5 77q0 46 -40 80q-33 28 -75.5 52.5t-53.5 31t-37 24.5t-37.5 31t-26.5 32q-27 36 -27 91q0 84 62.5 131.5t159.5 47.5q35 0 182 -26q-1 -24 -10.5 -80t-15.5 -78l-49 -7q-7 81 -19 112
q-34 25 -96 25q-39 0 -64.5 -24.5t-25.5 -67.5q0 -42 43 -74q32 -24 81 -51.5t72 -42.5t53 -40q56 -49 56 -125q0 -95 -64.5 -146t-170.5 -56l-17 -56q32 0 54.5 -22.5t22.5 -61.5t-30.5 -64.5t-78.5 -25.5t-104 38l19 37q46 -23 78 -23q38 0 38 35q0 23 -17 33t-30 10
t-24 -3l-18 26l44 79q-82 10 -136 34z" />
    <glyph glyph-name="scedilla" unicode="&#x15f;" horiz-adv-x="389" 
d="M30 70.5q0 42.5 2 59.5l49 11q8 -49 35 -79t67 -30q24 0 40 15t16 37.5t-6 34t-20 21.5q-20 16 -56.5 34t-57 31t-40 42.5t-19.5 68.5q0 56 44.5 88.5t110.5 32.5t150 -23q-3 -65 -17 -110l-40 -9q-24 96 -91 96q-45 0 -45 -53q0 -21 17.5 -36t51.5 -31.5t49 -25
t40 -27.5q46 -36 46 -98.5t-44 -96.5t-120 -38l-17 -56q32 0 54.5 -22.5t22.5 -61.5t-30.5 -64.5t-78.5 -25.5t-104 38l19 37q46 -23 78 -23q38 0 38 35q0 23 -17 33t-30 10t-24 -3l-18 26l44 79q-59 7 -97 24q-2 17 -2 59.5z" />
    <glyph glyph-name="Scaron" unicode="&#x160;" horiz-adv-x="524" 
d="M248 40q45 0 74.5 28t29.5 77q0 46 -40 80q-33 28 -75.5 52.5t-53.5 31t-37 24.5t-37.5 31t-26.5 32q-27 36 -27 91q0 84 62.5 131.5t159.5 47.5q35 0 182 -26q-1 -24 -10.5 -80t-15.5 -78l-49 -7q-7 81 -19 112q-34 25 -96 25q-39 0 -64.5 -24.5t-25.5 -67.5
q0 -42 43 -74q32 -24 81 -51.5t72 -42.5t53 -40q56 -49 56 -125q0 -99 -70.5 -151t-173.5 -52t-190 37q-2 13 -2 80.5t4 86.5l52 11q6 -70 41 -114.5t103 -44.5zM329 697q-20 -5 -53.5 -5t-52.5 5q-12 8 -50.5 60.5t-47.5 67.5l43 31l108 -89l108 89l44 -31q-7 -13 -47 -66
t-52 -62z" />
    <glyph glyph-name="scaron" unicode="&#x161;" horiz-adv-x="389" 
d="M183 32q24 0 40 15t16 37.5t-6 34t-20 21.5q-20 16 -56.5 34t-57 31t-40 42.5t-19.5 68.5q0 56 44.5 88.5t110.5 32.5t150 -23q-3 -65 -17 -110l-40 -9q-24 96 -91 96q-45 0 -45 -53q0 -21 17.5 -36t51.5 -31.5t49 -25t40 -27.5q46 -36 46 -101t-50 -99t-131.5 -34
t-142.5 27q-2 17 -2 59.5t2 59.5l49 11q8 -49 35 -79t67 -30zM257 505q-27 -5 -56.5 -5t-49.5 5q-10 9 -44.5 71.5t-42.5 80.5l47 27l93 -104l93 104l47 -27q-8 -18 -42.5 -80.5t-44.5 -71.5z" />
    <glyph glyph-name="Tcommaaccent" unicode="&#x162;" horiz-adv-x="579" 
d="M441 -9q-77 9 -151.5 9t-151.5 -9l-9 40q83 16 93 33q3 5 3 18v506h-132q-10 -27 -21 -118l-57 9q-9 71 -9 114.5t1 64.5q67 -8 106 -8h353q39 0 106 8q1 -12 1 -48.5t-10 -130.5l-56 -9q-6 80 -21 118h-132v-506q0 -20 12 -26q19 -11 68 -22l16 -3zM341.5 -59.5
q31.5 -21.5 31.5 -53t-41.5 -80t-82.5 -77.5l-29 24q18 19 35 47t17 47.5t-51 24.5l-9 19q11 17 30.5 39.5t33.5 32.5q34 -2 65.5 -23.5z" />
    <glyph glyph-name="tcommaaccent" unicode="&#x163;" horiz-adv-x="342" 
d="M193 124q0 -38 11 -51t40.5 -13t76.5 30l20 -33q-88 -73 -145 -73t-90 27.5t-33 97.5v262h-50l-8 37l58 18v49l120 55v-110l118 9l-11 -65l-107 4v-244zM240.5 -59.5q31.5 -21.5 31.5 -53t-41.5 -80t-82.5 -77.5l-29 24q18 19 35 47t17 47.5t-51 24.5l-9 19
q11 17 30.5 39.5t33.5 32.5q34 -2 65.5 -23.5z" />
    <glyph glyph-name="Tcaron" unicode="&#x164;" horiz-adv-x="579" 
d="M441 -9q-77 9 -151.5 9t-151.5 -9l-9 40q83 16 93 33q3 5 3 18v506h-132q-10 -27 -21 -118l-57 9q-9 71 -9 114.5t1 64.5q67 -8 106 -8h353q39 0 106 8q1 -12 1 -48.5t-10 -130.5l-56 -9q-6 80 -21 118h-132v-506q0 -20 12 -26q19 -11 68 -22l16 -3zM341 697
q-20 -5 -53.5 -5t-52.5 5q-12 8 -50.5 60.5t-47.5 67.5l43 31l108 -89l108 89l44 -31q-7 -13 -47 -66t-52 -62z" />
    <glyph glyph-name="tcaron" unicode="&#x165;" horiz-adv-x="342" 
d="M193 124q0 -38 11 -51t40.5 -13t76.5 30l20 -33q-88 -73 -145 -73t-90 27.5t-33 97.5v262h-50l-8 37l58 18v49l120 55v-110l118 9l-11 -65l-107 4v-244zM348.5 694.5q31.5 -21.5 31.5 -53t-41.5 -80t-82.5 -77.5l-29 24q18 19 35 47t17 47.5t-51 24.5l-9 19
q11 17 30.5 39.5t33.5 32.5q34 -2 65.5 -23.5z" />
    <glyph glyph-name="Tbar" unicode="&#x166;" horiz-adv-x="579" 
d="M441 -9q-77 9 -151.5 9t-151.5 -9l-9 40q83 16 93 33q3 5 3 18v229h-151l10 52h141v225h-132q-10 -27 -21 -118l-57 9q-9 71 -9 114.5t1 64.5q67 -8 106 -8h353q39 0 106 8q1 -12 1 -48.5t-10 -130.5l-56 -9q-6 80 -21 118h-132v-225h150l-10 -52h-140v-229q0 -20 12 -26
q19 -11 68 -22l16 -3z" />
    <glyph glyph-name="tbar" unicode="&#x167;" horiz-adv-x="342" 
d="M193 268h100l-10 -52h-90v-92q0 -38 11 -51t40.5 -13t76.5 30l20 -33q-88 -73 -145 -73t-90 27.5t-33 97.5v107h-71l10 52h61v103h-50l-8 37l58 18v49l120 55v-110l118 9l-11 -65l-107 4v-100z" />
    <glyph glyph-name="Utilde" unicode="&#x168;" horiz-adv-x="754" 
d="M648 572v-327q0 -127 -70 -193t-204 -66t-201 59.5t-67 187.5v339q0 13 -2.5 18.5t-11.5 10.5q-17 9 -48 17l-10 2l7 39q69 -9 130.5 -9t130.5 9l7 -39q-64 -12 -71 -30q-3 -5 -3 -18v-323q0 -97 40 -142.5t122 -45.5t124 45t42 123v343q0 13 -2.5 18.5t-11.5 10.5
q-16 9 -47 17l-11 2l7 39q51 -9 104 -9t113 9l7 -39q-64 -12 -72 -30q-2 -5 -2 -18zM392 708q-45 21 -70.5 21t-62.5 -46l-31 19q12 22 41.5 64t43.5 55l23 4q12 -2 57 -25t70 -23t60 40l32 -22q-12 -21 -41 -58t-42 -48l-23 -4q-12 2 -57 23z" />
    <glyph glyph-name="utilde" unicode="&#x169;" horiz-adv-x="550" 
d="M467 321v-226q0 -26 16 -33q13 -9 53 -9l8 -34q-89 -16 -142 -35q-52 32 -52 70q-74 -70 -124 -70q-72 0 -110 35t-38 116v191q0 35 -27 35l-35 -7l-8 40q36 15 95 29t91 14l20 -23q-16 -42 -16 -93v-166q0 -50 15.5 -72.5t51 -22.5t82.5 36v230q0 35 -27 35l-35 -7
l-8 40q36 15 95 29t91 14l20 -23q-16 -42 -16 -93zM270 536q-45 21 -70.5 21t-62.5 -46l-31 19q12 22 41.5 64t43.5 55l23 4q12 -2 57 -25t70 -23t60 40l32 -22q-12 -21 -41 -58t-42 -48l-23 -4q-12 2 -57 23z" />
    <glyph glyph-name="Umacron" unicode="&#x16a;" horiz-adv-x="754" 
d="M648 572v-327q0 -127 -70 -193t-204 -66t-201 59.5t-67 187.5v339q0 13 -2.5 18.5t-11.5 10.5q-17 9 -48 17l-10 2l7 39q69 -9 130.5 -9t130.5 9l7 -39q-64 -12 -71 -30q-3 -5 -3 -18v-323q0 -97 40 -142.5t122 -45.5t124 45t42 123v343q0 13 -2.5 18.5t-11.5 10.5
q-16 9 -47 17l-11 2l7 39q51 -9 104 -9t113 9l7 -39q-64 -12 -72 -30q-2 -5 -2 -18zM254 705l14 76h263l-14 -76h-263z" />
    <glyph glyph-name="umacron" unicode="&#x16b;" horiz-adv-x="550" 
d="M467 321v-226q0 -26 16 -33q13 -9 53 -9l8 -34q-89 -16 -142 -35q-52 32 -52 70q-74 -70 -124 -70q-72 0 -110 35t-38 116v191q0 35 -27 35l-35 -7l-8 40q36 15 95 29t91 14l20 -23q-16 -42 -16 -93v-166q0 -50 15.5 -72.5t51 -22.5t82.5 36v230q0 35 -27 35l-35 -7
l-8 40q36 15 95 29t91 14l20 -23q-16 -42 -16 -93zM127 548l14 76h273l-14 -76h-273z" />
    <glyph glyph-name="Ubreve" unicode="&#x16c;" horiz-adv-x="754" 
d="M648 572v-327q0 -127 -70 -193t-204 -66t-201 59.5t-67 187.5v339q0 13 -2.5 18.5t-11.5 10.5q-17 9 -48 17l-10 2l7 39q69 -9 130.5 -9t130.5 9l7 -39q-64 -12 -71 -30q-3 -5 -3 -18v-323q0 -97 40 -142.5t122 -45.5t124 45t42 123v343q0 13 -2.5 18.5t-11.5 10.5
q-16 9 -47 17l-11 2l7 39q51 -9 104 -9t113 9l7 -39q-64 -12 -72 -30q-2 -5 -2 -18zM493 732.5q-37 -40.5 -97.5 -40.5t-95 39.5t-34.5 103.5l34 10q15 -66 98 -66t98 66l34 -10q0 -62 -37 -102.5z" />
    <glyph glyph-name="ubreve" unicode="&#x16d;" horiz-adv-x="550" 
d="M467 321v-226q0 -26 16 -33q13 -9 53 -9l8 -34q-89 -16 -142 -35q-52 32 -52 70q-74 -70 -124 -70q-72 0 -110 35t-38 116v191q0 35 -27 35l-35 -7l-8 40q36 15 95 29t91 14l20 -23q-16 -42 -16 -93v-166q0 -50 15.5 -72.5t51 -22.5t82.5 36v230q0 35 -27 35l-35 -7
l-8 40q36 15 95 29t91 14l20 -23q-16 -42 -16 -93zM371 546.5q-37 -40.5 -97.5 -40.5t-95 39.5t-34.5 103.5l34 10q15 -66 98 -66t98 66l34 -10q0 -62 -37 -102.5z" />
    <glyph glyph-name="Uring" unicode="&#x16e;" horiz-adv-x="754" 
d="M648 572v-327q0 -127 -70 -193t-204 -66t-201 59.5t-67 187.5v339q0 13 -2.5 18.5t-11.5 10.5q-17 9 -48 17l-10 2l7 39q69 -9 130.5 -9t130.5 9l7 -39q-64 -12 -71 -30q-3 -5 -3 -18v-323q0 -97 40 -142.5t122 -45.5t124 45t42 123v343q0 13 -2.5 18.5t-11.5 10.5
q-16 9 -47 17l-11 2l7 39q51 -9 104 -9t113 9l7 -39q-64 -12 -72 -30q-2 -5 -2 -18zM349 782q0 -19 12 -32t29 -13t29.5 13t12.5 32t-12.5 32t-29.5 13t-29 -13t-12 -32zM289 782q0 37 30 63.5t71 26.5t71.5 -26.5t30.5 -63.5t-30.5 -63.5t-71.5 -26.5t-71 26.5t-30 63.5z
" />
    <glyph glyph-name="uring" unicode="&#x16f;" horiz-adv-x="550" 
d="M467 321v-226q0 -26 16 -33q13 -9 53 -9l8 -34q-89 -16 -142 -35q-52 32 -52 70q-74 -70 -124 -70q-72 0 -110 35t-38 116v191q0 35 -27 35l-35 -7l-8 40q36 15 95 29t91 14l20 -23q-16 -42 -16 -93v-166q0 -50 15.5 -72.5t51 -22.5t82.5 36v230q0 35 -27 35l-35 -7
l-8 40q36 15 95 29t91 14l20 -23q-16 -42 -16 -93zM227 588q0 -19 12 -32t29 -13t29.5 13t12.5 32t-12.5 32t-29.5 13t-29 -13t-12 -32zM167 588q0 37 30 63.5t71 26.5t71.5 -26.5t30.5 -63.5t-30.5 -63.5t-71.5 -26.5t-71 26.5t-30 63.5z" />
    <glyph glyph-name="Uhungarumlaut" unicode="&#x170;" horiz-adv-x="754" 
d="M648 572v-327q0 -127 -70 -193t-204 -66t-201 59.5t-67 187.5v339q0 13 -2.5 18.5t-11.5 10.5q-17 9 -48 17l-10 2l7 39q69 -9 130.5 -9t130.5 9l7 -39q-64 -12 -71 -30q-3 -5 -3 -18v-323q0 -97 40 -142.5t122 -45.5t124 45t42 123v343q0 13 -2.5 18.5t-11.5 10.5
q-16 9 -47 17l-11 2l7 39q51 -9 104 -9t113 9l7 -39q-64 -12 -72 -30q-2 -5 -2 -18zM578 890l17 -24l-125 -186l-51 19q5 20 27 88t30 78q13 5 51 14t51 11zM409 890l17 -24l-125 -186l-51 19q5 20 27 88t30 78q13 5 51 14t51 11z" />
    <glyph glyph-name="uhungarumlaut" unicode="&#x171;" horiz-adv-x="550" 
d="M467 321v-226q0 -26 16 -33q13 -9 53 -9l8 -34q-89 -16 -142 -35q-52 32 -52 70q-74 -70 -124 -70q-72 0 -110 35t-38 116v191q0 35 -27 35l-35 -7l-8 40q36 15 95 29t91 14l20 -23q-16 -42 -16 -93v-166q0 -50 15.5 -72.5t51 -22.5t82.5 36v230q0 35 -27 35l-35 -7
l-8 40q36 15 95 29t91 14l20 -23q-16 -42 -16 -93zM456 697l17 -24l-125 -186l-51 19q5 20 27 88t30 78q13 5 51 14t51 11zM287 697l17 -24l-125 -186l-51 19q5 20 27 88t30 78q13 5 51 14t51 11z" />
    <glyph glyph-name="Uogonek" unicode="&#x172;" horiz-adv-x="754" 
d="M370 -143q0 -19 10 -33t34 -14t55 19l20 -33q-58 -41 -106.5 -41t-75.5 25t-27 65.5t25.5 69.5t81.5 71h-10q-137 0 -204 59.5t-67 187.5v339q0 13 -2.5 18.5t-11.5 10.5q-17 9 -48 17l-10 2l7 39q69 -9 130.5 -9t130.5 9l7 -39q-64 -12 -71 -30q-3 -5 -3 -18v-323
q0 -97 40 -142.5t122 -45.5t124 45t42 123v343q0 13 -2.5 18.5t-11.5 10.5q-16 9 -47 17l-11 2l7 39q51 -9 104 -9t113 9l7 -39q-64 -12 -72 -30q-2 -5 -2 -18v-327q0 -112 -54 -176.5t-156 -78.5q-68 -74 -68 -133z" />
    <glyph glyph-name="uogonek" unicode="&#x173;" horiz-adv-x="550" 
d="M344 -143q0 -19 10 -33t34 -14t55 19l20 -33q-58 -41 -106.5 -41t-75.5 25t-27 69t38 79q36 34 88 72q-30 24 -30 54q-74 -70 -124 -70q-72 0 -110 35t-38 116v191q0 35 -27 35l-35 -7l-8 40q36 15 95 29t91 14l20 -23q-16 -42 -16 -93v-166q0 -50 15.5 -72.5t51 -22.5
t82.5 36v230q0 35 -27 35l-35 -7l-8 40q36 15 95 29t91 14l20 -23q-16 -42 -16 -93v-226q0 -26 16 -33q13 -9 53 -9l8 -34q-90 -17 -135 -32q-65 -71 -65 -130z" />
    <glyph glyph-name="Wcircumflex" unicode="&#x174;" horiz-adv-x="1020" 
d="M2 659q66 -9 131.5 -9t140.5 9l7 -39q-36 -9 -57 -18q-25 -9 -25 -28q0 -8 2 -13l119 -382l6 -29l6 -1l4 33l152 467h102l152 -467l6 -26l5 -1l6 30l118 376q2 5 2 13q0 21 -25 28l-59 18l7 39q65 -9 110.5 -9t105.5 9l8 -39q-39 -10 -50 -22t-26 -59l-186 -547h-93
l-154 461l-6 27l-5 1l-8 -34l-150 -455h-94l-182 547q-15 46 -27 58.5t-51 22.5zM483 848q20 5 53.5 5t52.5 -5q12 -8 50.5 -60.5t47.5 -67.5l-43 -31l-108 89l-108 -89l-44 31q7 13 47 66t52 62z" />
    <glyph glyph-name="wcircumflex" unicode="&#x175;" horiz-adv-x="730" 
d="M-17 429q67 -8 108 -8t132 8l-4 -35q-31 -8 -43 -13q-8 -4 -8 -13t4 -20l71 -198l6 -26l6 -1l7 29l95 269h74l88 -271l6 -26l6 -1l7 29l68 195q5 11 5 19.5t-6 12.5q-11 10 -47 14l-2 35q56 -7 94 -7t97 7l-7 -37q-26 -3 -35.5 -11.5t-21.5 -35.5l-143 -353h-74l-91 250
l-7 29l-6 1l-6 -30l-94 -250h-72l-145 357q-10 25 -19.5 33t-35.5 11zM338 673q33 5 56 5t50 -5q10 -9 44.5 -71.5t42.5 -80.5l-47 -27l-93 104l-93 -104l-47 27q8 18 42.5 80.5t44.5 71.5z" />
    <glyph glyph-name="Ycircumflex" unicode="&#x176;" horiz-adv-x="608" 
d="M-4 660q70 -10 139.5 -10t153.5 10l-3 -38q-29 -6 -46 -15.5t-17 -25t8 -28.5l111 -193l106 194q10 17 10 28.5t-10.5 19t-64.5 20.5l-3 38q82 -10 123 -10t109 10l-4 -38q-31 -3 -50 -17t-37 -53l-157 -276v-198q0 -14 2.5 -19.5t11.5 -10.5q20 -10 58 -18l14 -2l-9 -36
q-75 8 -138.5 8t-132.5 -8l-8 37q73 12 80 29q3 6 3 20v196l-165 285q-17 35 -34 47.5t-46 15.5zM270 847q20 5 53.5 5t52.5 -5q12 -8 50.5 -60.5t47.5 -67.5l-43 -31l-108 89l-108 -89l-44 31q7 13 47 66t52 62z" />
    <glyph glyph-name="ycircumflex" unicode="&#x177;" horiz-adv-x="465" 
d="M70 -244h-17q-24 41 -37 117l23 14q29 -18 51 -18q47 0 72 43l34 79l-153 357q-12 27 -21 34t-34 10l-7 37q80 -8 115 -8t125 8l-4 -35q-2 -1 -10.5 -3t-14 -3.5t-12.5 -3.5q-14 -6 -14 -15q0 -7 4 -21l88 -225l86 229q3 9 3 17q0 18 -53 24l-2 35q49 -7 82 -7t109 7
l-7 -37q-24 -1 -33.5 -8.5t-19.5 -30.5l-210 -491q-45 -105 -143 -105zM188 673q33 5 56 5t50 -5q10 -9 44.5 -71.5t42.5 -80.5l-47 -27l-93 104l-93 -104l-47 27q8 18 42.5 80.5t44.5 71.5z" />
    <glyph glyph-name="Ydieresis" unicode="&#x178;" horiz-adv-x="608" 
d="M-4 660q70 -10 139.5 -10t153.5 10l-3 -38q-29 -6 -46 -15.5t-17 -25t8 -28.5l111 -193l106 194q10 17 10 28.5t-10.5 19t-64.5 20.5l-3 38q82 -10 123 -10t109 10l-4 -38q-31 -3 -50 -17t-37 -53l-157 -276v-198q0 -14 2.5 -19.5t11.5 -10.5q20 -10 58 -18l14 -2l-9 -36
q-75 8 -138.5 8t-132.5 -8l-8 37q73 12 80 29q3 6 3 20v196l-165 285q-17 35 -34 47.5t-46 15.5zM136 761q0 30 20.5 48.5t54.5 18.5t55 -18.5t21 -48.5t-21 -48.5t-54.5 -18.5t-54.5 18.5t-21 48.5zM359 761q0 30 20.5 48.5t54.5 18.5t55 -18.5t21 -48.5t-21 -48.5
t-54.5 -18.5t-54.5 18.5t-21 48.5z" />
    <glyph glyph-name="Zacute" unicode="&#x179;" horiz-adv-x="595" 
d="M168 650h362l9 -55l-351 -527h240q15 14 44 66t39 80l51 -12q-1 -28 -14 -101.5t-21 -100.5h-481l-14 52l354 530h-228q-29 -39 -51 -132l-50 9q0 148 6 186l34 18q30 -13 71 -13zM441 828l5 -29l-190 -119l-38 38q14 18 61 70.5t58 58.5q48 -3 104 -19z" />
    <glyph glyph-name="zacute" unicode="&#x17a;" horiz-adv-x="419" 
d="M160 421h218l11 -28l-220 -338h134q9 9 27 42t24 50l46 -8q-2 -42 -27 -139h-343l-6 28l221 340h-131q-8 -9 -20.5 -38.5t-17.5 -49.5l-44 7q0 110 6 132l25 16q47 -14 97 -14zM326 685l13 -27l-153 -164l-47 27q9 22 41 84t41 71q43 9 105 9z" />
    <glyph glyph-name="Zdot" unicode="&#x17b;" horiz-adv-x="595" 
d="M168 650h362l9 -55l-351 -527h240q15 14 44 66t39 80l51 -12q-1 -28 -14 -101.5t-21 -100.5h-481l-14 52l354 530h-228q-29 -39 -51 -132l-50 9q0 148 6 186l34 18q30 -13 71 -13zM223 765q0 32 23 52.5t60 20.5t60.5 -20.5t23.5 -52.5t-23.5 -52.5t-60.5 -20.5t-60 20.5
t-23 52.5z" />
    <glyph glyph-name="zdot" unicode="&#x17c;" horiz-adv-x="419" 
d="M160 421h218l11 -28l-220 -338h134q9 9 27 42t24 50l46 -8q-2 -42 -27 -139h-343l-6 28l221 340h-131q-8 -9 -20.5 -38.5t-17.5 -49.5l-44 7q0 110 6 132l25 16q47 -14 97 -14zM135 591q0 32 23 52.5t60 20.5t60.5 -20.5t23.5 -52.5t-23.5 -52.5t-60.5 -20.5t-60 20.5
t-23 52.5z" />
    <glyph glyph-name="Zcaron" unicode="&#x17d;" horiz-adv-x="595" 
d="M168 650h362l9 -55l-351 -527h240q15 14 44 66t39 80l51 -12q-1 -28 -14 -101.5t-21 -100.5h-481l-14 52l354 530h-228q-29 -39 -51 -132l-50 9q0 148 6 186l34 18q30 -13 71 -13zM358 697q-20 -5 -53.5 -5t-52.5 5q-12 8 -50.5 60.5t-47.5 67.5l43 31l108 -89l108 89
l44 -31q-7 -13 -47 -66t-52 -62z" />
    <glyph glyph-name="zcaron" unicode="&#x17e;" horiz-adv-x="419" 
d="M160 421h218l11 -28l-220 -338h134q9 9 27 42t24 50l46 -8q-2 -42 -27 -139h-343l-6 28l221 340h-131q-8 -9 -20.5 -38.5t-17.5 -49.5l-44 7q0 110 6 132l25 16q47 -14 97 -14zM271 505q-27 -5 -56.5 -5t-49.5 5q-10 9 -44.5 71.5t-42.5 80.5l47 27l93 -104l93 104
l47 -27q-8 -18 -42.5 -80.5t-44.5 -71.5z" />
    <glyph glyph-name="longs" unicode="&#x17f;" horiz-adv-x="326" 
d="M95 479q0 99 55.5 169t153.5 70q46 0 115 -23q-7 -41 -42 -130l-41 8q0 41 -15 66.5t-46 25.5t-45.5 -39t-14.5 -90v-459q0 -13 3 -18t12 -11q17 -11 56 -18l13 -3l-8 -36q-110 9 -133.5 9t-122.5 -9l-8 36q36 8 52 18t16 31v291h-56l-5 40l61 15v57z" />
    <glyph glyph-name="florin" unicode="&#x192;" horiz-adv-x="322" 
d="M-14 -170q-27 0 -57 11.5t-43 22.5q15 40 47 97h30q14 -67 45 -67q38 0 56 132l38 284l-53 -1v42l59 3l9 65q15 106 64.5 176.5t138.5 70.5q51 0 117 -27q-7 -40 -43 -123h-47q0 41 -15 69t-39 28q-35 0 -51 -108l-20 -144q63 5 102 8l-10 -63l-100 3l-31 -221
q-17 -124 -68.5 -191t-128.5 -67z" />
    <glyph glyph-name="Ohorn" unicode="&#x1a0;" horiz-adv-x="771" 
d="M134 71q-94 87 -94 240t93.5 254t249.5 101q119 0 206 -51q53 20 53 55q0 13 -13 23.5t-30 14.5v20q14 12 45.5 29.5t49.5 21.5q22 -10 36.5 -32.5t14.5 -42.5q0 -79 -115 -119q101 -88 101 -243.5t-93.5 -256.5t-251.5 -101t-252 87zM229.5 534.5
q-48.5 -73.5 -48.5 -196t55 -209.5t156 -87t149.5 73.5t48.5 196t-55 209.5t-156 87t-149.5 -73.5z" />
    <glyph glyph-name="ohorn" unicode="&#x1a1;" horiz-adv-x="538" 
d="M89.5 42q-58.5 58 -58.5 158.5t61.5 166t161.5 65.5t158 -52q51 21 51 54q0 13 -13 23.5t-30 14.5v20q14 12 45.5 29.5t49.5 21.5q22 -10 36.5 -32.5t14.5 -42.5q0 -81 -123 -122q36 -51 36 -127q0 -103 -62.5 -169t-165.5 -66t-161.5 58zM160 219q0 -89 28.5 -136.5
t79.5 -47.5q82 0 82 162q0 89 -29 136.5t-81 47.5q-80 0 -80 -162z" />
    <glyph glyph-name="Uhorn" unicode="&#x1af;" horiz-adv-x="754" 
d="M648 572v-327q0 -127 -70 -193t-204 -66t-201 59.5t-67 187.5v339q0 13 -2.5 18.5t-11.5 10.5q-17 9 -48 17l-10 2l7 39q69 -9 130.5 -9t130.5 9l7 -39q-64 -12 -71 -30q-3 -5 -3 -18v-323q0 -97 40 -142.5t122 -45.5t124 45t42 123v343q0 13 -2.5 18.5t-11.5 10.5
q-16 9 -47 17l-11 2l7 39q51 -9 102 -9t71 2.5t45.5 19t25.5 42.5q0 13 -13 23.5t-30 14.5v20q14 12 45.5 29.5t49.5 21.5q22 -10 36.5 -32.5t14.5 -44.5t-12 -42t-26 -32.5t-44 -25.5q-33 -15 -98 -37q-17 -6 -17 -37z" />
    <glyph glyph-name="uhorn" unicode="&#x1b0;" horiz-adv-x="586" 
d="M467 321v-226q0 -26 16 -33q13 -9 53 -9l8 -34q-89 -16 -142 -35q-52 32 -52 70q-74 -70 -124 -70q-72 0 -110 35t-38 116v191q0 35 -27 35l-35 -7l-8 40q36 15 95 29t91 14l20 -23q-16 -42 -16 -93v-166q0 -50 15.5 -72.5t51 -22.5t82.5 36v230q0 35 -27 35l-35 -7
l-8 40q35 15 93 28.5t92 14.5q46 21 46 52q0 13 -13 23.5t-30 14.5v20q14 12 45.5 29.5t49.5 21.5q22 -10 36.5 -32.5t14.5 -42.5q0 -83 -134 -125q-10 -31 -10 -77z" />
    <glyph glyph-name="jcaron" unicode="&#x1f0;" horiz-adv-x="272" 
d="M87 -28v354q0 35 -27 35l-35 -7l-8 40q36 15 95 29t91 14l20 -23q-16 -42 -16 -93v-319q0 -71 -13 -98q-32 -51 -82 -94q-22 -19 -30 -26q-51 -44 -55 -44l-26 26q60 65 79 131q7 23 7 75zM181 505q-27 -5 -56.5 -5t-49.5 5q-10 9 -44.5 71.5t-42.5 80.5l47 27l93 -104
l93 104l47 -27q-8 -18 -42.5 -80.5t-44.5 -71.5z" />
    <glyph glyph-name="Aringacute" unicode="&#x1fa;" horiz-adv-x="650" 
d="M147 75q0 -18 25 -27l56 -18l-6 -39q-64 9 -109.5 9t-114.5 -9l-8 39q45 9 57 21t29 60l196 534q47 9 89 30l218 -564q18 -47 30 -59.5t51 -21.5l-7 -39q-69 9 -134.5 9t-140.5 -9l-6 39q33 10 56.5 19t23.5 26q0 7 -3 14l-51 139h-202l-47 -139q-2 -5 -2 -14zM209 766
q0 37 30 63.5t71 26.5t71.5 -26.5t30.5 -63.5t-30.5 -63.5t-71.5 -26.5t-71 26.5t-30 63.5zM445 1012l5 -29l-190 -119l-38 38q14 18 61 70.5t58 58.5q48 -3 104 -19zM285 485l-67 -193h157l-67 186l-11 42l-7 3zM269 766q0 -19 12 -32t29 -13t29.5 13t12.5 32t-12.5 32
t-29.5 13t-29 -13t-12 -32z" />
    <glyph glyph-name="aringacute" unicode="&#x1fb;" horiz-adv-x="459" 
d="M162 74.5q12 -15.5 38 -15.5t60 29v102l-52 -11q-58 -13 -58 -67q0 -22 12 -37.5zM380 291v-199q0 -21 8.5 -28t27.5 -10l25 -2l9 -34q-54 -9 -135 -34q-42 25 -52 64q-64 -64 -105 -64q-58 0 -93 32t-35 88t42 82.5t121 35.5l67 8v47q0 53 -11.5 79t-44.5 26t-59 -13
q-6 -21 -6 -91l-62 -17q-29 90 -30 122q118 54 176 54q81 0 119 -35.5t38 -110.5zM179 588q0 -19 12 -32t29 -13t29.5 13t12.5 32t-12.5 32t-29.5 13t-29 -13t-12 -32zM119 588q0 37 30 63.5t71 26.5t71.5 -26.5t30.5 -63.5t-30.5 -63.5t-71.5 -26.5t-71 26.5t-30 63.5z
M353 828l5 -29l-190 -119l-38 38q14 18 61 70.5t58 58.5q48 -3 104 -19z" />
    <glyph glyph-name="AEacute" unicode="&#x1fc;" horiz-adv-x="854" 
d="M441 650h251q50 0 87 6v-157l-52 -9q-14 77 -32 98h-170v-220h100q25 0 33 15q6 11 14 45l3 11l43 -6q-8 -53 -8 -98t8 -101l-43 -6q-8 44 -16 60.5t-34 16.5h-100v-242h180q13 11 30.5 50.5t24.5 64.5l50 -8q-1 -30 -7.5 -90t-12.5 -80h-349q-38 0 -110 -9l-7 39
q38 8 55 17.5t17 31.5v226h-148l-99 -216q-8 -17 -8 -27t8 -14q14 -8 45 -16l10 -2l-6 -38q-63 8 -114 8t-99 -8l-7 38q36 8 54 21.5t40 59.5l256 546q55 -7 113 -7zM670 828l5 -29l-190 -119l-38 38q14 18 61 70.5t58 58.5q48 -3 104 -19zM396 588h-19l-100 -220h119v220z
" />
    <glyph glyph-name="aeacute" unicode="&#x1fd;" horiz-adv-x="680" 
d="M508 57q63 0 125 43l18 -27q-94 -89 -176 -89q-109 0 -164 79q-89 -79 -150.5 -79t-96 32t-34.5 88t42 82.5t120 35.5l82 10v45q0 50 -15 75t-53 25t-62 -13q-4 -19 -4 -79l-56 -14q-16 53 -23 112q108 54 161 54q94 0 132 -45q51 45 119 45q92 0 138.5 -56t46.5 -151
l-266 -20q8 -153 116 -153zM461 685l13 -27l-153 -164l-47 27q9 22 41 84t41 71q43 9 105 9zM197 54q41 0 96 42q-19 44 -19 97l-67 -14q-54 -12 -54 -67q0 -24 12.5 -41t31.5 -17zM513 354q-15 32 -49 32t-53 -38.5t-19 -91.5l136 19q0 47 -15 79z" />
    <glyph glyph-name="Oslashacute" unicode="&#x1fe;" horiz-adv-x="775" 
d="M148 60q-106 87 -106 245.5t93.5 259.5t249.5 101q88 0 164 -30l44 63l38 -41l-33 -48q135 -86 135 -269q0 -155 -93.5 -256t-249.5 -101q-113 0 -197 45l-44 -63l-38 41zM545.5 114.5q46.5 72.5 46.5 200t-55 208.5l-287 -412q56 -69 152.5 -69t143 72.5zM231.5 534.5
q-48.5 -73.5 -48.5 -185.5t36 -187l281 403q-51 43 -124 43q-96 0 -144.5 -73.5zM520 828l5 -29l-190 -119l-38 38q14 18 61 70.5t58 58.5q48 -3 104 -19z" />
    <glyph glyph-name="oslashacute" unicode="&#x1ff;" horiz-adv-x="522" 
d="M97 38q-62 57 -62 161t61.5 171t161.5 67q57 0 103 -20l42 60l37 -39l-33 -48q80 -61 80 -166.5t-66.5 -172.5t-161.5 -67q-68 0 -118 25l-39 -56l-37 39zM340.5 73q17.5 37 17.5 112t-11 119l-155 -222q28 -46 79.5 -46t69 37zM164 219q0 -42 6 -75l149 214
q-26 28 -71.5 28t-64.5 -38.5t-19 -128.5zM366 685l13 -27l-153 -164l-47 27q9 22 41 84t41 71q43 9 105 9z" />
    <glyph glyph-name="Scommaaccent" unicode="&#x218;" horiz-adv-x="524" 
d="M248 40q45 0 74.5 28t29.5 77q0 46 -40 80q-33 28 -75.5 52.5t-53.5 31t-37 24.5t-37.5 31t-26.5 32q-27 36 -27 91q0 84 62.5 131.5t159.5 47.5q35 0 182 -26q-1 -24 -10.5 -80t-15.5 -78l-49 -7q-7 81 -19 112q-34 25 -96 25q-39 0 -64.5 -24.5t-25.5 -67.5
q0 -42 43 -74q32 -24 81 -51.5t72 -42.5t53 -40q56 -49 56 -125q0 -99 -70.5 -151t-173.5 -52t-190 37q-2 13 -2 80.5t4 86.5l52 11q6 -70 41 -114.5t103 -44.5zM279.5 -59.5q31.5 -21.5 31.5 -53t-41.5 -80t-82.5 -77.5l-29 24q18 19 35 47t17 47.5t-51 24.5l-9 19
q11 17 30.5 39.5t33.5 32.5q34 -2 65.5 -23.5z" />
    <glyph glyph-name="scommaaccent" unicode="&#x219;" horiz-adv-x="389" 
d="M183 32q24 0 40 15t16 37.5t-6 34t-20 21.5q-20 16 -56.5 34t-57 31t-40 42.5t-19.5 68.5q0 56 44.5 88.5t110.5 32.5t150 -23q-3 -65 -17 -110l-40 -9q-24 96 -91 96q-45 0 -45 -53q0 -21 17.5 -36t51.5 -31.5t49 -25t40 -27.5q46 -36 46 -101t-50 -99t-131.5 -34
t-142.5 27q-2 17 -2 59.5t2 59.5l49 11q8 -49 35 -79t67 -30zM222.5 -59.5q31.5 -21.5 31.5 -53t-41.5 -80t-82.5 -77.5l-29 24q18 19 35 47t17 47.5t-51 24.5l-9 19q11 17 30.5 39.5t33.5 32.5q34 -2 65.5 -23.5z" />
    <glyph glyph-name="dotlessj" unicode="&#x237;" horiz-adv-x="272" 
d="M87 -28v354q0 35 -27 35l-35 -7l-8 40q36 15 95 29t91 14l20 -23q-16 -42 -16 -93v-319q0 -71 -13 -98q-32 -51 -82 -94q-22 -19 -30 -26q-51 -44 -55 -44l-26 26q60 65 79 131q7 23 7 75z" />
    <glyph glyph-name="circumflex" unicode="&#x2c6;" horiz-adv-x="322" 
d="M108 673q33 5 56 5t50 -5q10 -9 44.5 -71.5t42.5 -80.5l-47 -27l-93 104l-93 -104l-47 27q8 18 42.5 80.5t44.5 71.5z" />
    <glyph glyph-name="caron" unicode="&#x2c7;" horiz-adv-x="322" 
d="M214 505q-27 -5 -56.5 -5t-49.5 5q-10 9 -44.5 71.5t-42.5 80.5l47 27l93 -104l93 104l47 -27q-8 -18 -42.5 -80.5t-44.5 -71.5z" />
    <glyph glyph-name="breve" unicode="&#x2d8;" horiz-adv-x="322" 
d="M256 546.5q-37 -40.5 -97.5 -40.5t-95 39.5t-34.5 103.5l34 10q15 -66 98 -66t98 66l34 -10q0 -62 -37 -102.5z" />
    <glyph glyph-name="dotaccent" unicode="&#x2d9;" horiz-adv-x="285" 
d="M57 591q0 32 23 52.5t60 20.5t60.5 -20.5t23.5 -52.5t-23.5 -52.5t-60.5 -20.5t-60 20.5t-23 52.5z" />
    <glyph glyph-name="ring" unicode="&#x2da;" horiz-adv-x="322" 
d="M120 588q0 -19 12 -32t29 -13t29.5 13t12.5 32t-12.5 32t-29.5 13t-29 -13t-12 -32zM60 588q0 37 30 63.5t71 26.5t71.5 -26.5t30.5 -63.5t-30.5 -63.5t-71.5 -26.5t-71 26.5t-30 63.5z" />
    <glyph glyph-name="ogonek" unicode="&#x2db;" horiz-adv-x="276" 
d="M140 -143q0 -19 10 -33t34 -14t55 19l20 -33q-58 -41 -106.5 -41t-75.5 25t-27 69q0 22 8 40t30 39q29 28 89 72h41q-78 -80 -78 -143z" />
    <glyph glyph-name="tilde" unicode="&#x2dc;" horiz-adv-x="443" 
d="M221 536q-45 21 -70.5 21t-62.5 -46l-31 19q12 22 41.5 64t43.5 55l23 4q12 -2 57 -25t70 -23t60 40l32 -22q-12 -21 -41 -58t-42 -48l-23 -4q-12 2 -57 23z" />
    <glyph glyph-name="hungarumlaut" unicode="&#x2dd;" horiz-adv-x="322" 
d="M313 697l17 -24l-125 -186l-51 19q5 20 27 88t30 78q13 5 51 14t51 11zM144 697l17 -24l-125 -186l-51 19q5 20 27 88t30 78q13 5 51 14t51 11z" />
    <glyph glyph-name="uni02F3" unicode="&#x2f3;" horiz-adv-x="322" 
d="M120 -154q0 -19 12 -32t29 -13t29.5 13t12.5 32t-12.5 32t-29.5 13t-29 -13t-12 -32zM60 -154q0 37 30 63.5t71 26.5t71.5 -26.5t30.5 -63.5t-30.5 -63.5t-71.5 -26.5t-71 26.5t-30 63.5z" />
    <glyph glyph-name="uni1E00" unicode="&#x1e00;" horiz-adv-x="652" 
d="M148 75q0 -18 25 -27l56 -18l-6 -39q-65 9 -110 9t-114 -9l-8 39q45 9 57 21t29 60l196 534q47 9 89 30l218 -564q18 -47 30 -59.5t51 -21.5l-7 -39q-69 9 -134.5 9t-140.5 -9l-6 39q33 10 56.5 19t23.5 26q0 7 -3 14l-51 139h-202l-47 -139q-2 -5 -2 -14zM201 -154
q0 37 30 63.5t71 26.5t71.5 -26.5t30.5 -63.5t-30.5 -63.5t-71.5 -26.5t-71 26.5t-30 63.5zM286 485l-67 -193h157l-67 186l-11 42l-7 3zM261 -154q0 -19 12 -32t29 -13t29.5 13t12.5 32t-12.5 32t-29.5 13t-29 -13t-12 -32z" />
    <glyph glyph-name="uni1E01" unicode="&#x1e01;" horiz-adv-x="459" 
d="M162 74.5q12 -15.5 38 -15.5t60 29v102l-52 -11q-58 -13 -58 -67q0 -22 12 -37.5zM380 291v-199q0 -21 8.5 -28t27.5 -10l25 -2l9 -34q-54 -9 -135 -34q-42 25 -52 64q-64 -64 -105 -64q-58 0 -93 32t-35 88t42 82.5t121 35.5l67 8v47q0 53 -11.5 79t-44.5 26t-59 -13
q-6 -21 -6 -91l-62 -17q-29 90 -30 122q118 54 176 54q81 0 119 -35.5t38 -110.5zM199 -154q0 -19 12 -32t29 -13t29.5 13t12.5 32t-12.5 32t-29.5 13t-29 -13t-12 -32zM139 -154q0 37 30 63.5t71 26.5t71.5 -26.5t30.5 -63.5t-30.5 -63.5t-71.5 -26.5t-71 26.5t-30 63.5z
" />
    <glyph glyph-name="Macute" unicode="&#x1e3e;" horiz-adv-x="944" 
d="M657 660q52 -10 105.5 -10t111.5 10l7 -39q-37 -9 -55 -18t-16 -34l30 -487q1 -24 18 -34q16 -8 52 -18l-7 -39q-63 9 -125 9t-141 -9l-7 41q72 15 82 32q4 5 3 18l-24 429l-6 5q-11 -50 -21 -74l-119 -300q-17 -42 -37 -114l-6 -22l-95 -24q-28 95 -49 147l-120 308
l-19 66l-7 -5l-29 -416q-1 -13 2.5 -18.5t12.5 -10.5q17 -9 57 -18l13 -3l-8 -41q-65 9 -113.5 9t-111.5 -9l-8 39q37 8 54.5 17t18.5 32l37 493q1 22 -16 31q-16 8 -49 15l-11 3l7 39q55 -10 115.5 -10t116.5 10q12 -46 20 -69l144 -389l13 -47l7 -2q2 33 9 48l143 384z
M613 828l5 -29l-190 -119l-38 38q14 18 61 70.5t58 58.5q48 -3 104 -19z" />
    <glyph glyph-name="macute" unicode="&#x1e3f;" horiz-adv-x="838" 
d="M624 338.5q-15 22.5 -50.5 22.5t-87.5 -42q2 -20 2 -33v-210q0 -19 11 -27q16 -12 43 -22l-8 -36q-88 9 -100.5 9t-111.5 -9l-7 35q24 8 38.5 19t14.5 29v192q0 50 -15 72.5t-50 22.5t-86 -39v-248q0 -31 47 -46l7 -2l-7 -35q-99 9 -112.5 9t-112.5 -9l-10 36q36 8 52 18
t16 31v250q0 34 -26 34l-46 -6l-5 38q33 15 83 28.5t82 16.5l21 -23q0 -20 10 -48l33 27q53 44 94 44q106 0 134 -79l43 35q53 44 94 44q71 0 108 -35.5t37 -115.5v-210q0 -13 3 -18t12 -11q14 -9 53 -20l-8 -36q-99 9 -113 9t-113 -9l-7 35q24 8 38.5 19t14.5 29v192
q0 50 -15 72.5zM560 685l13 -27l-153 -164l-47 27q9 22 41 84t41 71q43 9 105 9z" />
    <glyph glyph-name="Wgrave" unicode="&#x1e80;" horiz-adv-x="1020" 
d="M2 659q66 -9 131.5 -9t140.5 9l7 -39q-36 -9 -57 -18q-25 -9 -25 -28q0 -8 2 -13l119 -382l6 -29l6 -1l4 33l152 467h102l152 -467l6 -26l5 -1l6 30l118 376q2 5 2 13q0 21 -25 28l-59 18l7 39q65 -9 110.5 -9t105.5 9l8 -39q-39 -10 -50 -22t-26 -59l-186 -547h-93
l-154 461l-6 27l-5 1l-8 -34l-150 -455h-94l-182 547q-15 46 -27 58.5t-51 22.5zM382 800l5 29q56 16 104 19q11 -6 58 -58.5t61 -70.5l-38 -38z" />
    <glyph glyph-name="wgrave" unicode="&#x1e81;" horiz-adv-x="730" 
d="M-17 429q67 -8 108 -8t132 8l-4 -35q-31 -8 -43 -13q-8 -4 -8 -13t4 -20l71 -198l6 -26l6 -1l7 29l95 269h74l88 -271l6 -26l6 -1l7 29l68 195q5 11 5 19.5t-6 12.5q-11 10 -47 14l-2 35q56 -7 94 -7t97 7l-7 -37q-26 -3 -35.5 -11.5t-21.5 -35.5l-143 -353h-74l-91 250
l-7 29l-6 1l-6 -30l-94 -250h-72l-145 357q-10 25 -19.5 33t-35.5 11zM265 658l13 27q62 0 105 -9q9 -9 41 -71t41 -84l-47 -27z" />
    <glyph glyph-name="Wacute" unicode="&#x1e82;" horiz-adv-x="1020" 
d="M2 659q66 -9 131.5 -9t140.5 9l7 -39q-36 -9 -57 -18q-25 -9 -25 -28q0 -8 2 -13l119 -382l6 -29l6 -1l4 33l152 467h102l152 -467l6 -26l5 -1l6 30l118 376q2 5 2 13q0 21 -25 28l-59 18l7 39q65 -9 110.5 -9t105.5 9l8 -39q-39 -10 -50 -22t-26 -59l-186 -547h-93
l-154 461l-6 27l-5 1l-8 -34l-150 -455h-94l-182 547q-15 46 -27 58.5t-51 22.5zM671 829l5 -29l-190 -119l-38 38q14 18 61 70.5t58 58.5q48 -3 104 -19z" />
    <glyph glyph-name="wacute" unicode="&#x1e83;" horiz-adv-x="730" 
d="M-17 429q67 -8 108 -8t132 8l-4 -35q-31 -8 -43 -13q-8 -4 -8 -13t4 -20l71 -198l6 -26l6 -1l7 29l95 269h74l88 -271l6 -26l6 -1l7 29l68 195q5 11 5 19.5t-6 12.5q-11 10 -47 14l-2 35q56 -7 94 -7t97 7l-7 -37q-26 -3 -35.5 -11.5t-21.5 -35.5l-143 -353h-74l-91 250
l-7 29l-6 1l-6 -30l-94 -250h-72l-145 357q-10 25 -19.5 33t-35.5 11zM499 685l13 -27l-153 -164l-47 27q9 22 41 84t41 71q43 9 105 9z" />
    <glyph glyph-name="Wdieresis" unicode="&#x1e84;" horiz-adv-x="1020" 
d="M2 659q66 -9 131.5 -9t140.5 9l7 -39q-36 -9 -57 -18q-25 -9 -25 -28q0 -8 2 -13l119 -382l6 -29l6 -1l4 33l152 467h102l152 -467l6 -26l5 -1l6 30l118 376q2 5 2 13q0 21 -25 28l-59 18l7 39q65 -9 110.5 -9t105.5 9l8 -39q-39 -10 -50 -22t-26 -59l-186 -547h-93
l-154 461l-6 27l-5 1l-8 -34l-150 -455h-94l-182 547q-15 46 -27 58.5t-51 22.5zM349 761q0 30 20.5 48.5t54.5 18.5t55 -18.5t21 -48.5t-21 -48.5t-54.5 -18.5t-54.5 18.5t-21 48.5zM572 761q0 30 20.5 48.5t54.5 18.5t55 -18.5t21 -48.5t-21 -48.5t-54.5 -18.5t-54.5 18.5
t-21 48.5z" />
    <glyph glyph-name="wdieresis" unicode="&#x1e85;" horiz-adv-x="730" 
d="M-17 429q67 -8 108 -8t132 8l-4 -35q-31 -8 -43 -13q-8 -4 -8 -13t4 -20l71 -198l6 -26l6 -1l7 29l95 269h74l88 -271l6 -26l6 -1l7 29l68 195q5 11 5 19.5t-6 12.5q-11 10 -47 14l-2 35q56 -7 94 -7t97 7l-7 -37q-26 -3 -35.5 -11.5t-21.5 -35.5l-143 -353h-74l-91 250
l-7 29l-6 1l-6 -30l-94 -250h-72l-145 357q-10 25 -19.5 33t-35.5 11zM204 587q0 30 20.5 48.5t54.5 18.5t55 -18.5t21 -48.5t-21 -48.5t-54.5 -18.5t-54.5 18.5t-21 48.5zM427 587q0 30 20.5 48.5t54.5 18.5t55 -18.5t21 -48.5t-21 -48.5t-54.5 -18.5t-54.5 18.5t-21 48.5z
" />
    <glyph glyph-name="Ygrave" unicode="&#x1ef2;" horiz-adv-x="608" 
d="M-4 660q70 -10 139.5 -10t153.5 10l-3 -38q-29 -6 -46 -15.5t-17 -25t8 -28.5l111 -193l106 194q10 17 10 28.5t-10.5 19t-64.5 20.5l-3 38q82 -10 123 -10t109 10l-4 -38q-31 -3 -50 -17t-37 -53l-157 -276v-198q0 -14 2.5 -19.5t11.5 -10.5q20 -10 58 -18l14 -2l-9 -36
q-75 8 -138.5 8t-132.5 -8l-8 37q73 12 80 29q3 6 3 20v196l-165 285q-17 35 -34 47.5t-46 15.5zM169 799l5 29q56 16 104 19q11 -6 58 -58.5t61 -70.5l-38 -38z" />
    <glyph glyph-name="ygrave" unicode="&#x1ef3;" horiz-adv-x="465" 
d="M70 -244h-17q-24 41 -37 117l23 14q29 -18 51 -18q47 0 72 43l34 79l-153 357q-12 27 -21 34t-34 10l-7 37q80 -8 115 -8t125 8l-4 -35q-2 -1 -10.5 -3t-14 -3.5t-12.5 -3.5q-14 -6 -14 -15q0 -7 4 -21l88 -225l86 229q3 9 3 17q0 18 -53 24l-2 35q49 -7 82 -7t109 7
l-7 -37q-24 -1 -33.5 -8.5t-19.5 -30.5l-210 -491q-45 -105 -143 -105zM115 658l13 27q62 0 105 -9q9 -9 41 -71t41 -84l-47 -27z" />
    <glyph glyph-name="uni1EF4" unicode="&#x1ef4;" horiz-adv-x="608" 
d="M-4 660q70 -10 139.5 -10t153.5 10l-3 -38q-29 -6 -46 -15.5t-17 -25t8 -28.5l111 -193l106 194q10 17 10 28.5t-10.5 19t-64.5 20.5l-3 38q82 -10 123 -10t109 10l-4 -38q-31 -3 -50 -17t-37 -53l-157 -276v-198q0 -14 2.5 -19.5t11.5 -10.5q20 -10 58 -18l14 -2l-9 -36
q-75 8 -138.5 8t-132.5 -8l-8 37q73 12 80 29q3 6 3 20v196l-165 285q-17 35 -34 47.5t-46 15.5zM220 -161q0 32 23 52.5t60 20.5t60.5 -20.5t23.5 -52.5t-23.5 -52.5t-60.5 -20.5t-60 20.5t-23 52.5z" />
    <glyph glyph-name="uni1EF5" unicode="&#x1ef5;" horiz-adv-x="465" 
d="M70 -244h-17q-24 41 -37 117l23 14q29 -18 51 -18q47 0 72 43l34 79l-153 357q-12 27 -21 34t-34 10l-7 37q80 -8 115 -8t125 8l-4 -35q-2 -1 -10.5 -3t-14 -3.5t-12.5 -3.5q-14 -6 -14 -15q0 -7 4 -21l88 -225l86 229q3 9 3 17q0 18 -53 24l-2 35q49 -7 82 -7t109 7
l-7 -37q-24 -1 -33.5 -8.5t-19.5 -30.5l-210 -491q-45 -105 -143 -105zM261 -161q0 32 23 52.5t60 20.5t60.5 -20.5t23.5 -52.5t-23.5 -52.5t-60.5 -20.5t-60 20.5t-23 52.5z" />
    <glyph glyph-name="uni1EF6" unicode="&#x1ef6;" horiz-adv-x="465" 
d="M70 -244h-17q-24 41 -37 117l23 14q29 -18 51 -18q47 0 72 43l34 79l-153 357q-12 27 -21 34t-34 10l-7 37q80 -8 115 -8t125 8l-4 -35q-2 -1 -10.5 -3t-14 -3.5t-12.5 -3.5q-14 -6 -14 -15q0 -7 4 -21l88 -225l86 229q3 9 3 17q0 18 -53 24l-2 35q49 -7 82 -7t109 7
l-7 -37q-24 -1 -33.5 -8.5t-19.5 -30.5l-210 -491q-45 -105 -143 -105zM286 632q0 30 -30 30q-27 0 -70 -30l-24 43q64 33 110 33t77.5 -17.5t31.5 -48.5q0 -46 -71 -79q-20 -9 -20 -24.5t8 -36.5l-56 -17q-8 8 -23.5 35.5t-17.5 36.5l10 21q2 1 26.5 10t36.5 19t12 25z" />
    <glyph glyph-name="uni1EF7" unicode="&#x1ef7;" horiz-adv-x="608" 
d="M-4 660q70 -10 139.5 -10t153.5 10l-3 -38q-29 -6 -46 -15.5t-17 -25t8 -28.5l111 -193l106 194q10 17 10 28.5t-10.5 19t-64.5 20.5l-3 38q82 -10 123 -10t109 10l-4 -38q-31 -3 -50 -17t-37 -53l-157 -276v-198q0 -14 2.5 -19.5t11.5 -10.5q20 -10 58 -18l14 -2l-9 -36
q-75 8 -138.5 8t-132.5 -8l-8 37q73 12 80 29q3 6 3 20v196l-165 285q-17 35 -34 47.5t-46 15.5zM368 830q0 30 -30 30q-27 0 -70 -30l-24 43q64 33 110 33t77.5 -17.5t31.5 -48.5q0 -46 -71 -79q-20 -9 -20 -24.5t8 -36.5l-56 -17q-8 8 -23.5 35.5t-17.5 36.5l10 21
q2 1 26.5 10t36.5 19t12 25z" />
    <glyph glyph-name="Ytilde" unicode="&#x1ef8;" horiz-adv-x="608" 
d="M-4 660q70 -10 139.5 -10t153.5 10l-3 -38q-29 -6 -46 -15.5t-17 -25t8 -28.5l111 -193l106 194q10 17 10 28.5t-10.5 19t-64.5 20.5l-3 38q82 -10 123 -10t109 10l-4 -38q-31 -3 -50 -17t-37 -53l-157 -276v-198q0 -14 2.5 -19.5t11.5 -10.5q20 -10 58 -18l14 -2l-9 -36
q-75 8 -138.5 8t-132.5 -8l-8 37q73 12 80 29q3 6 3 20v196l-165 285q-17 35 -34 47.5t-46 15.5zM323 708q-45 21 -70.5 21t-62.5 -46l-31 19q12 22 41.5 64t43.5 55l23 4q12 -2 57 -25t70 -23t60 40l32 -22q-12 -21 -41 -58t-42 -48l-23 -4q-12 2 -57 23z" />
    <glyph glyph-name="ytilde" unicode="&#x1ef9;" horiz-adv-x="465" 
d="M70 -244h-17q-24 41 -37 117l23 14q29 -18 51 -18q47 0 72 43l34 79l-153 357q-12 27 -21 34t-34 10l-7 37q80 -8 115 -8t125 8l-4 -35q-2 -1 -10.5 -3t-14 -3.5t-12.5 -3.5q-14 -6 -14 -15q0 -7 4 -21l88 -225l86 229q3 9 3 17q0 18 -53 24l-2 35q49 -7 82 -7t109 7
l-7 -37q-24 -1 -33.5 -8.5t-19.5 -30.5l-210 -491q-45 -105 -143 -105zM241 536q-45 21 -70.5 21t-62.5 -46l-31 19q12 22 41.5 64t43.5 55l23 4q12 -2 57 -25t70 -23t60 40l32 -22q-12 -21 -41 -58t-42 -48l-23 -4q-12 2 -57 23z" />
    <glyph glyph-name="endash" unicode="&#x2013;" horiz-adv-x="577" 
d="M-5 189l10 81h577l-10 -81h-577z" />
    <glyph glyph-name="emdash" unicode="&#x2014;" horiz-adv-x="838" 
d="M-5 189l10 81h838l-10 -81h-838z" />
    <glyph glyph-name="quoteleft" unicode="&#x2018;" horiz-adv-x="246" 
d="M67.5 430q-31.5 24 -31.5 59t48 98t92 101l30 -25q-70 -93 -70 -130q0 -13 14 -19t46 -8l14 -30q-10 -17 -33.5 -39.5t-42.5 -33.5q-35 3 -66.5 27z" />
    <glyph glyph-name="quoteright" unicode="&#x2019;" horiz-adv-x="246" 
d="M178 657q32 -26 32 -61t-47.5 -96t-92.5 -100l-30 25q70 93 70 130q0 13 -14 19t-46 8l-14 30q10 17 33.5 39.5t42.5 33.5q34 -2 66 -28z" />
    <glyph glyph-name="quotesinglbase" unicode="&#x201a;" horiz-adv-x="246" 
d="M178 87q32 -26 32 -61t-47.5 -96t-92.5 -100l-30 25q70 93 70 130q0 13 -14 19t-46 8l-14 30q10 17 33.5 39.5t42.5 33.5q34 -2 66 -28z" />
    <glyph glyph-name="quotedblleft" unicode="&#x201c;" horiz-adv-x="456" 
d="M67.5 430q-31.5 24 -31.5 59t47.5 98t91.5 101l31 -25q-70 -93 -70 -130q0 -13 14 -19t46 -8l13 -30q-10 -17 -33 -39t-42 -34q-35 3 -66.5 27zM278.5 430q-31.5 24 -31.5 59t47.5 98t91.5 101l30 -25q-70 -93 -70 -130q0 -13 14 -19t46 -8l14 -30q-10 -17 -33.5 -39.5
t-42.5 -33.5q-34 3 -65.5 27z" />
    <glyph glyph-name="quotedblright" unicode="&#x201d;" horiz-adv-x="456" 
d="M388.5 658q31.5 -24 31.5 -59t-47.5 -98t-91.5 -101l-31 25q70 93 70 130q0 13 -14 19t-46 8l-13 30q10 17 33 39t42 34q35 -3 66.5 -27zM177.5 658q31.5 -24 31.5 -59t-47.5 -98t-91.5 -101l-30 25q70 93 70 130q0 13 -14 19t-46 8l-14 30q10 17 33.5 39.5t42.5 33.5
q34 -3 65.5 -27z" />
    <glyph glyph-name="quotedblbase" unicode="&#x201e;" horiz-adv-x="456" 
d="M388.5 88q31.5 -24 31.5 -59t-47.5 -98t-91.5 -101l-31 25q70 93 70 130q0 24 -60 27l-13 30q10 17 33 39t42 34q35 -3 66.5 -27zM177.5 88q31.5 -24 31.5 -59t-47.5 -98t-91.5 -101l-30 25q70 93 70 130q0 24 -60 27l-14 30q10 17 33.5 39.5t42.5 33.5q34 -3 65.5 -27z
" />
    <glyph glyph-name="bullet" unicode="&#x2022;" horiz-adv-x="441" 
d="M118 164.5q-36 37.5 -36 110.5t31 112t101 39t107.5 -41.5t37.5 -114t-32 -108t-102.5 -35.5t-106.5 37.5z" />
    <glyph glyph-name="ellipsis" unicode="&#x2026;" horiz-adv-x="859" 
d="M65 53q0 30 20.5 48.5t54.5 18.5t55 -18.5t21 -48.5t-21 -48.5t-54.5 -18.5t-54.5 18.5t-21 48.5zM354 53q0 30 20.5 48.5t54.5 18.5t55 -18.5t21 -48.5t-21 -48.5t-54.5 -18.5t-54.5 18.5t-21 48.5zM643 53q0 30 20.5 48.5t54.5 18.5t55 -18.5t21 -48.5t-21 -48.5
t-54.5 -18.5t-54.5 18.5t-21 48.5z" />
    <glyph glyph-name="guilsinglleft" unicode="&#x2039;" horiz-adv-x="303" 
d="M225 24l-187 172v34l187 172l30 -29l-98 -160l98 -160z" />
    <glyph glyph-name="guilsinglright" unicode="&#x203a;" horiz-adv-x="303" 
d="M265 196l-187 -172l-30 29l98 160l-98 160l30 29l187 -172v-34z" />
    <glyph glyph-name="fraction" unicode="&#x2044;" horiz-adv-x="118" 
d="M-145 15l356 672l53 -30l-357 -673z" />
    <glyph glyph-name="zerosuperior" unicode="&#x2070;" horiz-adv-x="457" 
d="M366.5 617.5q53.5 -48.5 53.5 -129t-54 -131.5t-138.5 -51t-137.5 49.5t-53 130t53.5 130.5t138 50t138 -48.5zM297 386q27 34 27 101t-27 100t-68 33t-68.5 -33t-27.5 -99.5t27.5 -101t68.5 -34.5t68 34z" />
    <glyph glyph-name="foursuperior" unicode="&#x2074;" horiz-adv-x="335" 
d="M248 413v-40q0 -13 11 -19l29 -10l-4 -34q-53 5 -81.5 5t-88.5 -5l-4 34q31 5 42 10.5t11 18.5v40h-127l-24 39l156 214h80v-203h49l-10 -50h-39zM163 463v138l-2 1l-6 -14l-87 -120l3 -5h92z" />
    <glyph glyph-name="fivesuperior" unicode="&#x2075;" horiz-adv-x="299" 
d="M192 663q28 0 52 12l12 -14q-4 -30 -16 -53h-113l-11 -79q112 0 140 -51q12 -21 12 -53q0 -51 -40 -83t-91.5 -32t-114.5 20q3 27 22 92l34 -4q-2 -22 -2 -34.5t1 -18.5q16 -9 42 -9t40.5 17t14.5 42q0 42 -26 55t-75 13l-19 21l27 154z" />
    <glyph glyph-name="sixsuperior" unicode="&#x2076;" horiz-adv-x="333" 
d="M186 526q57 0 89.5 -28t32.5 -76.5t-39.5 -80.5t-100.5 -32t-96 38.5t-35 99.5q0 99 66 156.5t160 62.5l4 -31q-113 -16 -134 -133q30 24 53 24zM174 487q-16 0 -43 -23q0 -109 44 -109q41 0 41 59q0 73 -42 73z" />
    <glyph glyph-name="sevensuperior" unicode="&#x2077;" horiz-adv-x="283" 
d="M36 550q-3 22 -3 58.5t2 54.5q24 -4 64 -4h167l14 -28q-134 -182 -137 -312q-33 -10 -85 -10l-8 11q4 45 47.5 124.5t108.5 162.5h-125q-4 -11 -11 -60z" />
    <glyph glyph-name="eightsuperior" unicode="&#x2078;" horiz-adv-x="311" 
d="M60.5 521q-20.5 22 -20.5 56.5t35.5 61.5t81.5 27t77.5 -20.5t31.5 -52.5t-20.5 -54t-49.5 -34q0 -1 -0.5 -1t-0.5 -1q87 -33 87 -97q0 -43 -40 -70t-93 -27t-87.5 22.5t-34.5 67.5q0 55 83 87l-1 2q-28 11 -48.5 33zM138 469q-25 -23 -25 -69.5t42 -46.5q18 0 29 11
t11 28q0 33 -27 54q-10 8 -19 14t-9.5 7t-1.5 2zM166 523q24 24 24 61t-38 37q-16 0 -25 -9.5t-9 -27.5t12 -32t36 -29z" />
    <glyph glyph-name="ninesuperior" unicode="&#x2079;" horiz-adv-x="323" 
d="M143 452q-54 0 -87.5 26.5t-33.5 73t40 80.5t99 34t92 -40t33 -104q0 -98 -68.5 -155.5t-159.5 -60.5l-3 30q44 7 83.5 40.5t50.5 87.5q-22 -12 -46 -12zM153 491q21 0 39 15q0 114 -39 114t-39 -64.5t39 -64.5z" />
    <glyph glyph-name="nsuperior" unicode="&#x207f;" horiz-adv-x="398" 
d="M150 368q0 -13 7 -18l32 -14l-6 -28q-47 7 -85 7t-77 -7l-8 28q29 7 45 17q6 4 6 17v163q0 20 -10 20q-28 0 -41 -8l-4 34q59 23 120 32l13 -17q0 -24 3 -37l14 13q44 40 74 40q52 0 78.5 -25t26.5 -82v-133q0 -12 6 -16q13 -10 44 -18l-6 -28q-52 7 -82.5 7t-81.5 -7
l-6 28q22 7 30.5 14t8.5 18v121q0 59 -45 59q-22 0 -56 -24v-156z" />
    <glyph glyph-name="franc" unicode="&#x20a3;" horiz-adv-x="523" 
d="M109 203v316q0 25 -20 33t-52 15l9 39q68 -10 123 -10h228q46 0 87 6v-160l-46 -8q-19 84 -34 100h-166v-184h93l73 6l10 -16q-2 -33 -17 -56q-34 4 -59 4h-100v-85h126l-10 -52h-116v-64q0 -15 4 -22.5t18 -12.5l80 -19l-7 -42q-76 9 -146.5 9t-142.5 -9l-7 39
q38 8 55 17.5t17 31.5v72h-85l10 52h75z" />
    <glyph glyph-name="lira" unicode="&#x20a4;" horiz-adv-x="525" 
d="M119 335v31q0 101 58 172.5t161 71.5q46 0 120 -18q-8 -63 -35 -146l-49 -3q0 35 -10 95q-20 17 -54.5 17t-50 -40t-15.5 -92v-88h137l-10 -52h-127v-49h119l-10 -52h-109q-3 -67 -43 -98l-21 -7l3 -6h207q10 10 27 49t21 58l47 -9q-2 -72 -19 -169h-309q-20 0 -119 -9
l-8 38q10 1 29.5 10.5t28.5 19.5q31 35 31 76v47h-87l10 52h77v49h-69l10 52h59z" />
    <glyph glyph-name="peseta" unicode="&#x20a7;" horiz-adv-x="529" 
d="M263 279l33 -4q91 0 100 117h-147v-305q0 -15 4 -22.5t18 -12.5l81 -19l-8 -42q-94 9 -146 9t-142 -9l-8 39q38 8 55 17.5t17 31.5v313h-79l10 52h69v77q0 21 -12 27q-18 10 -51 18l-10 3l8 37q3 -3 35 -3l197 7q238 0 248 -166h49l-10 -52h-42q-16 -67 -74 -113
t-125 -46q-13 0 -34.5 9t-31.5 16zM249 444h147q-6 57 -35.5 87t-74.5 30q-16 0 -37 -7v-110z" />
    <glyph glyph-name="dong" unicode="&#x20ab;" horiz-adv-x="542" 
d="M341 588v19q0 37 -17.5 37t-56.5 -9l-7 40q33 14 94.5 27.5t98.5 15.5l20 -23q-12 -25 -12 -93v-14h71l-10 -52h-61v-441q0 -26 16 -33q13 -9 53 -9l7 -35q-82 -12 -142 -34q-40 26 -51 65q-58 -65 -112 -65q-92 0 -141.5 57.5t-49.5 159.5t62.5 169t168.5 67
q40 0 69 -18v117h-144l10 52h134zM196.5 98.5q26.5 -40.5 67.5 -40.5t77 29v246q-14 20 -36 34t-42 14q-41 0 -67 -40.5t-26 -121t26.5 -121zM54 -156v65h470v-65h-470z" />
    <glyph glyph-name="Euro" unicode="&#x20ac;" horiz-adv-x="665" 
d="M430 610q51 0 84 -6q39 -7 108 -23q-8 -101 -24 -162l-50 -9q-11 94 -31 123q-37 24 -102.5 24t-110 -45t-59.5 -126h168l-10 -52h-164q-1 -11 -1 -33v-20h158l-10 -52h-141q17 -84 66 -138t115 -54t95 32t47 110l50 -5q-1 -61 -19 -160q-90 -30 -177 -30
q-130 0 -217.5 66t-102.5 179h-67l10 52h54q0 19 4 53h-51l10 52h52q31 103 114 163.5t202 60.5z" />
    <glyph glyph-name="minus" unicode="&#x2212;" horiz-adv-x="464" 
d="M421 181h-378v76h378v-76z" />
  </font>
</defs>
</svg>
